<?xml version="1.0" encoding="UTF-8" standalone="no"?>
<svg width="13px" height="16px" viewBox="0 0 13 16" version="1.1" xmlns="http://www.w3.org/2000/svg" xmlns:xlink="http://www.w3.org/1999/xlink" xmlns:sketch="http://www.bohemiancoding.com/sketch/ns">
    <!-- Generator: Sketch 3.3.2 (12043) - http://www.bohemiancoding.com/sketch -->
    <title>icon-article</title>
    <desc>Created with Sketch.</desc>
    <defs></defs>
    <g stroke="none" stroke-width="1" fill="rgb(0,0,0)" fill-rule="evenodd" sketch:type="MSPage">
        <g sketch:type="MSArtboardGroup" transform="translate(-546.000000, -533.000000)" fill="rgb(0,0,0)">
            <g sketch:type="MSLayerGroup" transform="translate(100.000000, 220.000000)">
                <g transform="translate(34.000000, 313.000000)" sketch:type="MSShapeGroup">
                    <g transform="translate(412.000000, 0.000000)">
                        <path d="M9.5,11 L3.5,11 C3.36458347,11 3.24739573,11.0494789 3.14843733,11.1484373 C3.04947893,11.2473957 3,11.3645835 3,11.5 C3,11.6354165 3.04947893,11.7526043 3.14843733,11.8515627 C3.24739573,11.9505211 3.36458347,12 3.5,12 L9.5,12 C9.63541653,12 9.75260427,11.9505211 9.85156267,11.8515627 C9.95052107,11.7526043 10,11.6354165 10,11.5 C10,11.3645835 9.95052107,11.2473957 9.85156267,11.1484373 C9.75260427,11.0494789 9.63541653,11 9.5,11 L9.5,11 Z M3,8.5 C3,8.63541653 3.04947893,8.75260427 3.14843733,8.85156267 C3.24739573,8.95052107 3.36458347,9 3.5,9 L9.5,9 C9.63541653,9 9.75260427,8.95052107 9.85156267,8.85156267 C9.95052107,8.75260427 10,8.63541653 10,8.5 C10,8.36458347 9.95052107,8.24739573 9.85156267,8.14843733 C9.75260427,8.04947893 9.63541653,8 9.5,8 L3.5,8 C3.36458347,8 3.24739573,8.04947893 3.14843733,8.14843733 C3.04947893,8.24739573 3,8.36458347 3,8.5 L3,8.5 Z M9,0 L0.5,0 C0.364583467,0 0.247395733,0.0494789333 0.148437333,0.148437333 C0.0494789333,0.247395733 0,0.364583467 0,0.5 L0,15.5 C0,15.6354165 0.0494789333,15.7526043 0.148437333,15.8515627 C0.247395733,15.9505211 0.364583467,16 0.5,16 L12.5,16 C12.6354165,16 12.7526043,15.9505211 12.8515627,15.8515627 C12.9505211,15.7526043 13,15.6354165 13,15.5 L13,4 L9,0 Z M9,1.81250027 L11.1874997,4 L9,4 L9,1.81250027 Z M12,14.5 C12,14.6354165 11.9505211,14.7526043 11.8515627,14.8515627 C11.7526043,14.9505211 11.6354165,15 11.5,15 L1.5,15 C1.36458347,15 1.24739573,14.9505211 1.14843733,14.8515627 C1.04947893,14.7526043 1,14.6354165 1,14.5 L1,1.5 C1,1.36458347 1.04947893,1.24739573 1.14843733,1.14843733 C1.24739573,1.04947893 1.36458347,1 1.5,1 L8,1 L8,5 L12,5 L12,14.5 Z"></path>
                    </g>
                </g>
            </g>
        </g>
    </g>
</svg>