<?xml version="1.0" encoding="UTF-8" standalone="no"?>
<svg width="19px" height="19px" viewBox="0 0 19 19" version="1.1" xmlns="http://www.w3.org/2000/svg" xmlns:xlink="http://www.w3.org/1999/xlink" xmlns:sketch="http://www.bohemiancoding.com/sketch/ns">
    <!-- Generator: Sketch 3.3.2 (12043) - http://www.bohemiancoding.com/sketch -->
    <title>icon (share via email)</title>
    <desc>Created with Sketch.</desc>
    <defs></defs>
    <g stroke="none" stroke-width="1" fill="none" fill-rule="evenodd" sketch:type="MSPage">
        <g sketch:type="MSArtboardGroup" transform="translate(-835.000000, -1406.000000)" fill="#FF9400">
            <g sketch:type="MSLayerGroup" transform="translate(100.000000, 1175.000000)">
                <g transform="translate(719.000000, 91.000000)" sketch:type="MSShapeGroup">
                    <g transform="translate(1.000000, 36.000000)">
                        <path d="M30.4375002,104 L18.5624998,104 C16.5957033,104 15,105.595703 15,107.5625 L15,119.4375 C15,121.404297 16.5957033,123 18.5624998,123 L30.4375002,123 C32.4042974,123 34,121.404297 34,119.4375 L34,107.5625 C34,105.595703 32.4042974,104 30.4375002,104 L30.4375002,104 Z M30.8333336,117.0625 C30.8333336,117.718099 30.3014325,118.25 29.6458334,118.25 L19.3541666,118.25 C18.6985675,118.25 18.1666664,117.718099 18.1666664,117.0625 L18.1666664,111.669271 C18.4511716,111.879557 18.6738281,112.151693 18.9583332,112.33724 C20.1087242,113.128906 21.3209639,113.833985 22.4713541,114.625651 C23.0527341,115.033854 23.7701826,115.479167 24.5,115.479167 L24.5,115.479167 C25.2298182,115.479167 25.9472659,115.033854 26.5286459,114.625651 C27.6790369,113.833985 28.8789068,113.116536 30.0416668,112.34961 C30.3385417,112.164062 30.5983073,111.929037 30.8333336,111.669271 L30.8333336,117.0625 Z M30.8333336,109.974609 C30.8333336,110.593099 30.1035162,111.335286 29.6210939,111.656901 C28.5201826,112.386719 27.4192712,113.091797 26.3183598,113.809245 C25.8483073,114.11849 25.0690103,114.6875 24.5,114.6875 C23.9309897,114.6875 23.1516927,114.11849 22.6816409,113.809245 C21.5930993,113.091797 20.4674477,112.411458 19.3789061,111.681641 C18.8593754,111.335286 18.1666664,110.605469 18.1666664,109.9375 C18.1666664,109.281901 18.6985675,108.75 19.3541666,108.75 L29.6458334,108.75 C30.3385417,108.75 30.8333336,109.306641 30.8333336,109.974609 L30.8333336,109.974609 Z"></path>
                    </g>
                </g>
            </g>
        </g>
    </g>
</svg>