<?xml version="1.0" encoding="UTF-8" standalone="no"?>
<svg width="19px" height="19px" viewBox="0 0 19 19" version="1.1" xmlns="http://www.w3.org/2000/svg" xmlns:xlink="http://www.w3.org/1999/xlink" xmlns:sketch="http://www.bohemiancoding.com/sketch/ns">
    <!-- Generator: Sketch 3.3.2 (12043) - http://www.bohemiancoding.com/sketch -->
    <title>icon (share on gplus)</title>
    <desc>Created with Sketch.</desc>
    <defs></defs>
    <g stroke="none" stroke-width="1" fill="none" fill-rule="evenodd" sketch:type="MSPage">
        <g sketch:type="MSArtboardGroup" transform="translate(-835.000000, -1366.000000)" fill="#E72010">
            <g sketch:type="MSLayerGroup" transform="translate(100.000000, 1175.000000)">
                <g transform="translate(719.000000, 91.000000)" sketch:type="MSShapeGroup">
                    <g transform="translate(1.000000, 36.000000)">
                        <path d="M25.2545576,77.4830734 C25.2545576,76.4192712 24.2031251,75.7760418 23.4485675,75.231771 C23.3124998,75.2070316 23.1888018,75.2070316 23.0651046,75.2070316 C21.7786459,75.2070316 19.8860677,75.6152347 19.8860677,77.2356774 C19.8860677,78.7695314 21.5312499,79.3261719 22.8053389,79.3261719 C23.9804686,79.3261719 25.2545576,78.8437505 25.2545576,77.4830734 L25.2545576,77.4830734 Z M24.3391928,70.7415367 C24.3391928,69.578776 23.6588543,67.6119795 22.2486984,67.6119795 C21.1972659,67.6119795 20.7148437,68.502604 20.7148437,69.4303385 C20.7148437,70.605469 21.3828125,72.4609372 22.7929692,72.4609372 C23.8072917,72.4609372 24.3391928,71.6816409 24.3391928,70.7415367 L24.3391928,70.7415367 Z M25.650391,67.5624998 L24.623698,67.5624998 C25.328776,68.2799483 25.7988284,68.8242191 25.7988284,69.9127607 C25.7988284,71.9537763 23.9433595,72.2011723 23.9433595,73.2031251 C23.9433595,74.2298182 26.3678387,74.6256508 26.3678387,76.8151046 C26.3678387,79.078776 23.9062503,80.0436196 22.0013024,80.0436196 C20.5045576,80.0436196 18.4140624,79.4375002 18.4140624,77.5944009 C18.4140624,76.7161461 18.9707029,75.9739582 19.7005211,75.5162761 C20.6158851,74.9472659 21.815755,74.8111982 22.8795572,74.7369791 C22.5950521,74.3782556 22.3847661,74.0442708 22.3847661,73.5742191 C22.3847661,73.3391928 22.4466147,73.1289061 22.5455732,72.9062503 C22.3723956,72.9309897 22.186849,72.9433595 22.0136721,72.9433595 C20.4798174,72.9433595 19.2552081,71.8300784 19.2552081,70.2714842 C19.2552081,68.0201826 21.4199216,66.770833 23.460938,66.770833 L26.7389327,66.770833 L25.650391,67.5624998 Z M29.25,73.1041666 L29.25,75.0833336 L28.4583332,75.0833336 L28.4583332,73.1041666 L26.8750004,73.1041666 L26.8750004,72.3124998 L28.4583332,72.3124998 L28.4583332,70.729167 L29.25,70.729167 L29.25,72.3124998 L30.8333336,72.3124998 L30.8333336,73.1041666 L29.25,73.1041666 Z M34,67.5624998 C34,65.5957033 32.4042974,64 30.4375002,64 L18.5624998,64 C16.5957033,64 15,65.5957033 15,67.5624998 L15,79.4375002 C15,81.4042974 16.5957033,83 18.5624998,83 L30.4375002,83 C32.4042974,83 34,81.4042974 34,79.4375002 L34,67.5624998 Z"></path>
                    </g>
                </g>
            </g>
        </g>
    </g>
</svg>