<?xml version="1.0" encoding="UTF-8" standalone="no"?>
<svg width="14px" height="9px" viewBox="0 0 14 9" version="1.1" xmlns="http://www.w3.org/2000/svg" xmlns:xlink="http://www.w3.org/1999/xlink" xmlns:sketch="http://www.bohemiancoding.com/sketch/ns">
    <!-- Generator: Sketch 3.4.2 (15857) - http://www.bohemiancoding.com/sketch -->
    <title>icon (list)</title>
    <desc>Created with Sketch.</desc>
    <defs></defs>
    <g stroke="none" stroke-width="1" fill="rgb(0,0,0)" fill-rule="evenodd" sketch:type="MSPage">
        <g sketch:type="MSArtboardGroup" transform="translate(-1489.000000, -908.000000)" fill="rgb(0,0,0)">
            <g sketch:type="MSLayerGroup" transform="translate(99.000000, 847.000000)">
                <g transform="translate(788.000000, 40.000000)" sketch:type="MSShapeGroup">
                    <g>
                        <g transform="translate(560.000000, 14.000000)">
                            <path d="M45,16 L56,16 L56,15 L45,15 L45,16 Z M42,16 L43,16 L43,15 L42,15 L42,16 Z M45,12 L56,12 L56,11 L45,11 L45,12 Z M42,12 L43,12 L43,11 L42,11 L42,12 Z M45,7 L45,8 L56,8 L56,7 L45,7 Z M42,8 L43,8 L43,7 L42,7 L42,8 Z"></path>
                        </g>
                    </g>
                </g>
            </g>
        </g>
    </g>
</svg>