<?xml version="1.0" encoding="utf-8"?>
<svg xmlns="http://www.w3.org/2000/svg"
	xmlns:xlink="http://www.w3.org/1999/xlink"
	width="38px" height="30px">
<path fill="rgb(0,0,0)" fill-rule="evenodd" d="M 38.01 3.56C 36.61 4.16 35.1 4.57 33.53 4.75 35.14 3.82 36.37 2.33 36.96 0.56 35.45 1.43 33.78 2.06 32 2.4 30.58 0.93 28.55 0.01 26.31 0.01 22 0.01 18.51 3.4 18.51 7.58 18.51 8.17 18.58 8.75 18.72 9.3 12.23 8.99 6.49 5.98 2.64 1.4 1.97 2.52 1.59 3.82 1.59 5.2 1.59 7.83 2.96 10.15 5.05 11.5 3.78 11.46 2.57 11.12 1.52 10.55 1.52 10.59 1.52 10.62 1.52 10.65 1.52 14.32 4.21 17.38 7.78 18.07 7.12 18.24 6.43 18.34 5.72 18.34 5.22 18.34 4.73 18.29 4.26 18.2 5.25 21.21 8.13 23.4 11.54 23.46 8.87 25.49 5.51 26.7 1.86 26.7 1.23 26.7 0.61 26.66-0 26.59 3.45 28.74 7.55 29.99 11.95 29.99 26.29 29.99 34.14 18.46 34.14 8.46 34.14 8.13 34.13 7.8 34.11 7.48 35.64 6.41 36.96 5.08 38.01 3.56Z"/>
</svg>