<?xml version="1.0" encoding="utf-8"?>
<svg xmlns="http://www.w3.org/2000/svg"
	xmlns:xlink="http://www.w3.org/1999/xlink"
	width="18px" height="16px">
<path fill="rgb(0,0,0)" fill-rule="evenodd" d="M 8.73 16C 8.73 16 8.72 16 8.71 16 8.42 15.99 8.18 15.76 8.13 15.46 8.13 15.46 6.45 4.27 6.45 4.27 6.45 4.27 4.88 9.33 4.88 9.33 4.79 9.59 4.56 9.76 4.3 9.76 4.3 9.76 0.61 9.76 0.61 9.76 0.27 9.76 0 9.25 0 8.89 0 8.54 0.27 8.14 0.61 8.14 0.61 8.14 3.87 8.14 3.87 8.14 3.87 8.14 6.09 0.43 6.09 0.43 6.19 0.15 6.45-0.03 6.72 0 7 0.03 7.23 0.25 7.27 0.54 7.27 0.54 8.83 11.91 8.83 11.91 8.83 11.91 10.48 3.28 10.48 3.28 10.54 2.99 10.79 2.78 11.07 2.78 11.07 2.78 11.08 2.78 11.08 2.78 11.37 2.78 11.61 3 11.67 3.3 11.67 3.3 13.04 10.27 13.04 10.27 13.04 10.27 13.49 8.6 13.49 8.6 13.57 8.33 13.81 8.14 14.08 8.14 14.08 8.14 17.39 8.14 17.39 8.14 17.73 8.14 18 8.59 18 8.95 18 9.31 17.73 9.82 17.39 9.82 17.39 9.82 14.54 9.82 14.54 9.82 14.54 9.82 13.52 12.96 13.52 12.96 13.44 13.25 13.18 13.46 12.91 13.43 12.63 13.42 12.39 13.2 12.34 12.91 12.34 12.91 11.15 6.87 11.15 6.87 11.15 6.87 9.33 15.5 9.33 15.5 9.27 15.79 9.02 16 8.73 16Z"/>
</svg>