<?xml version="1.0" encoding="UTF-8" standalone="no"?>
<svg width="11px" height="21px" viewBox="0 0 11 21" version="1.1" xmlns="http://www.w3.org/2000/svg" xmlns:xlink="http://www.w3.org/1999/xlink" xmlns:sketch="http://www.bohemiancoding.com/sketch/ns">
    <!-- Generator: Sketch 3.3.2 (12043) - http://www.bohemiancoding.com/sketch -->
    <title>icon (arrow right)</title>
    <desc>Created with Sketch.</desc>
    <defs>
    </defs>
    <g stroke="none" stroke-width="1" fill="rgb(0,0,0)" fill-rule="evenodd" sketch:type="MSPage">
        <g sketch:type="MSArtboardGroup" transform="translate(-1440.000000, -3698.000000)">
            <g sketch:type="MSLayerGroup" transform="translate(389.000000, 3381.000000)">
                <g transform="translate(0.000000, 317.000000)" sketch:type="MSShapeGroup">
                    <path d="M1066.26562,5.70089295 C1066.10938,5.56696457 1065.92274,5.5 1065.70573,5.5 C1065.48872,5.5 1065.30208,5.56696457 1065.14583,5.70089295 L1056.5,13.7812503 L1047.85417,5.70089295 C1047.69792,5.56696457 1047.51128,5.5 1047.29427,5.5 C1047.07726,5.5 1046.89062,5.56696457 1046.73438,5.70089295 C1046.57813,5.83482133 1046.5,5.99479162 1046.5,6.18080381 C1046.5,6.36681524 1046.57813,6.52678552 1046.73438,6.66071467 C1046.73438,6.66071467 1047.21181,7.11086324 1048.16667,8.01116038 C1049.12153,8.91145829 1050.16754,9.90104152 1051.30469,10.9799109 C1052.44184,12.0587794 1053.49219,13.044643 1054.45573,13.9375002 C1055.41927,14.8303573 1055.90104,15.2842263 1055.90104,15.299107 C1055.98785,15.3735116 1056.08333,15.4255954 1056.1875,15.455357 C1056.29167,15.4851192 1056.39583,15.5 1056.5,15.5 C1056.60417,15.5 1056.70833,15.4851192 1056.8125,15.455357 C1056.91667,15.4255954 1057.01215,15.3735116 1057.09896,15.299107 C1057.09896,15.2842263 1057.57639,14.8303573 1058.53125,13.9375002 C1059.48611,13.044643 1060.53646,12.0587794 1061.68229,10.9799109 C1062.82813,9.90104152 1063.87847,8.91145829 1064.83333,8.01116038 C1065.78819,7.11086324 1066.26562,6.66071467 1066.26562,6.66071467 C1066.42187,6.52678552 1066.5,6.36681524 1066.5,6.18080381 C1066.5,5.99479162 1066.42187,5.83482133 1066.26562,5.70089295 L1066.26562,5.70089295 Z" transform="translate(1056.500000, 10.500000) rotate(-90.000000) translate(-1056.500000, -10.500000) "></path>
                </g>
            </g>
        </g>
    </g>
</svg>