<?xml version="1.0" encoding="UTF-8" standalone="no"?>
<svg width="11px" height="21px" viewBox="0 0 11 21" version="1.1" xmlns="http://www.w3.org/2000/svg" xmlns:xlink="http://www.w3.org/1999/xlink" xmlns:sketch="http://www.bohemiancoding.com/sketch/ns">
    <!-- Generator: Sketch 3.3.2 (12043) - http://www.bohemiancoding.com/sketch -->
    <title>icon (arrow left)</title>
    <desc>Created with Sketch.</desc>
    <g stroke="none" stroke-width="1" fill="rgb(0,0,0)" fill-rule="evenodd" sketch:type="MSPage">
        <g sketch:type="MSArtboardGroup" transform="translate(-389.000000, -3698.000000)">
            <g sketch:type="MSLayerGroup" transform="translate(389.000000, 3381.000000)">
                <g transform="translate(0.000000, 317.000000)" sketch:type="MSShapeGroup">
                    <path d="M14.7057289,5.5 C14.4887156,5.5 14.3020836,5.56696457 14.1458329,5.70089295 L5.5,13.7812503 L-3.14583289,5.70089295 C-3.30208356,5.56696457 -3.48871556,5.5 -3.70572889,5.5 C-3.92274311,5.5 -4.10937511,5.56696457 -4.26562489,5.70089295 C-4.42187467,5.83482133 -4.5,5.99479162 -4.5,6.18080381 C-4.5,6.36681524 -4.42187467,6.52678552 -4.26562489,6.66071467 C-4.26562489,6.66071467 -3.78819467,7.11086324 -2.83333333,8.01116038 C-1.878472,8.91145829 -0.832464889,9.90104152 0.304687111,10.9799109 C1.44184,12.0587794 2.49218756,13.044643 3.45572889,13.9375002 C4.41927111,14.8303573 4.90104178,15.2842263 4.90104178,15.299107 C4.98784711,15.3735116 5.08333333,15.4255954 5.18750044,15.455357 C5.29166667,15.4851192 5.39583289,15.5 5.5,15.5 C5.60416711,15.5 5.70833333,15.4851192 5.81249956,15.455357 C5.91666667,15.4255954 6.01215289,15.3735116 6.09895822,15.299107 C6.09895822,15.2842263 6.57638933,14.8303573 7.53124978,13.9375002 C8.48611111,13.044643 9.53645867,12.0587794 10.6822916,10.9799109 C11.8281253,9.90104152 12.878472,8.91145829 13.8333333,8.01116038 C14.7881947,7.11086324 15.2656249,6.66071467 15.2656249,6.66071467 C15.4218747,6.52678552 15.5,6.36681524 15.5,6.18080381 C15.5,5.99479162 15.4218747,5.83482133 15.2656249,5.70089295 C15.1093751,5.56696457 14.9227431,5.5 14.7057289,5.5 Z" transform="translate(5.500000, 10.500000) scale(-1, 1) rotate(-90.000000) translate(-5.500000, -10.500000) "></path>
                </g>
            </g>
        </g>
    </g>
</svg>