<?xml version="1.0" encoding="UTF-8" standalone="no"?>
<svg width="10px" height="6px" viewBox="0 0 10 6" version="1.1" xmlns="http://www.w3.org/2000/svg" xmlns:xlink="http://www.w3.org/1999/xlink" xmlns:sketch="http://www.bohemiancoding.com/sketch/ns">
    <!-- Generator: Sketch 3.3.2 (12043) - http://www.bohemiancoding.com/sketch -->
    <title>icon (arrow down)</title>
    <desc>Created with Sketch.</desc>
    <defs></defs>
    <g stroke="none" stroke-width="1" fill="rgb(0,0,0)" fill-rule="evenodd" sketch:type="MSPage">
        <g sketch:type="MSArtboardGroup" transform="translate(-1021.000000, -413.000000)" fill="rgb(0,0,0)">
            <g sketch:type="MSLayerGroup" transform="translate(100.000000, 223.000000)">
                <g transform="translate(362.000000, 150.000000)" sketch:type="MSShapeGroup">
                    <path d="M568.882812,40.1171876 C568.804688,40.0390627 568.711372,40 568.602864,40 C568.494358,40 568.401042,40.0390627 568.322916,40.1171876 L564,44.8307293 L559.677084,40.1171876 C559.598958,40.0390627 559.505642,40 559.397136,40 C559.288628,40 559.195312,40.0390627 559.117188,40.1171876 C559.039063,40.1953124 559,40.2886284 559,40.3971356 C559,40.5056422 559.039063,40.5989582 559.117188,40.6770836 C559.117188,40.6770836 559.355903,40.9396702 559.833333,41.4648436 C560.310764,41.9900173 560.833768,42.5672742 561.402344,43.1966147 C561.97092,43.8259547 562.496094,44.4010418 562.977864,44.9218751 C563.459636,45.4427084 563.700521,45.7074653 563.700521,45.7161458 C563.743924,45.7595484 563.791667,45.7899307 563.84375,45.8072916 C563.895833,45.8246529 563.947916,45.8333333 564,45.8333333 C564.052084,45.8333333 564.104167,45.8246529 564.15625,45.8072916 C564.208333,45.7899307 564.256076,45.7595484 564.299479,45.7161458 C564.299479,45.7074653 564.538195,45.4427084 565.015625,44.9218751 C565.493056,44.4010418 566.018229,43.8259547 566.591146,43.1966147 C567.164063,42.5672742 567.689236,41.9900173 568.166667,41.4648436 C568.644097,40.9396702 568.882812,40.6770836 568.882812,40.6770836 C568.960937,40.5989582 569,40.5056422 569,40.3971356 C569,40.2886284 568.960937,40.1953124 568.882812,40.1171876 L568.882812,40.1171876 Z"></path>
                </g>
            </g>
        </g>
    </g>
</svg>