<?xml version="1.0" encoding="UTF-8" standalone="no"?>
<svg width="10px" height="6px" viewBox="0 0 10 6" version="1.1" xmlns="http://www.w3.org/2000/svg" xmlns:xlink="http://www.w3.org/1999/xlink" xmlns:sketch="http://www.bohemiancoding.com/sketch/ns">
    <!-- Generator: Sketch 3.3.2 (12043) - http://www.bohemiancoding.com/sketch -->
    <title>icon (arrow)</title>
    <desc>Created with Sketch.</desc>
    <defs></defs>
    <g stroke="none" stroke-width="1" fill="rgb(0,0,0)" fill-rule="evenodd" sketch:type="MSPage">
        <g sketch:type="MSArtboardGroup" transform="translate(-269.000000, -454.000000)" fill="rgb(0,0,0)">
            <g sketch:type="MSLayerGroup" transform="translate(100.000000, 212.000000)">
                <g transform="translate(15.000000, 73.000000)" sketch:type="MSShapeGroup">
                    <g transform="translate(0.000000, 149.000000)">
                        <path d="M163.882812,20.1171876 C163.804688,20.0390627 163.711372,20 163.602864,20 C163.494358,20 163.401042,20.0390627 163.322916,20.1171876 L159,24.8307293 L154.677084,20.1171876 C154.598958,20.0390627 154.505642,20 154.397136,20 C154.288628,20 154.195312,20.0390627 154.117188,20.1171876 C154.039063,20.1953124 154,20.2886284 154,20.3971356 C154,20.5056422 154.039063,20.5989582 154.117188,20.6770836 C154.117188,20.6770836 154.355903,20.9396702 154.833333,21.4648436 C155.310764,21.9900173 155.833768,22.5672742 156.402344,23.1966147 C156.97092,23.8259547 157.496094,24.4010418 157.977864,24.9218751 C158.459636,25.4427084 158.700521,25.7074653 158.700521,25.7161458 C158.743924,25.7595484 158.791667,25.7899307 158.84375,25.8072916 C158.895833,25.8246529 158.947916,25.8333333 159,25.8333333 C159.052084,25.8333333 159.104167,25.8246529 159.15625,25.8072916 C159.208333,25.7899307 159.256076,25.7595484 159.299479,25.7161458 C159.299479,25.7074653 159.538195,25.4427084 160.015625,24.9218751 C160.493056,24.4010418 161.018229,23.8259547 161.591146,23.1966147 C162.164063,22.5672742 162.689236,21.9900173 163.166667,21.4648436 C163.644097,20.9396702 163.882812,20.6770836 163.882812,20.6770836 C163.960937,20.5989582 164,20.5056422 164,20.3971356 C164,20.2886284 163.960937,20.1953124 163.882812,20.1171876 L163.882812,20.1171876 Z" transform="translate(159.000000, 22.916667) rotate(-180.000000) translate(-159.000000, -22.916667) "></path>
                    </g>
                </g>
            </g>
        </g>
    </g>
</svg>