<?xml version="1.0" encoding="UTF-8" standalone="no"?>
<svg width="16px" height="16px" viewBox="0 0 16 16" version="1.1" xmlns="http://www.w3.org/2000/svg" xmlns:xlink="http://www.w3.org/1999/xlink" xmlns:sketch="http://www.bohemiancoding.com/sketch/ns">
    <!-- Generator: Sketch 3.3.2 (12043) - http://www.bohemiancoding.com/sketch -->
    <title>icon-audio</title>
    <desc>Created with Sketch.</desc>
    <defs></defs>
    <g stroke="none" stroke-width="1" fill="rgb(0,0,0)" fill-rule="evenodd" sketch:type="MSPage">
        <g sketch:type="MSArtboardGroup" transform="translate(-544.000000, -600.000000)" fill="rgb(0,0,0)">
            <g sketch:type="MSLayerGroup" transform="translate(100.000000, 220.000000)">
                <g transform="translate(41.000000, 380.000000)" sketch:type="MSShapeGroup">
                    <g transform="translate(403.000000, 0.000000)">
                        <path d="M1.375,4 C1.00260453,4 0.680338267,4.13194453 0.4082034,4.3958336 C0.1360678,4.65972196 0,4.97222258 0,5.33333333 L0,10.6666667 C0,11.0416668 0.1360678,11.3576391 0.4082034,11.6145835 C0.680338267,11.8715278 1.00260453,12 1.375,12 L4.125,12 L11,16 L11,0 L8.18966208,1.6351057 L4.125,4 L1.375,4 Z M10,14 L4.22222222,10.6666667 L2.05555556,10.6666667 C1.8599539,10.6666667 1.69068273,10.6006948 1.54774281,10.4687502 C1.4048029,10.3368057 1.33333333,10.1805554 1.33333333,10 L1.33333333,6 C1.33333333,5.81944462 1.4048029,5.66319431 1.54774281,5.53124978 C1.69068273,5.39930524 1.8599539,5.33333333 2.05555556,5.33333333 L4.22222222,5.33333333 L10,2 L10,14 Z M12,3.3958336 L12,4.72916693 C12.7638891,4.88194418 13.3993052,5.26388907 13.90625,5.87500018 C14.4131947,6.48611129 14.6666667,7.1944448 14.6666667,8 C14.6666667,8.8055552 14.4131947,9.51388871 13.90625,10.1249998 C13.3993052,10.7361109 12.7638891,11.1180558 12,11.2708331 L12,12.6041664 C12.5694443,12.5208334 13.0972224,12.3437497 13.583333,12.0729166 C14.0694443,11.8020836 14.4895836,11.4652779 14.8437497,11.0625003 C15.1979164,10.659722 15.4791666,10.1944448 15.6875001,9.66666667 C15.8958336,9.13888853 16,8.58333298 16,8 C16,7.41666702 15.8958336,6.86458311 15.6875001,6.34374969 C15.4791666,5.82291698 15.1979164,5.35763911 14.8437497,4.9479168 C14.4895836,4.53819449 14.0694443,4.19791644 13.583333,3.92708338 C13.0972224,3.65625031 12.5694443,3.47916658 12,3.3958336 L12,3.3958336 Z"></path>
                    </g>
                </g>
            </g>
        </g>
    </g>
</svg>