<?xml version="1.0" encoding="utf-8"?>
<svg xmlns="http://www.w3.org/2000/svg"
	xmlns:xlink="http://www.w3.org/1999/xlink"
	width="18px" height="18px">
<path fill="rgb(0,0,0)" fill-rule="evenodd" d="M 15.37 15.36C 13.61 17.12 11.3 18 9 18 6.69 18 4.38 17.12 2.62 15.36-0.9 11.85-0.9 6.15 2.62 2.64 4.38 0.88 6.69 0 9 0 11.3 0 13.61 0.88 15.37 2.64 18.89 6.15 18.89 11.85 15.37 15.36ZM 13.95 4.05C 12.63 2.73 10.87 2 9 2 7.12 2 5.36 2.73 4.04 4.05 2.72 5.37 1.99 7.13 1.99 9 1.99 10.87 2.72 12.63 4.04 13.95 5.36 15.27 7.12 16 9 16 10.87 16 12.63 15.27 13.95 13.95 15.28 12.63 16 10.87 16 9 16 7.13 15.28 5.37 13.95 4.05ZM 10.24 10.23C 10.23 10.24 10.21 10.26 10.19 10.27 10.19 10.27 4.72 13.44 4.72 13.44 4.7 13.45 4.68 13.45 4.66 13.45 4.63 13.45 4.6 13.44 4.57 13.42 4.53 13.38 4.52 13.32 4.55 13.27 4.55 13.27 7.73 7.8 7.73 7.8 7.74 7.79 7.74 7.78 7.74 7.78 7.76 7.76 7.78 7.74 7.8 7.73 7.8 7.73 13.27 4.56 13.27 4.56 13.29 4.55 13.31 4.55 13.33 4.55 13.36 4.55 13.39 4.56 13.42 4.58 13.46 4.62 13.47 4.68 13.44 4.73 13.44 4.73 10.26 10.2 10.26 10.2 10.26 10.21 10.25 10.22 10.24 10.23ZM 8.86 7.99C 8.86 7.99 10.01 9.13 10.01 9.13 10.01 9.13 11.6 6.39 11.6 6.39 11.6 6.39 8.86 7.99 8.86 7.99Z"/>
</svg>