<?xml version="1.0" encoding="UTF-8" standalone="no"?>
<svg width="15px" height="16px" viewBox="0 0 15 16" version="1.1" xmlns="http://www.w3.org/2000/svg" xmlns:xlink="http://www.w3.org/1999/xlink" xmlns:sketch="http://www.bohemiancoding.com/sketch/ns">
    <!-- Generator: Sketch 3.3.2 (12043) - http://www.bohemiancoding.com/sketch -->
    <title>icon (calendar)</title>
    <desc>Created with Sketch.</desc>
    <defs></defs>
    <g stroke="none" stroke-width="1" fill="rgb(0,0,0)" fill-rule="evenodd" sketch:type="MSPage">
        <g sketch:type="MSArtboardGroup" transform="translate(-632.000000, -972.000000)" fill="rgb(0,0,0)">
            <g sketch:type="MSLayerGroup" transform="translate(100.000000, 884.000000)">
                <g transform="translate(311.000000, 74.000000)" sketch:type="MSShapeGroup">
                    <path d="M234,25 L231,25 L231,28 L234,28 L234,25 Z M233,27 L232,27 L232,26 L233,26 L233,27 Z M234,21 L231,21 L231,24 L234,24 L234,21 Z M233,23 L232,23 L232,22 L233,22 L233,23 Z M235.5,15 L232,15 L232,14 L231,14 L231,15 L226,15 L226,14 L225,14 L225,15 L222,15 C221.729167,15 221.494791,15.0989584 221.296875,15.2968752 C221.098958,15.4947915 221,15.7291669 221,16 L221,29 C221,29.2812501 221.098958,29.5182293 221.296875,29.7109376 C221.494791,29.9036459 221.729167,30 222,30 L235,30 C235.28125,30 235.518229,29.9036459 235.710938,29.7109376 C235.903646,29.5182293 236,29.2812501 236,29 L236,16 C236,15.7291669 235.986979,15.4947915 235.960938,15.2968752 C235.934896,15.0989584 235.78125,15 235.5,15 L235.5,15 Z M235,28.5 C235,28.6354165 234.950521,28.7526043 234.851563,28.8515627 C234.752604,28.9505211 234.635417,29 234.5,29 L222.5,29 C222.364583,29 222.247396,28.9505211 222.148437,28.8515627 C222.049479,28.7526043 222,28.6354165 222,28.5 L222,19 L235,19 L235,28.5 Z M235,18 L222,18 L222,16.5 C222,16.3645835 222.049479,16.2473957 222.148437,16.1484373 C222.247396,16.0494789 222.364583,16 222.5,16 L225,16 L225,17 L226,17 L226,16 L231,16 L231,17 L232,17 L232,16 L234.5,16 C234.635417,16 234.752604,16.0494789 234.851563,16.1484373 C234.950521,16.2473957 235,16.3645835 235,16.5 L235,18 Z M226,25 L223,25 L223,28 L226,28 L226,25 Z M225,27 L224,27 L224,26 L225,26 L225,27 Z M230,25 L227,25 L227,28 L230,28 L230,25 Z M229,27 L228,27 L228,26 L229,26 L229,27 Z M226,21 L223,21 L223,24 L226,24 L226,21 Z M225,23 L224,23 L224,22 L225,22 L225,23 Z M230,21 L227,21 L227,24 L230,24 L230,21 Z M229,23 L228,23 L228,22 L229,22 L229,23 Z"></path>
                </g>
            </g>
        </g>
    </g>
</svg>