<?xml version="1.0" encoding="utf-8"?>
<svg xmlns="http://www.w3.org/2000/svg"
	xmlns:xlink="http://www.w3.org/1999/xlink"
	width="16px" height="16px">
<path fill="rgb(0,0,0)" fill-rule="evenodd" d="M 8 0C 3.58 0 0 3.58 0 8 0 12.42 3.58 16 8 16 12.42 16 16 12.42 16 8 16 3.58 12.42 0 8 0ZM 11.59 8.94C 11.59 8.94 8.93 8.94 8.93 8.94 8.93 8.94 8.93 11.58 8.93 11.58 8.93 12.1 8.52 12.52 8 12.52 7.48 12.52 7.06 12.1 7.06 11.58 7.06 11.58 7.06 8.94 7.06 8.94 7.06 8.94 4.42 8.94 4.42 8.94 3.9 8.94 3.48 8.52 3.48 8 3.48 7.48 3.9 7.07 4.42 7.07 4.42 7.07 7.06 7.07 7.06 7.07 7.06 7.07 7.06 4.41 7.06 4.41 7.06 3.9 7.48 3.48 8 3.48 8.52 3.48 8.93 3.9 8.93 4.41 8.93 4.41 8.93 7.07 8.93 7.07 8.93 7.07 11.59 7.07 11.59 7.07 12.1 7.07 12.52 7.48 12.52 8 12.52 8.52 12.1 8.94 11.59 8.94Z"/>
</svg>