<?xml version="1.0" encoding="utf-8"?>
<svg xmlns="http://www.w3.org/2000/svg"
	xmlns:xlink="http://www.w3.org/1999/xlink"
	width="16px" height="16px">
<path fill="rgb(0,0,0)" fill-rule="evenodd" d="M 13.66 13.66C 16.78 10.53 16.78 5.47 13.66 2.34 10.53-0.78 5.47-0.78 2.34 2.34-0.78 5.47-0.78 10.53 2.34 13.66 5.47 16.78 10.53 16.78 13.66 13.66ZM 4.8 9.87C 4.8 9.87 6.68 8 6.68 8 6.68 8 4.81 6.13 4.81 6.13 4.44 5.76 4.44 5.17 4.8 4.8 5.17 4.44 5.76 4.44 6.13 4.8 6.13 4.8 8 6.68 8 6.68 8 6.68 9.87 4.8 9.87 4.8 10.24 4.44 10.83 4.44 11.19 4.8 11.56 5.17 11.56 5.76 11.2 6.13 11.2 6.13 9.32 8 9.32 8 9.32 8 11.2 9.87 11.2 9.87 11.56 10.24 11.56 10.83 11.2 11.2 10.83 11.56 10.24 11.56 9.87 11.2 9.87 11.2 8 9.32 8 9.32 8 9.32 6.13 11.2 6.13 11.2 5.76 11.56 5.17 11.56 4.8 11.2 4.44 10.83 4.44 10.24 4.8 9.87Z"/>
</svg>