<svg width="30.000000" height="30.000000" viewBox="0.000000 -58.125000 30.000000 30.000000" xmlns="http://www.w3.org/2000/svg"><path d="M22.500000 -43.125000L15.000000 -43.125000L15.000000 -50.625000C15.000000 -50.878906 14.907227 -51.098633 14.721680 -51.284180C14.536133 -51.469727 14.316406 -51.562500 14.062500 -51.562500C13.808594 -51.562500 13.588867 -51.469727 13.403320 -51.284180C13.217773 -51.098633 13.125000 -50.878906 13.125000 -50.625000L13.125000 -42.216797C13.125000 -42.197266 13.125000 -42.187500 13.125000 -42.187500C13.125000 -42.089844 13.144531 -41.997070 13.183594 -41.909180C13.222656 -41.821289 13.271484 -41.738281 13.330078 -41.660156C13.408203 -41.542969 13.510742 -41.445312 13.637695 -41.367188C13.764648 -41.289062 13.906250 -41.250000 14.062500 -41.250000C14.062500 -41.250000 14.067383 -41.250000 14.077148 -41.250000C14.086914 -41.250000 14.091797 -41.250000 14.091797 -41.250000L22.500000 -41.250000C22.753906 -41.250000 22.973633 -41.342773 23.159180 -41.528320C23.344727 -41.713867 23.437500 -41.933594 23.437500 -42.187500C23.437500 -42.441406 23.344727 -42.661133 23.159180 -42.846680C22.973633 -43.032227 22.753906 -43.125000 22.500000 -43.125000ZM15.000000 -58.125000C12.929688 -58.125000 10.981445 -57.729492 9.155273 -56.938477C7.329102 -56.147461 5.737305 -55.078125 4.379883 -53.730469C3.022461 -52.382812 1.953125 -50.795898 1.171875 -48.969727C0.390625 -47.143555 0.000000 -45.195312 0.000000 -43.125000C0.000000 -41.054688 0.390625 -39.106445 1.171875 -37.280273C1.953125 -35.454102 3.022461 -33.862305 4.379883 -32.504883C5.737305 -31.147461 7.329102 -30.078125 9.155273 -29.296875C10.981445 -28.515625 12.929688 -28.125000 15.000000 -28.125000C17.070312 -28.125000 19.018555 -28.515625 20.844727 -29.296875C22.670898 -30.078125 24.262695 -31.147461 25.620117 -32.504883C26.977539 -33.862305 28.046875 -35.454102 28.828125 -37.280273C29.609375 -39.106445 30.000000 -41.054688 30.000000 -43.125000C30.000000 -45.195312 29.609375 -47.143555 28.828125 -48.969727C28.046875 -50.795898 26.977539 -52.382812 25.620117 -53.730469C24.262695 -55.078125 22.670898 -56.147461 20.844727 -56.938477C19.018555 -57.729492 17.070312 -58.125000 15.000000 -58.125000ZM15.000000 -30.000000C13.183594 -30.000000 11.479492 -30.341797 9.887695 -31.025391C8.295898 -31.708984 6.904297 -32.646484 5.712891 -33.837891C4.521484 -35.029297 3.583984 -36.420898 2.900391 -38.012695C2.216797 -39.604492 1.875000 -41.308594 1.875000 -43.125000C1.875000 -44.941406 2.216797 -46.645508 2.900391 -48.237305C3.583984 -49.829102 4.521484 -51.220703 5.712891 -52.412109C6.904297 -53.603516 8.295898 -54.541016 9.887695 -55.224609C11.479492 -55.908203 13.183594 -56.250000 15.000000 -56.250000C16.816406 -56.250000 18.520508 -55.908203 20.112305 -55.224609C21.704102 -54.541016 23.095703 -53.603516 24.287109 -52.412109C25.478516 -51.220703 26.416016 -49.829102 27.099609 -48.237305C27.783203 -46.645508 28.125000 -44.941406 28.125000 -43.125000C28.125000 -41.308594 27.783203 -39.604492 27.099609 -38.012695C26.416016 -36.420898 25.478516 -35.029297 24.287109 -33.837891C23.095703 -32.646484 21.704102 -31.708984 20.112305 -31.025391C18.520508 -30.341797 16.816406 -30.000000 15.000000 -30.000000ZM15.000000 -30.000000"></path></svg>