<?xml version="1.0" encoding="UTF-8" standalone="no"?>
<svg width="15px" height="15px" viewBox="0 0 15 15" version="1.1" xmlns="http://www.w3.org/2000/svg" xmlns:xlink="http://www.w3.org/1999/xlink" xmlns:sketch="http://www.bohemiancoding.com/sketch/ns">
    <!-- Generator: Sketch 3.3.2 (12043) - http://www.bohemiancoding.com/sketch -->
    <title>icon (close)</title>
    <desc>Created with Sketch.</desc>
    <defs></defs>
    <g stroke="none" stroke-width="1" fill="rgb(0,0,0)" fill-rule="evenodd" sketch:type="MSPage">
        <g sketch:type="MSArtboardGroup" transform="translate(-1518.000000, -2070.000000)" fill="#000000">
            <g sketch:type="MSLayerGroup" transform="translate(1252.000000, 2046.000000)">
                <g transform="translate(1.000000, 21.000000)" sketch:type="MSShapeGroup">
                    <path d="M273.253348,10.5 L279.84933,3.90401771 C279.949777,3.79241086 280,3.66406229 280,3.51897314 C280,3.373884 279.949777,3.251116 279.84933,3.15066971 C279.748884,3.05022343 279.626116,3 279.481027,3 C279.335938,3 279.21317,3.05022343 279.112723,3.15066971 L272.5,9.76339314 L265.887277,3.15066971 C265.78683,3.05022343 265.664062,3 265.518973,3 C265.373884,3 265.251116,3.05022343 265.15067,3.15066971 C265.050223,3.251116 265,3.373884 265,3.51897314 C265,3.66406229 265.050223,3.79241086 265.15067,3.90401771 L271.746652,10.5 L265.15067,17.1127234 C265.050223,17.2131697 265,17.3359377 265,17.4810269 C265,17.626116 265.050223,17.748884 265.15067,17.8493303 C265.251116,17.9497766 265.373884,18 265.518973,18 C265.664062,18 265.792411,17.9497766 265.904018,17.8493303 L272.5,11.253348 L279.095982,17.8493303 C279.207589,17.9497766 279.335938,18 279.481027,18 C279.626116,18 279.748884,17.9497766 279.84933,17.8493303 C279.949777,17.748884 280,17.626116 280,17.4810269 C280,17.3359377 279.949777,17.2131697 279.84933,17.1127234 L273.253348,10.5 Z"></path>
                </g>
            </g>
        </g>
    </g>
</svg>