<?xml version="1.0" encoding="UTF-8" standalone="no"?>
<svg width="18px" height="16px" viewBox="0 0 18 16" version="1.1" xmlns="http://www.w3.org/2000/svg" xmlns:xlink="http://www.w3.org/1999/xlink" xmlns:sketch="http://www.bohemiancoding.com/sketch/ns">
    <!-- Generator: Sketch 3.3.2 (12043) - http://www.bohemiancoding.com/sketch -->
    <title>icon (embed)</title>
    <desc>Created with Sketch.</desc>
    <defs></defs>
    <g stroke="none" stroke-width="1" fill="rgb(0,0,0)" fill-rule="evenodd" sketch:type="MSPage">
        <g sketch:type="MSArtboardGroup" transform="translate(-844.000000, -1763.000000)" fill="rgb(0,0,0)">
            <g sketch:type="MSLayerGroup" transform="translate(100.000000, 1476.000000)">
                <g transform="translate(731.000000, 251.000000)" sketch:type="MSShapeGroup">
                    <path d="M17.2890628,39.476768 C17.171875,39.383018 17.0283202,39.336143 16.8583984,39.336143 C16.6884766,39.336143 16.5449218,39.383018 16.4277346,39.476768 L13.1757814,43.080284 C13.0585936,43.1623148 13,43.267784 13,43.3966898 C13,43.5255962 13.0585936,43.6369244 13.1757814,43.7306744 C13.1992186,43.7541122 13.3808596,43.9416122 13.7207032,44.2931744 C14.0605468,44.6447372 14.4296872,45.028526 14.828125,45.4445414 C15.2265628,45.8605574 15.5898436,46.2414164 15.9179686,46.5871196 C16.2460936,46.9328228 16.4101564,47.1056744 16.4101564,47.1056744 C16.5273436,47.1994244 16.6738282,47.2462994 16.8496096,47.2462994 C17.0253904,47.2462994 17.171875,47.1994244 17.2890628,47.1056744 C17.40625,47.0119244 17.4648436,46.9005962 17.4648436,46.7716898 C17.4648436,46.642784 17.40625,46.5373148 17.2890628,46.455284 L14.4238282,43.3087994 L17.2890628,40.1447372 C17.40625,40.0509872 17.4648436,39.939659 17.4648436,39.8107526 C17.4648436,39.6818462 17.40625,39.570518 17.2890628,39.476768 L17.2890628,39.476768 Z M30.8242186,42.851768 C30.8007814,42.8400494 30.6162112,42.658409 30.270508,42.3068462 C29.9248048,41.955284 29.5527346,41.5685648 29.1542968,41.1466898 C28.7558596,40.7248148 28.3896484,40.341026 28.0556638,39.9953228 C27.7216798,39.6496196 27.5546872,39.476768 27.5546872,39.476768 C27.4375,39.383018 27.2910154,39.336143 27.1152346,39.336143 C26.9394532,39.336143 26.7929686,39.383018 26.6757814,39.476768 C26.5585936,39.570518 26.5,39.6818462 26.5,39.8107526 C26.5,39.939659 26.5585936,40.0509872 26.6757814,40.1447372 L29.5410154,43.2912212 L26.6757814,46.455284 C26.5585936,46.5373148 26.5,46.642784 26.5,46.7716898 C26.5,46.9005962 26.5585936,47.0119244 26.6757814,47.1056744 C26.7929686,47.1994244 26.9394532,47.2462994 27.1152346,47.2462994 C27.2910154,47.2462994 27.4375,47.1994244 27.5546872,47.1056744 L30.8242186,43.5197372 C30.9414064,43.4259872 31,43.314659 31,43.1857526 C31,43.0568462 30.9414064,42.945518 30.8242186,42.851768 L30.8242186,42.851768 Z M26.2011718,36.0666122 C26.0722654,35.9962994 25.9316404,35.981651 25.7792968,36.0226664 C25.6269532,36.0636824 25.5097654,36.148643 25.4277346,36.2775494 L17.5527346,50.9025494 C17.4707032,51.0431744 17.4501952,51.1867292 17.4912112,51.3332132 C17.5322266,51.4796978 17.6230468,51.5939558 17.7636718,51.6759872 C17.8925782,51.7462994 18.0332032,51.7638776 18.1855468,51.7287212 C18.3378904,51.6935648 18.4492186,51.6056744 18.5195314,51.4650494 L26.4121096,36.8400494 C26.4941404,36.711143 26.5146484,36.570518 26.473633,36.4181744 C26.432617,36.2658308 26.3417968,36.148643 26.2011718,36.0666122 L26.2011718,36.0666122 Z"></path>
                </g>
            </g>
        </g>
    </g>
</svg>