<?xml version="1.0" encoding="utf-8"?>
<svg xmlns="http://www.w3.org/2000/svg"
	xmlns:xlink="http://www.w3.org/1999/xlink"
	width="13px" height="16px">
<path fill="rgb(0,0,0)" fill-rule="evenodd" d="M 12.94 4.7C 12.94 4.7 11.93 7.13 11.93 7.13 11.75 7.58 11.25 7.8 10.83 7.62 10.41 7.43 10.23 6.92 10.41 6.46 10.41 6.46 11.42 4.03 11.42 4.03 11.61 3.57 12.1 3.36 12.52 3.54 12.94 3.73 13.13 4.24 12.94 4.7ZM 9.93 6.25C 9.74 6.7 9.25 6.92 8.83 6.74 8.41 6.55 8.22 6.03 8.41 5.58 8.41 5.58 9.76 2.32 9.76 2.32 9.95 1.86 10.44 1.64 10.86 1.83 11.28 2.01 11.47 2.53 11.28 2.98 11.28 2.98 9.93 6.25 9.93 6.25ZM 7.93 5.37C 7.8 5.69 7.51 5.89 7.2 5.92 6.92 5.66 6.64 5.46 6.37 5.31 6.9 5.27 7.31 5.06 7.61 4.84 8.17 4.43 8.42 3.89 8.45 3.83 8.45 3.83 8.64 3.41 8.64 3.41 8.64 3.41 8.64 3.41 8.64 3.41 8.64 3.41 8.24 3.23 8.24 3.23 8.24 3.23 7.2 2.78 7.2 2.78 7.2 2.78 7.76 1.43 7.76 1.43 7.95 0.98 8.44 0.76 8.86 0.95 9.28 1.13 9.47 1.65 9.28 2.1 9.28 2.1 7.93 5.37 7.93 5.37ZM 6.72 2.56C 6.72 2.56 5.2 1.9 5.2 1.9 5.2 1.9 5.76 0.55 5.76 0.55 5.94 0.1 6.44-0.12 6.86 0.07 7.28 0.25 7.46 0.77 7.28 1.22 7.28 1.22 6.72 2.56 6.72 2.56ZM 5.06 4.61C 5.06 4.61 4.72 5.2 4.72 5.2 4.72 5.2 6.67 5.39 7.71 7.28 7.71 7.28 10.23 7.45 11.53 8.93 11.53 8.93 7.95 13.6 7.9 13.69 7.24 14.84 8.56 15.63 8.56 15.63 8.56 15.63 6.06 16.44 3.95 15.63 1.79 14.81-0 13.04-0 13.04-0 13.04 1.77 12.82 1.97 12.39 2.53 11.24 3.23 9.68 3.23 9.68 3.23 9.68 1.83 4.71 1.83 4.71 1.83 4.71 4.38 2.02 4.38 2.02 4.38 2.02 8.07 3.65 8.07 3.65 8.07 3.65 7.22 5.54 5.06 4.61Z"/>
</svg>