<?xml version="1.0" encoding="utf-8"?>
<svg xmlns="http://www.w3.org/2000/svg"
	xmlns:xlink="http://www.w3.org/1999/xlink"
	width="18px" height="15px">
<path fill="rgb(0,0,0)" fill-rule="evenodd" d="M 11.99 9.56C 11.99 9.56 13.04 6.76 13.04 6.76 15.88 10.24 18 10.15 18 10.15 15.33 11.18 11.99 9.56 11.99 9.56ZM 4.51 7.24C 4.51 7.24 6.72 0.79 6.72 0.79 9.1 0.34 12.74 5.23 12.74 5.23 12.74 5.23 11.65 8.25 11.65 8.25 7.71 6.03 4.51 7.24 4.51 7.24ZM 1.08 14.62C 1 14.86 0.78 15 0.56 15 0.49 15 0.43 14.99 0.37 14.97 0.08 14.86-0.07 14.53 0.03 14.23 0.03 14.23 4.94 0.38 4.94 0.38 5.04 0.08 5.36-0.08 5.65 0.03 5.94 0.14 6.09 0.47 5.98 0.77 5.98 0.77 1.08 14.62 1.08 14.62Z"/>
</svg>