<?xml version="1.0" encoding="UTF-8" standalone="no"?>
<svg width="16px" height="16px" viewBox="0 0 16 16" version="1.1" xmlns="http://www.w3.org/2000/svg" xmlns:xlink="http://www.w3.org/1999/xlink" xmlns:sketch="http://www.bohemiancoding.com/sketch/ns">
    <!-- Generator: Sketch 3.4 (15588) - http://www.bohemiancoding.com/sketch -->
    <title>:: icon (google news)</title>
    <desc>Created with Sketch.</desc>
    <defs></defs>
    <g stroke="none" stroke-width="1" fill="none" fill-rule="evenodd" sketch:type="MSPage">
        <g sketch:type="MSArtboardGroup" transform="translate(-118.000000, -308.000000)">
            <g sketch:type="MSLayerGroup" transform="translate(100.000000, 206.000000)">
                <g transform="translate(18.000000, 102.000000)" sketch:type="MSShapeGroup">
                    <path d="M5.50382514,0.437533512 C3.52349727,1.10241287 1.83606557,2.55656836 0.896174863,4.39678284 C0.568306011,5.03163539 0.332240437,5.70509383 0.187978142,6.40428954 C-0.170491803,8.13726542 0.0786885246,9.98605898 0.891803279,11.5646113 C1.42076503,12.5941019 2.18142077,13.5120643 3.09945355,14.2284182 C3.96939891,14.9061662 4.97923497,15.4123324 6.05464481,15.6911528 C7.40983607,16.047185 8.85245902,16.0386059 10.2163934,15.7340483 C11.4491803,15.4552279 12.6163934,14.8761394 13.547541,14.0353887 C14.5311475,13.1474531 15.2349727,11.9806971 15.6065574,10.7238606 C16.0131148,9.35549598 16.0655738,7.89276139 15.8120219,6.48579088 L8.16174863,6.48579088 L8.16174863,9.6 L12.5945355,9.6 C12.4240437,10.5951743 11.820765,11.5045576 10.968306,12.0664879 C10.4306011,12.4225201 9.81420765,12.649866 9.17595628,12.7613941 C8.53770492,12.8686327 7.87322404,12.8815013 7.23497268,12.7571046 C6.58360656,12.6284182 5.96721311,12.3624665 5.42513661,11.9892761 C4.55956284,11.3930295 3.89945355,10.522252 3.56284109,9.53994638 C3.2174859,8.54048257 3.21311432,7.42949062 3.56284109,6.43431635 C3.80765027,5.7308311 4.20983607,5.08310992 4.7431694,4.55120643 C5.3989071,3.89061662 6.25136612,3.41876676 7.17377049,3.22573727 C7.96065574,3.06273458 8.79125683,3.09276139 9.56065574,3.32010724 C10.2163934,3.51313673 10.8196721,3.8691689 11.3136612,4.33243968 C11.8120219,3.84343164 12.3103825,3.35442359 12.8087432,2.86541555 C13.0710383,2.60375335 13.3464481,2.35067024 13.6,2.08042895 C12.8437158,1.39410188 11.9519126,0.84075067 10.9814208,0.489008043 C9.23278689,-0.145844504 7.26557377,-0.158713137 5.50382514,0.437533512" fill="#FFFFFF"></path>
                    <path d="M5.50382514,0.437533512 C7.26120219,-0.158713137 9.23278689,-0.145844504 10.9814208,0.484718499 C11.9519126,0.836461126 12.8393443,1.38552279 13.6,2.07613941 C13.3464481,2.3463807 13.0710383,2.59946381 12.8087432,2.86112601 C12.3103825,3.35013405 11.8120219,3.83914209 11.3136612,4.32815013 C10.8196721,3.86487936 10.2163934,3.51313673 9.56065574,3.31581769 C8.79125683,3.08847185 7.96065574,3.0541555 7.17377049,3.22144772 C6.2557377,3.41447721 5.40327869,3.88632708 4.7431694,4.54691689 C4.20983607,5.07453083 3.80765027,5.72654155 3.56284153,6.43002681 C2.67540984,5.75227882 1.78797814,5.07882038 0.896174863,4.40107239 C1.83606557,2.55656836 3.52349727,1.10241287 5.50382514,0.437533512" fill="#EA4335"></path>
                    <path d="M0.192349727,6.4 C0.336612022,5.70509383 0.572677596,5.02734584 0.900546448,4.3924933 C1.78797814,5.07024129 2.67540984,5.74369973 3.56721311,6.42144772 C3.21748634,7.42091153 3.21748634,8.53190349 3.56721311,9.52707775 C2.67978142,10.2048257 1.79234973,10.8825737 0.904918033,11.5560322 C0.0830601093,9.98176944 -0.166120219,8.13297587 0.192349727,6.4" fill="#FBBC05"></path>
                    <path d="M8.16174863,6.48150134 L15.8120219,6.48150134 C16.0655738,7.88418231 16.0087432,9.34691689 15.6065574,10.719571 C15.2349727,11.9764075 14.5311475,13.143164 13.547541,14.0310996 C12.6863388,13.3747994 11.8251366,12.7184991 10.9639344,12.0621984 C11.8163934,11.5002681 12.4196721,10.5908847 12.5901639,9.59571046 L8.15737705,9.59571046 C8.16174863,8.55764075 8.16174863,7.51957105 8.16174863,6.48150134" fill="#4285F4"></path>
                    <path d="M0.896174863,11.5603217 C1.78360656,10.8868633 2.67103825,10.2091153 3.55846995,9.53136729 C3.89945355,10.5136729 4.55519126,11.3844504 5.42076503,11.9806971 C5.96284153,12.3538874 6.58360656,12.6198391 7.23060109,12.7485255 C7.86885246,12.8772118 8.52896175,12.8600536 9.1715847,12.752815 C9.80983607,12.6412869 10.4262295,12.413941 10.9639344,12.0579088 C11.8251366,12.7142091 12.6863388,13.3705094 13.547541,14.0268097 C12.6163934,14.8718499 11.4491803,15.4466488 10.2163934,15.7254692 C8.85245902,16.0300268 7.40983607,16.0386059 6.05464481,15.6825737 C4.97923497,15.4037534 3.96939891,14.9018767 3.09945399,14.2198391 C2.18579235,13.5077744 1.42513661,12.5898123 0.896174863,11.5603217" fill="#34A853"></path>
                </g>
            </g>
        </g>
    </g>
</svg>