<?xml version="1.0" encoding="UTF-8" standalone="no"?>
<svg width="16px" height="16px" viewBox="0 0 16 16" version="1.1" xmlns="http://www.w3.org/2000/svg" xmlns:xlink="http://www.w3.org/1999/xlink" xmlns:sketch="http://www.bohemiancoding.com/sketch/ns">
    <!-- Generator: Sketch 3.3.2 (12043) - http://www.bohemiancoding.com/sketch -->
    <title>icon (help)</title>
    <desc>Created with Sketch.</desc>
    <defs></defs>
    <g stroke="none" stroke-width="1" fill="rgb(0,0,0)" fill-rule="evenodd" sketch:type="MSPage">
        <g sketch:type="MSArtboardGroup" transform="translate(-136.000000, -1684.000000)">
            <g sketch:type="MSLayerGroup" transform="translate(100.000000, 835.000000)">
                <g transform="translate(15.000000, 74.000000)" sketch:type="MSShapeGroup">
                    <g transform="translate(10.000000, 115.000000)">
                        <g transform="translate(11.000000, 659.000000)">
                            <path d="M7.2,13.8 L8.8,13.8 L8.8,12.2 L7.2,12.2 L7.2,13.8 L7.2,13.8 Z M8,1 C3.584,1 0,4.584 0,9 C0,13.416 3.584,17 8,17 C12.416,17 16,13.416 16,9 C16,4.584 12.416,1 8,1 L8,1 Z M8,15.4 C4.472,15.4 1.6,12.528 1.6,9 C1.6,5.472 4.472,2.6 8,2.6 C11.528,2.6 14.4,5.472 14.4,9 C14.4,12.528 11.528,15.4 8,15.4 L8,15.4 Z M8,4.2 C6.232,4.2 4.8,5.632 4.8,7.4 L6.4,7.4 C6.4,6.52 7.12,5.8 8,5.8 C8.88,5.8 9.6,6.52 9.6,7.4 C9.6,9 7.2,8.8 7.2,11.4 L8.8,11.4 C8.8,9.6 11.2,9.4 11.2,7.4 C11.2,5.632 9.768,4.2 8,4.2 L8,4.2 Z"></path>
                        </g>
                    </g>
                </g>
            </g>
        </g>
    </g>
</svg>