<?xml version="1.0" encoding="utf-8"?>
<svg xmlns="http://www.w3.org/2000/svg"
	xmlns:xlink="http://www.w3.org/1999/xlink"
	width="16px" height="16px">
<path fill="rgb(0,0,0)" fill-rule="evenodd" d="M 15.69 7.65C 15.4 7.96 14.91 7.96 14.61 7.65 14.61 7.65 14.53 7.57 14.53 7.57 14.52 7.56 14.5 7.55 14.48 7.53 14.48 7.53 8.36 2.14 8.36 2.14 8.17 1.95 7.86 1.95 7.67 2.14 7.67 2.14 1.44 7.52 1.44 7.52 1.37 7.59 1.29 7.64 1.21 7.69 1.2 7.69 1.2 7.7 1.19 7.7 1.17 7.71 1.16 7.72 1.15 7.72 0.97 7.82 0.76 7.84 0.57 7.79 0.44 7.76 0.32 7.7 0.22 7.6-0.1 7.25-0.06 6.85 0.27 6.51 0.27 6.51 7.41 0.24 7.41 0.24 7.73-0.08 8.3-0.08 8.62 0.24 8.62 0.24 15.84 6.63 15.84 6.63 16.14 6.94 15.99 7.35 15.69 7.65ZM 8.34 4.13C 8.34 4.13 14 9 14 9 14 9 14 16 14 16 14 16 10 16 10 16 10 16 10 11 10 11 10 10.73 9.27 10 9 10 9 10 7 10 7 10 6.73 10 6 10.73 6 11 6 11 6 16 6 16 6 16 2 16 2 16 2 16 2 9 2 9 2 9 7.63 4.13 7.63 4.13 7.83 3.94 8.14 3.94 8.34 4.13Z"/>
</svg>