<?xml version="1.0" encoding="UTF-8" standalone="no"?>
<svg width="16px" height="16px" viewBox="0 0 16 16" version="1.1" xmlns="http://www.w3.org/2000/svg" xmlns:xlink="http://www.w3.org/1999/xlink" xmlns:sketch="http://www.bohemiancoding.com/sketch/ns">
    <!-- Generator: Sketch 3.3.2 (12043) - http://www.bohemiancoding.com/sketch -->
    <title>icon-image</title>
    <desc>Created with Sketch.</desc>
    <defs></defs>
    <g stroke="none" stroke-width="1" fill="rgb(0,0,0)" fill-rule="evenodd" sketch:type="MSPage">
        <g sketch:type="MSArtboardGroup" transform="translate(-544.000000, -341.000000)" fill="rgb(0,0,0)">
            <g sketch:type="MSLayerGroup" transform="translate(100.000000, 220.000000)">
                <g transform="translate(42.000000, 121.000000)" sketch:type="MSShapeGroup">
                    <g transform="translate(402.000000, 0.000000)">
                        <path d="M15,0 L1,0 C0.729166933,0 0.494791467,0.0989584 0.2968752,0.2968752 C0.0989584,0.494791467 0,0.729166933 0,1 L0,12.4218752 L0,12.4765627 L0,12.5156251 L0,15 C0,15.2812501 0.0989584,15.5182293 0.2968752,15.7109376 C0.494791467,15.9036459 0.729166933,16 1,16 L15,16 C15.2812501,16 15.5182293,15.9036459 15.7109376,15.7109376 C15.9036459,15.5182293 16,15.2812501 16,15 L16,1 C16,0.729166933 15.9036459,0.494791467 15.7109376,0.2968752 C15.5182293,0.0989584 15.2812501,0 15,0 L15,0 Z M1.5,15 C1.36458347,15 1.24739573,14.9505211 1.14843733,14.8515627 C1.04947893,14.7526043 1,14.6354165 1,14.5 L1,12.8125003 L5.39062507,9.23437493 L10.375,15 L1.5,15 Z M15,14.5 C15,14.6354165 14.9505211,14.7526043 14.8515627,14.8515627 C14.7526043,14.9505211 14.6354165,15 14.5,15 L11.7812501,15 L8.0781248,10.7031248 L12.4531248,7.125 L14.9843749,9.85937493 L14.9921877,9.85937493 L15,9.85937493 L15,14.5 Z M15,8.3281248 L12.9687499,6.125 C12.9062501,6.0729168 12.8359376,6.0390624 12.7578123,6.02343733 C12.6796875,6.00781227 12.5989584,6.00520853 12.5156251,6.01562507 C12.4427083,6.00520853 12.3697915,6.01041653 12.2968752,6.03125013 C12.2239584,6.0520832 12.1562501,6.08333333 12.0937499,6.125 L7.4218752,9.9531248 L5.875,8.15625013 C5.81250027,8.09374987 5.74479147,8.04947893 5.6718752,8.02343733 C5.5989584,7.99739573 5.5260416,7.98958347 5.4531248,8 C5.43229173,8 5.41145813,8.00260427 5.39062507,8.00781227 C5.36979147,8.0130208 5.3489584,8.02083307 5.3281248,8.03125013 L5.31250027,8.03125013 C5.3020832,8.03125013 5.29166667,8.03645813 5.28125013,8.0468752 C5.23958347,8.05729173 5.19531253,8.06770827 5.14843733,8.0781248 C5.10156267,8.08854187 5.05729173,8.10937493 5.01562507,8.14062507 L1,11.4218752 L1,1.5 C1,1.36458347 1.04947893,1.24739573 1.14843733,1.14843733 C1.24739573,1.04947893 1.36458347,1 1.5,1 L14.5,1 C14.6354165,1 14.7526043,1.04947893 14.8515627,1.14843733 C14.9505211,1.24739573 15,1.36458347 15,1.5 L15,8.3281248 Z M4,2 C3.4479168,2 2.97656267,2.19531253 2.5859376,2.5859376 C2.19531253,2.97656267 2,3.4479168 2,4 C2,4.5520832 2.19531253,5.02343733 2.5859376,5.4140624 C2.97656267,5.80468747 3.4479168,6 4,6 C4.5520832,6 5.02343733,5.80468747 5.4140624,5.4140624 C5.80468747,5.02343733 6,4.5520832 6,4 C6,3.4479168 5.80468747,2.97656267 5.4140624,2.5859376 C5.02343733,2.19531253 4.5520832,2 4,2 L4,2 Z M4,5 C3.72916693,5 3.49479147,4.90364587 3.2968752,4.7109376 C3.0989584,4.51822933 3,4.28125013 3,4 C3,3.72916693 3.0989584,3.49479147 3.2968752,3.2968752 C3.49479147,3.0989584 3.72916693,3 4,3 C4.27083307,3 4.50520853,3.0989584 4.7031248,3.2968752 C4.9010416,3.49479147 5,3.72916693 5,4 C5,4.28125013 4.9010416,4.51822933 4.7031248,4.7109376 C4.50520853,4.90364587 4.27083307,5 4,5 L4,5 Z"></path>
                    </g>
                </g>
            </g>
        </g>
    </g>
</svg>