<?xml version="1.0" encoding="UTF-8" standalone="no"?>
<svg width="19px" height="14px" viewBox="0 0 19 14" version="1.1" xmlns="http://www.w3.org/2000/svg" xmlns:xlink="http://www.w3.org/1999/xlink" xmlns:sketch="http://www.bohemiancoding.com/sketch/ns">
    <!-- Generator: Sketch 3.3.2 (12043) - http://www.bohemiancoding.com/sketch -->
    <title>icon (incognito)</title>
    <desc>Created with Sketch.</desc>
    <defs></defs>
    <g id="02-›-Widgets" stroke="none" stroke-width="1" fill="rgb(0,0,0)" fill-rule="evenodd" sketch:type="MSPage">
        <g id="//-Bars" sketch:type="MSArtboardGroup" transform="translate(-719.000000, -717.000000)">
            <g id="::-header-bar" sketch:type="MSLayerGroup" transform="translate(100.000000, 229.000000)">
                <g id="::-button-states" transform="translate(18.000000, 452.000000)" sketch:type="MSShapeGroup">
                    <g id="-›-new-notifications" transform="translate(594.000000, 0.000000)">
                        <g id="::-button-(incognito)" transform="translate(0.000000, 27.000000)">
                            <path d="M26,17.3125 L25.7216798,16.125 L22.4375,9 L18.875,9 L18.875,10.1875 L21.5283202,10.1875 L24.3671875,16.125 L8.6328125,16.125 L11.4716798,10.1875 L14.125,10.1875 L14.125,9 L10.5625,9 L7.27832023,16.125 L7,17.3125 L7.0556643,17.3125 C7.04329403,17.4114583 7.0309244,17.5104167 7.01855477,17.609375 C7.00618513,17.7083333 7,17.8072917 7,17.90625 C7,18.4752607 7.1082354,19.0133464 7.32470683,19.5205077 C7.54117827,20.027669 7.83805327,20.4698896 8.21533183,20.8471682 C8.5926104,21.2244467 9.03483097,21.5213217 9.54199227,21.7377932 C10.0491536,21.9542646 10.5872393,22.0625 11.15625,22.0625 C11.9850262,22.0625 12.7333982,21.842936 13.4013673,21.4038086 C14.0693357,20.9646813 14.5703125,20.392578 14.904297,19.6875 L18.095703,19.6875 C18.4296875,20.392578 18.9306643,20.9646813 19.5986327,21.4038086 C20.2666018,21.842936 21.0149738,22.0625 21.84375,22.0625 C22.4127607,22.0625 22.9508464,21.9542646 23.4580077,21.7377932 C23.965169,21.5213217 24.4073896,21.2244467 24.7846682,20.8471682 C25.1619467,20.4698896 25.4588217,20.027669 25.6752932,19.5205077 C25.8917646,19.0133464 26,18.4752607 26,17.90625 C26,17.8072917 25.9938149,17.7083333 25.9814452,17.609375 C25.9690756,17.5104167 25.956706,17.4114583 25.9443357,17.3125 L26,17.3125 Z M17.7431643,18.5 L15.2568357,18.5 C15.269206,18.4010417 15.2815756,18.3020833 15.2939452,18.203125 C15.3063149,18.1041667 15.3125,18.0052083 15.3125,17.90625 C15.3125,17.8072917 15.3063149,17.7083333 15.2939452,17.609375 C15.2815756,17.5104167 15.269206,17.4114583 15.2568357,17.3125 L17.7431643,17.3125 C17.730794,17.4114583 17.7184244,17.5104167 17.7060548,17.609375 C17.6936851,17.7083333 17.6875,17.8072917 17.6875,17.90625 C17.6875,18.0052083 17.6936851,18.1041667 17.7060548,18.203125 C17.7184244,18.3020833 17.730794,18.4010417 17.7431643,18.5 L17.7431643,18.5 Z" id="icon-(incognito)"></path>
                        </g>
                    </g>
                </g>
            </g>
        </g>
    </g>
</svg>
