<svg width="30.004883" height="30.009766" viewBox="0.004883 -58.144531 30.004883 30.009766" xmlns="http://www.w3.org/2000/svg"><path d="M29.794922 -57.724609C29.775391 -57.744141 29.755859 -57.763672 29.736328 -57.783203C29.716797 -57.802734 29.707031 -57.812500 29.707031 -57.812500C29.687500 -57.832031 29.667969 -57.851562 29.648438 -57.871094C29.628906 -57.890625 29.609375 -57.910156 29.589844 -57.929688C29.472656 -58.007812 29.345703 -58.066406 29.208984 -58.105469C29.072266 -58.144531 28.925781 -58.144531 28.769531 -58.105469L0.703125 -44.189453C0.703125 -44.169922 0.698242 -44.160156 0.688477 -44.160156C0.678711 -44.160156 0.673828 -44.160156 0.673828 -44.160156C0.517578 -44.101562 0.380859 -44.018555 0.263672 -43.911133C0.146484 -43.803711 0.068359 -43.671875 0.029297 -43.515625C0.009766 -43.417969 0.004883 -43.330078 0.014648 -43.251953C0.024414 -43.173828 0.039062 -43.095703 0.058594 -43.017578C0.058594 -43.017578 0.058594 -43.017578 0.058594 -43.017578C0.058594 -42.998047 0.058594 -42.988281 0.058594 -42.988281C0.058594 -42.988281 0.058594 -42.978516 0.058594 -42.958984C0.078125 -42.919922 0.097656 -42.880859 0.117188 -42.841797C0.136719 -42.802734 0.166016 -42.753906 0.205078 -42.695312C0.205078 -42.675781 0.214844 -42.661133 0.234375 -42.651367C0.253906 -42.641602 0.273438 -42.626953 0.292969 -42.607422C0.312500 -42.568359 0.336914 -42.539062 0.366211 -42.519531C0.395508 -42.500000 0.419922 -42.480469 0.439453 -42.460938C0.458984 -42.441406 0.483398 -42.426758 0.512695 -42.416992C0.541992 -42.407227 0.566406 -42.392578 0.585938 -42.373047C0.625000 -42.373047 0.654297 -42.363281 0.673828 -42.343750C0.693359 -42.324219 0.712891 -42.314453 0.732422 -42.314453L9.228516 -38.271484L14.179688 -28.867188C14.199219 -28.828125 14.213867 -28.798828 14.223633 -28.779297C14.233398 -28.759766 14.248047 -28.740234 14.267578 -28.720703C14.267578 -28.701172 14.272461 -28.676758 14.282227 -28.647461C14.291992 -28.618164 14.306641 -28.593750 14.326172 -28.574219C14.345703 -28.554688 14.370117 -28.530273 14.399414 -28.500977C14.428711 -28.471680 14.453125 -28.447266 14.472656 -28.427734C14.492188 -28.408203 14.506836 -28.388672 14.516602 -28.369141C14.526367 -28.349609 14.550781 -28.330078 14.589844 -28.310547C14.628906 -28.291016 14.667969 -28.271484 14.707031 -28.251953C14.746094 -28.232422 14.794922 -28.212891 14.853516 -28.193359C14.853516 -28.193359 14.863281 -28.193359 14.882812 -28.193359C14.882812 -28.173828 14.882812 -28.168945 14.882812 -28.178711C14.882812 -28.188477 14.882812 -28.183594 14.882812 -28.164062C14.960938 -28.144531 15.043945 -28.134766 15.131836 -28.134766C15.219727 -28.134766 15.302734 -28.144531 15.380859 -28.164062C15.537109 -28.203125 15.673828 -28.281250 15.791016 -28.398438C15.908203 -28.515625 15.986328 -28.652344 16.025391 -28.808594C16.025391 -28.808594 16.030273 -28.813477 16.040039 -28.823242C16.049805 -28.833008 16.054688 -28.837891 16.054688 -28.837891L29.970703 -56.904297C30.009766 -57.060547 30.009766 -57.207031 29.970703 -57.343750C29.931641 -57.480469 29.873047 -57.607422 29.794922 -57.724609ZM3.105469 -43.251953L24.023438 -53.652344L9.726562 -40.087891ZM15.087891 -31.123047L11.074219 -38.769531L25.810547 -52.744141ZM15.087891 -31.123047"></path></svg>