<svg width="24.404297" height="26.250000" viewBox="3.720703 -52.500000 24.404297 26.250000" xmlns="http://www.w3.org/2000/svg"><path d="M26.250000 -39.375000L18.750000 -41.513672L18.750000 -48.750000C18.750000 -49.785156 18.383789 -50.668945 17.651367 -51.401367C16.918945 -52.133789 16.035156 -52.500000 15.000000 -52.500000C13.964844 -52.500000 13.081055 -52.133789 12.348633 -51.401367C11.616211 -50.668945 11.250000 -49.785156 11.250000 -48.750000L11.250000 -37.294922L10.283203 -38.261719C9.541016 -39.003906 8.637695 -39.375000 7.573242 -39.375000C6.508789 -39.375000 5.605469 -39.003906 4.863281 -38.261719C4.101562 -37.519531 3.720703 -36.616211 3.720703 -35.551758C3.720703 -34.487305 4.101562 -33.574219 4.863281 -32.812500L10.283203 -27.392578C10.673828 -27.021484 11.108398 -26.738281 11.586914 -26.542969C12.065430 -26.347656 12.548828 -26.259766 13.037109 -26.279297C13.056641 -26.259766 13.071289 -26.250000 13.081055 -26.250000C13.090820 -26.250000 13.105469 -26.250000 13.125000 -26.250000L26.250000 -26.250000C26.777344 -26.250000 27.221680 -26.430664 27.583008 -26.791992C27.944336 -27.153320 28.125000 -27.597656 28.125000 -28.125000L28.125000 -37.500000C28.125000 -38.007812 27.944336 -38.447266 27.583008 -38.818359C27.221680 -39.189453 26.777344 -39.375000 26.250000 -39.375000ZM26.250000 -29.062500C26.250000 -28.808594 26.157227 -28.588867 25.971680 -28.403320C25.786133 -28.217773 25.566406 -28.125000 25.312500 -28.125000L14.062500 -28.125000C14.062500 -28.125000 13.725586 -28.164062 13.051758 -28.242188C12.377930 -28.320312 11.914062 -28.486328 11.660156 -28.740234L6.210938 -34.189453C5.839844 -34.560547 5.654297 -35.009766 5.654297 -35.537109C5.654297 -36.064453 5.839844 -36.523438 6.210938 -36.914062C6.601562 -37.285156 7.060547 -37.465820 7.587891 -37.456055C8.115234 -37.446289 8.583984 -37.246094 8.994141 -36.855469L13.183594 -32.666016L13.125000 -41.250000L13.125000 -48.750000C13.125000 -49.257812 13.310547 -49.697266 13.681641 -50.068359C14.052734 -50.439453 14.492188 -50.625000 15.000000 -50.625000C15.507812 -50.625000 15.947266 -50.439453 16.318359 -50.068359C16.689453 -49.697266 16.875000 -49.257812 16.875000 -48.750000L16.875000 -41.250000C16.875000 -41.093750 16.875000 -40.898438 16.875000 -40.664062C16.875000 -40.429688 16.875000 -40.312500 16.875000 -40.312500L25.312500 -37.500000C25.566406 -37.500000 25.786133 -37.407227 25.971680 -37.221680C26.157227 -37.036133 26.250000 -36.816406 26.250000 -36.562500ZM26.250000 -29.062500"></path></svg>