<?xml version="1.0" encoding="UTF-8" standalone="no"?>
<svg width="16px" height="16px" viewBox="0 0 16 16" version="1.1" xmlns="http://www.w3.org/2000/svg" xmlns:xlink="http://www.w3.org/1999/xlink" xmlns:sketch="http://www.bohemiancoding.com/sketch/ns">
    <!-- Generator: Sketch 3.3.2 (12043) - http://www.bohemiancoding.com/sketch -->
    <title>icon-link</title>
    <desc>Created with Sketch.</desc>
    <defs></defs>
    <g stroke="none" stroke-width="1" fill="rgb(0,0,0)" fill-rule="evenodd" sketch:type="MSPage">
        <g sketch:type="MSArtboardGroup" transform="translate(-544.000000, -469.000000)" fill="rgb(0,0,0)">
            <g sketch:type="MSLayerGroup" transform="translate(100.000000, 220.000000)">
                <g transform="translate(25.000000, 249.000000)" sketch:type="MSShapeGroup">
                    <g transform="translate(419.000000, 0.000000)">
                        <path d="M6.56236948,13.0625583 L5.10927311,14.5156546 C4.80719593,14.8177318 4.44261973,14.9687704 4.01554504,14.9687704 C3.58847035,14.9687704 3.22910258,14.8177318 2.93744119,14.5156546 L1.48434535,13.0625583 C1.18226817,12.7708974 1.03122958,12.4115296 1.03122958,11.984455 C1.03122958,11.5573803 1.18226817,11.1928041 1.48434535,10.8907269 L6.20300118,6.17207053 C6.50507889,5.86999335 6.86705088,5.71895476 7.28891714,5.71895476 C7.71078393,5.71895476 8.07275592,5.86999335 8.37483309,6.17207053 L9.46856116,7.26579913 C9.52064333,7.30746497 9.57793392,7.34131816 9.64043294,7.36735924 C9.70293143,7.39340032 9.76543045,7.4064214 9.82792894,7.4064214 C9.90084428,7.4064214 9.9685512,7.39340032 10.0310502,7.36735924 C10.0935487,7.34131816 10.1456314,7.30746497 10.1872967,7.26579913 C10.2914616,7.16163428 10.3435437,7.03924098 10.3435437,6.89861872 C10.3435437,6.75799645 10.2914616,6.63560316 10.1872967,6.5314383 L9.10919339,5.43771023 C8.60920336,4.9377202 8.00244478,4.68772518 7.28891714,4.68772518 C6.57539002,4.68772518 5.96863092,4.9377202 5.46864088,5.43771023 L0.749985053,10.1563666 C0.249995018,10.666773 0,11.2761357 0,11.984455 C0,12.6927742 0.249995018,13.2969285 0.749985053,13.7969186 L2.20308089,15.2500149 C2.70307093,15.750005 3.30722582,16 4.01554504,16 C4.72386426,16 5.33322705,15.750005 5.84363341,15.2500149 L6.20300118,14.8906472 L7.28110503,13.7969186 C7.38526935,13.6927542 7.43735151,13.570361 7.43735151,13.4297387 C7.43735151,13.2891164 7.38526935,13.1667231 7.28110503,13.0625583 C7.18735649,12.9688103 7.07017163,12.921936 6.92954937,12.921936 C6.7889271,12.921936 6.66653381,12.9688103 6.56236948,13.0625583 L6.56236948,13.0625583 Z M15.2184466,2.10965176 L13.8903482,0.781552894 C13.3799419,0.271146533 12.757558,0.0107351892 12.0231977,0.000318863445 C11.2888374,-0.0100974623 10.6768704,0.234689126 10.1872967,0.734679161 L8.73420087,2.17215025 C8.64045287,2.2763151 8.5935786,2.3987084 8.5935786,2.53933066 C8.5935786,2.67995293 8.64045287,2.80234622 8.73420087,2.90651108 C8.78628303,2.94817638 8.84357362,2.98203011 8.90607264,3.00807119 C8.96857113,3.03411227 9.03627805,3.04713281 9.10919339,3.04713281 C9.17169241,3.04713281 9.2341909,3.03411227 9.29668992,3.00807119 C9.35918841,2.98203011 9.416479,2.94817638 9.46856116,2.90651108 L10.9060328,1.4534147 C11.20811,1.16175385 11.5831025,1.02113159 12.0310104,1.03154791 C12.4789182,1.04196477 12.8539102,1.19821126 13.1559879,1.50028897 L14.499711,2.84401206 C14.8017882,3.14608924 14.9580352,3.52368598 14.9684516,3.97680175 C14.9788684,4.42991805 14.8382461,4.80230636 14.5465853,5.09396722 L9.99980071,9.6407518 C9.68730667,9.94282898 9.27846095,10.1068881 8.77326249,10.1329292 C8.26806456,10.1589703 7.87484306,10.0313686 7.59359853,9.75012456 L6.98423574,9.12513701 C6.97381942,9.12513701 6.96600677,9.11732437 6.96079888,9.10169961 C6.95559045,9.08607539 6.94777834,9.07305485 6.93736148,9.06263799 L6.92173725,9.07826275 L6.56236948,8.71889497 C6.45820463,8.61473012 6.33581133,8.56264796 6.19518907,8.56264796 C6.0545668,8.56264796 5.93738141,8.61473012 5.84363341,8.71889497 C5.73946908,8.81264297 5.68738639,8.92982837 5.68738639,9.07045063 C5.68738639,9.2110729 5.73946908,9.33346619 5.84363341,9.43763052 L6.92173725,10.5313586 C6.94256991,10.5417754 6.96079888,10.5521918 6.97642363,10.5626081 C6.99204839,10.573025 7.00506893,10.5834413 7.01548525,10.5938576 C7.4946421,10.9896833 8.07536013,11.1797835 8.75763773,11.1641588 C9.43991587,11.148534 10.0362581,10.9323927 10.546665,10.5157344 L10.5622898,10.5313586 C10.5727061,10.5105259 10.5857266,10.4896933 10.6013514,10.4688601 C10.6169761,10.4480269 10.6352046,10.4324027 10.6560378,10.4219858 C10.6664541,10.4115695 10.6768704,10.4011532 10.6872867,10.3907369 C10.6977036,10.38032 10.7081199,10.3699037 10.7185363,10.3594873 L15.2653208,5.81270276 C15.7653109,5.32312958 16.0100975,4.71116258 15.9996811,3.97680175 C15.9892648,3.24244145 15.7288535,2.62005812 15.2184466,2.10965176 L15.2184466,2.10965176 Z"></path>
                    </g>
                </g>
            </g>
        </g>
    </g>
</svg>