<svg width="22.500000" height="30.000000" viewBox="3.750000 -58.125000 22.500000 30.000000" xmlns="http://www.w3.org/2000/svg"><path d="M15.000000 -52.500000C13.437500 -52.500000 12.109375 -51.948242 11.015625 -50.844727C9.921875 -49.741211 9.375000 -48.417969 9.375000 -46.875000C9.375000 -45.312500 9.921875 -43.984375 11.015625 -42.890625C12.109375 -41.796875 13.437500 -41.250000 15.000000 -41.250000C16.542969 -41.250000 17.866211 -41.796875 18.969727 -42.890625C20.073242 -43.984375 20.625000 -45.312500 20.625000 -46.875000C20.625000 -48.417969 20.073242 -49.741211 18.969727 -50.844727C17.866211 -51.948242 16.542969 -52.500000 15.000000 -52.500000ZM15.000000 -43.125000C13.964844 -43.125000 13.081055 -43.491211 12.348633 -44.223633C11.616211 -44.956055 11.250000 -45.839844 11.250000 -46.875000C11.250000 -47.910156 11.616211 -48.793945 12.348633 -49.526367C13.081055 -50.258789 13.964844 -50.625000 15.000000 -50.625000C16.035156 -50.625000 16.918945 -50.258789 17.651367 -49.526367C18.383789 -48.793945 18.750000 -47.910156 18.750000 -46.875000C18.750000 -45.839844 18.383789 -44.956055 17.651367 -44.223633C16.918945 -43.491211 16.035156 -43.125000 15.000000 -43.125000ZM15.000000 -58.125000C13.437500 -58.125000 11.977539 -57.832031 10.620117 -57.246094C9.262695 -56.660156 8.071289 -55.854492 7.045898 -54.829102C6.020508 -53.803711 5.214844 -52.607422 4.628906 -51.240234C4.042969 -49.873047 3.750000 -48.417969 3.750000 -46.875000C3.750000 -45.312500 4.335938 -43.457031 5.507812 -41.308594C6.679688 -39.160156 7.968750 -37.109375 9.375000 -35.156250C10.781250 -33.203125 12.070312 -31.542969 13.242188 -30.175781C14.414062 -28.808594 15.000000 -28.125000 15.000000 -28.125000C15.000000 -28.125000 15.585938 -28.808594 16.757812 -30.175781C17.929688 -31.542969 19.218750 -33.203125 20.625000 -35.156250C22.031250 -37.109375 23.320312 -39.160156 24.492188 -41.308594C25.664062 -43.457031 26.250000 -45.312500 26.250000 -46.875000C26.250000 -48.417969 25.957031 -49.873047 25.371094 -51.240234C24.785156 -52.607422 23.979492 -53.803711 22.954102 -54.829102C21.928711 -55.854492 20.737305 -56.660156 19.379883 -57.246094C18.022461 -57.832031 16.562500 -58.125000 15.000000 -58.125000ZM5.625000 -46.875000C5.625000 -48.164062 5.869141 -49.379883 6.357422 -50.522461C6.845703 -51.665039 7.514648 -52.661133 8.364258 -53.510742C9.213867 -54.360352 10.209961 -55.029297 11.352539 -55.517578C12.495117 -56.005859 13.710938 -56.250000 15.000000 -56.250000C16.289062 -56.250000 17.504883 -56.005859 18.647461 -55.517578C19.790039 -55.029297 20.786133 -54.360352 21.635742 -53.510742C22.485352 -52.661133 23.154297 -51.665039 23.642578 -50.522461C24.130859 -49.379883 24.375000 -48.164062 24.375000 -46.875000C24.375000 -45.585938 23.886719 -44.028320 22.910156 -42.202148C21.933594 -40.375977 20.859375 -38.627930 19.687500 -36.958008C18.515625 -35.288086 17.441406 -33.867188 16.464844 -32.695312C15.488281 -31.523438 15.000000 -30.937500 15.000000 -30.937500C15.000000 -30.937500 14.511719 -31.523438 13.535156 -32.695312C12.558594 -33.867188 11.484375 -35.288086 10.312500 -36.958008C9.140625 -38.627930 8.066406 -40.375977 7.089844 -42.202148C6.113281 -44.028320 5.625000 -45.585938 5.625000 -46.875000ZM5.625000 -46.875000"></path></svg>