<?xml version="1.0" encoding="UTF-8" standalone="no"?>
<svg width="32px" height="36px" viewBox="0 0 32 36" version="1.1" xmlns="http://www.w3.org/2000/svg" xmlns:xlink="http://www.w3.org/1999/xlink" xmlns:sketch="http://www.bohemiancoding.com/sketch/ns">
    <!-- Generator: Sketch 3.3.2 (12043) - http://www.bohemiancoding.com/sketch -->
    <title>CV</title>
    <desc>Created with Sketch.</desc>
    <defs></defs>
    <g stroke="none" stroke-width="1" fill="rgb(0,0,0)" fill-rule="evenodd" sketch:type="MSPage">
        <g sketch:type="MSArtboardGroup" transform="translate(-904.000000, -4673.000000)" fill="rgb(0,0,0)">
            <g sketch:type="MSLayerGroup" transform="translate(200.000000, 4640.000000)">
                <g transform="translate(601.000000, 33.000000)" sketch:type="MSShapeGroup">
                    <g transform="translate(102.000000, 0.000000)">
                        <path d="M16.9875483,0 L33,9 L33,27 L16.9875483,36 L1,27 L1,9 L16.9875483,0 Z M12.6821289,14.831543 C11.7136996,14.831543 10.9638698,15.1953902 10.4326172,15.9230957 C9.90136453,16.6508012 9.63574219,17.6648698 9.63574219,18.965332 C9.63574219,21.6714002 10.6511943,23.0244141 12.6821289,23.0244141 C13.5343467,23.0244141 14.5664002,22.8113628 15.7783203,22.3852539 L15.7783203,24.543457 C14.7822216,24.9584982 13.669928,25.1660156 12.4414062,25.1660156 C10.6760979,25.1660156 9.32585103,24.6306206 8.390625,23.5598145 C7.45539897,22.4890083 6.98779297,20.9519957 6.98779297,18.9487305 C6.98779297,17.6870054 7.21744562,16.5816291 7.67675781,15.6325684 C8.13607,14.6835076 8.79597552,13.9558131 9.65649414,13.4494629 C10.5170128,12.9431127 11.5255476,12.6899414 12.6821289,12.6899414 C13.8608457,12.6899414 15.0450787,12.974932 16.2348633,13.5449219 L15.4047852,15.6367188 C14.9510068,15.4208974 14.4944684,15.2327482 14.0351562,15.0722656 C13.5758441,14.9117831 13.1248395,14.831543 12.6821289,14.831543 L12.6821289,14.831543 Z M25.2827148,12.8642578 L27.8808594,12.8642578 L23.7553711,25 L20.949707,25 L16.8325195,12.8642578 L19.4306641,12.8642578 L21.7133789,20.0859375 C21.8406582,20.5120464 21.9720859,21.0087048 22.107666,21.5759277 C22.2432461,22.1431506 22.3276366,22.5374338 22.3608398,22.7587891 C22.4217125,22.2496719 22.62923,21.3587303 22.9833984,20.0859375 L25.2827148,12.8642578 Z"></path>
                    </g>
                </g>
            </g>
        </g>
    </g>
</svg>