<?xml version="1.0" encoding="UTF-8"?>
<svg xmlns="http://www.w3.org/2000/svg"
    xmlns:xlink="http://www.w3.org/1999/xlink"
    width="48px" height="48px">
    <g stroke="none" stroke-width="1" fill="rgb(0,0,0)" fill-rule="evenodd">
        <g transform="translate(-583.000000, -984.000000)" fill="#000000">
            <g transform="translate(100.000000, 781.000000)">
                <g transform="translate(355.000000, 70.000000)">
                    <g transform="translate(2.000000, 22.000000)">
                        <path d="M154.5,129 L147,129 L147,121.5 C147,121.09375 146.851563,120.742187 146.554688,120.445312 C146.257813,120.148437 145.90625,120 145.5,120 C145.09375,120 144.742187,120.148437 144.445312,120.445312 C144.148437,120.742187 144,121.09375 144,121.5 L144,129 L136.5,129 C136.09375,129 135.742187,129.148437 135.445312,129.445312 C135.148437,129.742187 135,130.09375 135,130.5 C135,130.90625 135.148437,131.257813 135.445312,131.554688 C135.742187,131.851563 136.09375,132 136.5,132 L144,132 L144,139.5 C144,139.90625 144.148437,140.257813 144.445312,140.554688 C144.742187,140.851563 145.09375,141 145.5,141 C145.90625,141 146.257813,140.851563 146.554688,140.554688 C146.851563,140.257813 147,139.90625 147,139.5 L147,132 L154.5,132 C154.90625,132 155.257813,131.851563 155.554688,131.554688 C155.851563,131.257813 156,130.90625 156,130.5 C156,130.09375 155.851563,129.742187 155.554688,129.445312 C155.257813,129.148437 154.90625,129 154.5,129 L154.5,129 Z M173.578125,156.562499 L160.21875,143.203125 C161.687501,141.484374 162.851563,139.546875 163.710938,137.390626 C164.570312,135.234374 165,132.937501 165,130.5 C165,127.812499 164.492187,125.28125 163.476563,122.90625 C162.460938,120.53125 161.070312,118.460938 159.304688,116.695312 C157.539062,114.929688 155.46875,113.539062 153.09375,112.523437 C150.71875,111.507813 148.187501,111 145.5,111 C142.812499,111 140.28125,111.507813 137.90625,112.523437 C135.53125,113.539062 133.460938,114.929688 131.695312,116.695312 C129.929688,118.460938 128.539062,120.53125 127.523437,122.90625 C126.507813,125.28125 126,127.812499 126,130.5 C126,133.187501 126.507813,135.71875 127.523437,138.09375 C128.539062,140.46875 129.929688,142.539062 131.695312,144.304688 C133.460938,146.070312 135.53125,147.460938 137.90625,148.476563 C140.28125,149.492187 142.812499,150 145.5,150 C147.937501,150 150.234374,149.570312 152.390626,148.710938 C154.546875,147.851563 156.484374,146.687501 158.203125,145.21875 L171.562499,158.578125 C171.84375,158.859374 172.179688,159 172.570312,159 C172.960938,159 173.296875,158.859374 173.578125,158.578125 C173.859374,158.296875 174,157.960938 174,157.570312 C174,157.179688 173.859374,156.84375 173.578125,156.562499 L173.578125,156.562499 Z M145.5,147 C143.21875,147 141.078125,146.570312 139.078125,145.710938 C137.078125,144.851563 135.328125,143.671875 133.828125,142.171875 C132.328125,140.671875 131.148437,138.921875 130.289062,136.921875 C129.429688,134.921875 129,132.78125 129,130.5 C129,128.21875 129.429688,126.078125 130.289062,124.078125 C131.148437,122.078125 132.328125,120.328125 133.828125,118.828125 C135.328125,117.328125 137.078125,116.148437 139.078125,115.289062 C141.078125,114.429688 143.21875,114 145.5,114 C147.78125,114 149.921875,114.429688 151.921875,115.289062 C153.921875,116.148437 155.671875,117.328125 157.171875,118.828125 C158.671875,120.328125 159.851563,122.078125 160.710938,124.078125 C161.570312,126.078125 162,128.21875 162,130.5 C162,132.78125 161.570312,134.921875 160.710938,136.921875 C159.851563,138.921875 158.671875,140.671875 157.171875,142.171875 C155.671875,143.671875 153.921875,144.851563 151.921875,145.710938 C149.921875,146.570312 147.78125,147 145.5,147 L145.5,147 Z"></path>
                    </g>
                </g>
            </g>
        </g>
    </g>
</svg>