<?xml version="1.0" encoding="utf-8"?>
<svg xmlns="http://www.w3.org/2000/svg"
	xmlns:xlink="http://www.w3.org/1999/xlink"
	width="12px" height="18px">
<path fill="rgb(0,0,0)" fill-rule="evenodd" d="M 11.99 5.54C 11.99 2.48 9.31-0 6-0 2.69-0 0.01 2.48 0.01 5.54 0.01 6.55 0.31 7.49 0.82 8.31 0.82 8.31 0.81 8.31 0.81 8.31 0.81 8.31 6 18 6 18 6 18 11.19 8.31 11.19 8.31 11.19 8.31 11.18 8.31 11.18 8.31 11.7 7.49 11.99 6.55 11.99 5.54ZM 6 8.99C 4.35 8.99 3 7.65 3 5.99 3 4.33 4.35 2.98 6 2.98 7.66 2.98 9 4.33 9 5.99 9 7.65 7.66 8.99 6 8.99Z"/>
</svg>