<?xml version="1.0" encoding="utf-8"?>
<svg xmlns="http://www.w3.org/2000/svg"
	xmlns:xlink="http://www.w3.org/1999/xlink"
	width="16px" height="16px">
<path fill="rgb(0,0,0)" fill-rule="evenodd" d="M 9-0C 9-0 7-0 7-0 7-0-0.01 4.62-0.01 4.62-0.01 4.62-0.01 14.09-0.01 14.09-0.01 15.14 0.85 15.99 1.91 15.99 1.91 15.99 14.09 15.99 14.09 15.99 15.15 15.99 16.01 15.14 16.01 14.09 16.01 14.09 16.01 4.68 16.01 4.68 16.01 4.68 9-0 9-0ZM 14 13C 14 13.43 13.44 14 13 14 13 14 3 14 3 14 2.56 14 2 13.43 2 13 2 13 2 6 2 6 2 6 7 10 7 10 7 10 9 10 9 10 9 10 14 6 14 6 14 6 14 13 14 13Z"/>
</svg>