<?xml version="1.0" encoding="utf-8"?>
<svg xmlns="http://www.w3.org/2000/svg"
	xmlns:xlink="http://www.w3.org/1999/xlink"
	width="16px" height="13px">
<path fill="rgb(0,0,0)" fill-rule="evenodd" d="M 14.08 13C 14.08 13 1.92 13 1.92 13 0.86 13 0 12.13 0 11.06 0 11.06 0 1.95 0 1.95 0 0.88 0.86 0.01 1.92 0.01 1.92 0.01 14.08 0.01 14.08 0.01 15.14 0.01 16 0.88 16 1.95 16 1.95 16 11.06 16 11.06 16 12.13 15.14 13 14.08 13ZM 14 2C 14 2 9 6 9 6 8.45 6 8 6.45 8 7 8 6.45 7.55 6 7 6 7 6 2 2 2 2 1.45 2 1 2.45 1 3 1 3.55 1.45 4 2 4 2 4 7 8 7 8 7.55 8 8 7.55 8 7 8 7.55 8.45 8 9 8 9 8 14 4 14 4 14.55 4 15 3.55 15 3 15 2.45 14.55 2 14 2Z"/>
</svg>