<svg width="29.941406" height="24.375000" viewBox="0.029297 -49.687500 29.941406 24.375000" xmlns="http://www.w3.org/2000/svg"><path d="M29.970703 -48.779297C29.970703 -48.779297 29.970703 -48.789062 29.970703 -48.808594C29.951172 -48.906250 29.921875 -49.003906 29.882812 -49.101562C29.843750 -49.199219 29.794922 -49.287109 29.736328 -49.365234C29.716797 -49.365234 29.707031 -49.375000 29.707031 -49.394531C29.707031 -49.414062 29.707031 -49.423828 29.707031 -49.423828C29.687500 -49.443359 29.672852 -49.453125 29.663086 -49.453125C29.653320 -49.453125 29.638672 -49.453125 29.619141 -49.453125C29.560547 -49.511719 29.487305 -49.560547 29.399414 -49.599609C29.311523 -49.638672 29.218750 -49.658203 29.121094 -49.658203C29.101562 -49.658203 29.082031 -49.663086 29.062500 -49.672852C29.042969 -49.682617 29.033203 -49.687500 29.033203 -49.687500L0.966797 -49.687500C0.947266 -49.687500 0.932617 -49.682617 0.922852 -49.672852C0.913086 -49.663086 0.898438 -49.658203 0.878906 -49.658203C0.781250 -49.658203 0.688477 -49.638672 0.600586 -49.599609C0.512695 -49.560547 0.439453 -49.511719 0.380859 -49.453125C0.361328 -49.453125 0.346680 -49.453125 0.336914 -49.453125C0.327148 -49.453125 0.312500 -49.443359 0.292969 -49.423828C0.292969 -49.423828 0.292969 -49.414062 0.292969 -49.394531C0.292969 -49.375000 0.283203 -49.365234 0.263672 -49.365234C0.205078 -49.287109 0.156250 -49.199219 0.117188 -49.101562C0.078125 -49.003906 0.048828 -48.906250 0.029297 -48.808594C0.029297 -48.789062 0.029297 -48.779297 0.029297 -48.779297C0.029297 -48.779297 0.029297 -48.769531 0.029297 -48.750000C0.029297 -48.750000 0.029297 -48.750000 0.029297 -48.750000L0.029297 -26.250000C0.029297 -25.996094 0.122070 -25.776367 0.307617 -25.590820C0.493164 -25.405273 0.712891 -25.312500 0.966797 -25.312500L29.033203 -25.312500C29.287109 -25.312500 29.506836 -25.405273 29.692383 -25.590820C29.877930 -25.776367 29.970703 -25.996094 29.970703 -26.250000L29.970703 -48.750000C29.970703 -48.750000 29.970703 -48.759766 29.970703 -48.779297ZM26.396484 -47.812500L15.000000 -38.671875L3.603516 -47.812500ZM28.095703 -28.125000C28.095703 -27.871094 28.002930 -27.651367 27.817383 -27.465820C27.631836 -27.280273 27.412109 -27.187500 27.158203 -27.187500L2.841797 -27.187500C2.587891 -27.187500 2.368164 -27.280273 2.182617 -27.465820C1.997070 -27.651367 1.904297 -27.871094 1.904297 -28.125000L1.904297 -46.845703L14.296875 -36.884766C14.316406 -36.884766 14.326172 -36.879883 14.326172 -36.870117C14.326172 -36.860352 14.326172 -36.845703 14.326172 -36.826172C14.423828 -36.748047 14.531250 -36.684570 14.648438 -36.635742C14.765625 -36.586914 14.882812 -36.562500 15.000000 -36.562500C15.117188 -36.562500 15.234375 -36.586914 15.351562 -36.635742C15.468750 -36.684570 15.576172 -36.748047 15.673828 -36.826172C15.673828 -36.845703 15.673828 -36.860352 15.673828 -36.870117C15.673828 -36.879883 15.683594 -36.884766 15.703125 -36.884766L28.095703 -46.845703ZM28.095703 -28.125000"></path></svg>