<svg width="26.250000" height="30.000000" viewBox="1.875000 -58.125000 26.250000 30.000000" xmlns="http://www.w3.org/2000/svg"><path d="M21.562500 -54.375000L21.562500 -56.250000L18.750000 -56.250000C18.750000 -56.757812 18.569336 -57.197266 18.208008 -57.568359C17.846680 -57.939453 17.402344 -58.125000 16.875000 -58.125000L13.125000 -58.125000C12.617188 -58.125000 12.177734 -57.939453 11.806641 -57.568359C11.435547 -57.197266 11.250000 -56.757812 11.250000 -56.250000L8.437500 -56.250000L8.437500 -54.375000L1.875000 -54.375000L1.875000 -28.125000L28.125000 -28.125000L28.125000 -54.375000ZM10.312500 -54.375000L13.125000 -54.375000L13.125000 -55.312500C13.125000 -55.566406 13.217773 -55.786133 13.403320 -55.971680C13.588867 -56.157227 13.808594 -56.250000 14.062500 -56.250000L15.937500 -56.250000C16.191406 -56.250000 16.411133 -56.157227 16.596680 -55.971680C16.782227 -55.786133 16.875000 -55.566406 16.875000 -55.312500L16.875000 -54.375000L19.687500 -54.375000L19.687500 -50.625000L10.312500 -50.625000ZM26.250000 -30.000000L3.750000 -30.000000L3.750000 -52.500000L8.437500 -52.500000L8.437500 -48.750000L21.562500 -48.750000L21.562500 -52.500000L26.250000 -52.500000ZM20.859375 -44.736328L13.945312 -36.093750L10.927734 -39.111328C10.751953 -39.287109 10.537109 -39.375000 10.283203 -39.375000C10.029297 -39.375000 9.814453 -39.287109 9.638672 -39.111328C9.462891 -38.935547 9.375000 -38.720703 9.375000 -38.466797C9.375000 -38.212891 9.462891 -37.998047 9.638672 -37.822266L13.359375 -34.101562C13.378906 -34.101562 13.388672 -34.096680 13.388672 -34.086914C13.388672 -34.077148 13.388672 -34.062500 13.388672 -34.042969C13.408203 -34.042969 13.422852 -34.042969 13.432617 -34.042969C13.442383 -34.042969 13.447266 -34.033203 13.447266 -34.013672C13.623047 -33.837891 13.837891 -33.750000 14.091797 -33.750000C14.345703 -33.750000 14.560547 -33.837891 14.736328 -34.013672C14.736328 -34.013672 14.736328 -34.018555 14.736328 -34.028320C14.736328 -34.038086 14.736328 -34.042969 14.736328 -34.042969C14.736328 -34.042969 14.736328 -34.042969 14.736328 -34.042969L22.207031 -43.388672C22.382812 -43.564453 22.470703 -43.784180 22.470703 -44.047852C22.470703 -44.311523 22.382812 -44.541016 22.207031 -44.736328C22.011719 -44.912109 21.782227 -45.000000 21.518555 -45.000000C21.254883 -45.000000 21.035156 -44.912109 20.859375 -44.736328ZM20.859375 -44.736328"></path></svg>