<?xml version="1.0" encoding="UTF-8" standalone="no"?>
<svg width="16px" height="16px" viewBox="0 0 16 16" version="1.1" xmlns="http://www.w3.org/2000/svg" xmlns:xlink="http://www.w3.org/1999/xlink" xmlns:sketch="http://www.bohemiancoding.com/sketch/ns">
    <!-- Generator: Sketch 3.3.2 (12043) - http://www.bohemiancoding.com/sketch -->
    <title>icon (my voices)</title>
    <desc>Created with Sketch.</desc>
    <defs></defs>
    <g stroke="none" stroke-width="1" fill="rgb(0,0,0)" fill-rule="evenodd" sketch:type="MSPage">
        <g sketch:type="MSArtboardGroup" transform="translate(-652.000000, -1130.000000)">
            <g sketch:type="MSLayerGroup" transform="translate(100.000000, 835.000000)">
                <g transform="translate(530.000000, 74.000000)" sketch:type="MSShapeGroup">
                    <g transform="translate(0.000000, 21.000000)">
                        <g transform="translate(22.000000, 96.000000)">
                            <path d="M11,109.787177 C11.3173333,109.787177 11.6273333,109.817815 11.9326667,109.865474 C11.976,109.607434 12,109.340543 12,109.062077 C12,106.270616 9.308,104 6,104 C2.69133333,104 0,106.270616 0,109.062077 C0,110.397894 0.57,111.666988 1.57333333,112.587489 L0.377333333,114.72534 C0.307333333,114.851296 0.322,115.008571 0.415333333,115.117507 C0.48,115.192399 0.572,115.233931 0.666666667,115.233931 L0.790666667,115.210101 L4.01666667,113.891306 C4.30666667,113.975731 4.608,114.03973 4.91533333,114.082623 L4.96533333,114.085347 C5.01533333,114.085347 5.178,114.083985 5.41733333,114.070368 C5.87,111.677881 8.23933333,109.787177 11,109.787177 L11,109.787177 Z M11,110.468021 C8.29,110.468021 6,112.494894 6,114.893509 C6,117.177741 7.91866667,119.131084 10.2893333,119.368018 L10.2933333,119.369379 C11.1573333,119.453123 12.008,119.290401 12.6746667,119.004447 L15.2166667,119.978054 C15.3393333,120.026394 15.4866667,119.994394 15.5813333,119.886821 C15.6733333,119.783333 15.6926667,119.632866 15.632,119.507591 L14.7486667,117.703353 C15.5513333,116.962595 16,115.995115 16,114.893509 C16,112.494894 13.71,110.468021 11,110.468021 L11,110.468021 Z"></path>
                        </g>
                    </g>
                </g>
            </g>
        </g>
    </g>
</svg>