<?xml version="1.0" encoding="UTF-8" standalone="no"?>
<svg width="16px" height="16px" viewBox="0 0 16 16" version="1.1" xmlns="http://www.w3.org/2000/svg" xmlns:xlink="http://www.w3.org/1999/xlink" xmlns:sketch="http://www.bohemiancoding.com/sketch/ns">
    <!-- Generator: Sketch 3.4.4 (17249) - http://www.bohemiancoding.com/sketch -->
    <title>icon (new message)</title>
    <desc>Created with Sketch.</desc>
    <defs></defs>
    <g stroke="none" stroke-width="1" fill="rgb(0,0,0)" fill-rule="evenodd" sketch:type="MSPage">
        <g sketch:type="MSArtboardGroup" transform="translate(-556.000000, -238.000000)" fill="rgb(0,0,0)">
            <g sketch:type="MSLayerGroup" transform="translate(200.000000, 106.000000)">
                <g transform="translate(60.000000, 102.000000)" sketch:type="MSShapeGroup">
                    <g transform="translate(288.000000, 22.000000)">
                        <path d="M22.992,23.008991 L8.992,23.008991 L8.992,9.02297702 L18,9.02297702 L18,8.01598402 L8.992,8.01598402 C8.71466667,8.02664003 8.48266667,8.12520813 8.296,8.31168831 C8.10933333,8.4981685 8.01066667,8.73526474 8,9.02297702 L8,23.008991 C8.01066667,23.2860473 8.10933333,23.5178155 8.296,23.7042957 C8.48266667,23.8907759 8.71466667,23.989344 8.992,24 L22.992,24 C23.28,23.989344 23.5173333,23.8907759 23.704,23.7042957 C23.8906667,23.5178155 23.9893333,23.2860473 24,23.008991 L24,13.018981 L22.992,13.018981 L22.992,23.008991 Z M11.472,17.6063936 L11.472,17.6383616 L10.496,20.8831169 L11.2,21.5064935 L14.32,20.4195804 L14.352,20.4355644 L14.512,20.4355644 L22.048,12.987013 L23.6,11.4205794 C23.888,11.1008991 24.0186667,10.7092907 23.992,10.2457542 C23.9653333,9.78221778 23.8026667,9.39060939 23.504,9.07092907 L22.832,8.44755245 C22.5226667,8.14918415 22.1573333,8 21.736,8 C21.3146667,8 20.9493333,8.14918415 20.64,8.44755245 L19.184,10.1258741 L11.472,17.4145854 L11.472,17.6063936 Z M21.28,9.07092907 C21.3866667,8.97502498 21.5093333,8.92707293 21.648,8.92707293 C21.712,8.92707293 21.7893333,8.95371295 21.88,9.00699301 C21.9706667,9.06027306 22.0426667,9.11355311 22.096,9.16683317 L22.896,9.98201798 C22.992,10.0885781 23.04,10.2111222 23.04,10.3496503 C23.04,10.4881785 22.992,10.6053946 22.896,10.7012987 L21.76,11.8361638 L20.144,10.1898102 L21.28,9.07092907 Z M19.616,10.8771229 L21.152,12.4435564 L14.16,19.3966034 L12.576,17.7982018 L19.616,10.8771229 Z M12.144,18.5174825 L13.504,19.8441558 L11.504,20.5154845 L12.144,18.5174825 Z"></path>
                    </g>
                </g>
            </g>
        </g>
    </g>
</svg>