<svg width="24.375000" height="30.000000" viewBox="2.812500 -58.125000 24.375000 30.000000" xmlns="http://www.w3.org/2000/svg"><path d="M27.187500 -35.625000L25.312500 -35.625000L25.312500 -46.875000C25.312500 -48.085938 25.092773 -49.228516 24.653320 -50.302734C24.213867 -51.376953 23.613281 -52.329102 22.851562 -53.159180C22.089844 -53.989258 21.196289 -54.667969 20.170898 -55.195312C19.145508 -55.722656 18.037109 -56.044922 16.845703 -56.162109C16.845703 -56.181641 16.850586 -56.196289 16.860352 -56.206055C16.870117 -56.215820 16.875000 -56.230469 16.875000 -56.250000C16.875000 -56.757812 16.694336 -57.197266 16.333008 -57.568359C15.971680 -57.939453 15.527344 -58.125000 15.000000 -58.125000C14.492188 -58.125000 14.052734 -57.939453 13.681641 -57.568359C13.310547 -57.197266 13.125000 -56.757812 13.125000 -56.250000C13.125000 -56.230469 13.129883 -56.215820 13.139648 -56.206055C13.149414 -56.196289 13.154297 -56.181641 13.154297 -56.162109C11.962891 -56.044922 10.854492 -55.722656 9.829102 -55.195312C8.803711 -54.667969 7.910156 -53.989258 7.148438 -53.159180C6.386719 -52.329102 5.786133 -51.376953 5.346680 -50.302734C4.907227 -49.228516 4.687500 -48.085938 4.687500 -46.875000L4.687500 -35.625000L2.812500 -35.625000L2.812500 -33.750000L10.400391 -33.750000C10.380859 -33.593750 10.361328 -33.437500 10.341797 -33.281250C10.322266 -33.125000 10.312500 -32.968750 10.312500 -32.812500C10.312500 -31.523438 10.771484 -30.419922 11.689453 -29.501953C12.607422 -28.583984 13.710938 -28.125000 15.000000 -28.125000C16.289062 -28.125000 17.392578 -28.583984 18.310547 -29.501953C19.228516 -30.419922 19.687500 -31.523438 19.687500 -32.812500C19.687500 -32.968750 19.677734 -33.125000 19.658203 -33.281250C19.638672 -33.437500 19.619141 -33.593750 19.599609 -33.750000L27.187500 -33.750000ZM15.000000 -30.000000C14.218750 -30.000000 13.554688 -30.273438 13.007812 -30.820312C12.460938 -31.367188 12.187500 -32.031250 12.187500 -32.812500C12.187500 -32.968750 12.207031 -33.125000 12.246094 -33.281250C12.285156 -33.437500 12.324219 -33.593750 12.363281 -33.750000L17.607422 -33.750000C17.666016 -33.593750 17.714844 -33.437500 17.753906 -33.281250C17.792969 -33.125000 17.812500 -32.968750 17.812500 -32.812500C17.812500 -32.031250 17.539062 -31.367188 16.992188 -30.820312C16.445312 -30.273438 15.781250 -30.000000 15.000000 -30.000000ZM23.437500 -39.375000L23.437500 -35.625000L6.562500 -35.625000L6.562500 -46.875000C6.562500 -47.910156 6.757812 -48.881836 7.148438 -49.790039C7.539062 -50.698242 8.076172 -51.494141 8.759766 -52.177734C9.443359 -52.861328 10.239258 -53.398438 11.147461 -53.789062C12.055664 -54.179688 13.027344 -54.375000 14.062500 -54.375000L15.937500 -54.375000C16.972656 -54.375000 17.944336 -54.179688 18.852539 -53.789062C19.760742 -53.398438 20.556641 -52.861328 21.240234 -52.177734C21.923828 -51.494141 22.460938 -50.698242 22.851562 -49.790039C23.242188 -48.881836 23.437500 -47.910156 23.437500 -46.875000ZM23.437500 -39.375000"></path></svg>