<?xml version="1.0" encoding="UTF-8" standalone="no"?>
<svg width="16px" height="16px" viewBox="0 0 16 16" version="1.1" xmlns="http://www.w3.org/2000/svg" xmlns:xlink="http://www.w3.org/1999/xlink" xmlns:sketch="http://www.bohemiancoding.com/sketch/ns">
    <!-- Generator: Sketch 3.3.2 (12043) - http://www.bohemiancoding.com/sketch -->
    <title>icon (open in gallery)</title>
    <desc>Created with Sketch.</desc>
    <defs></defs>
    <g stroke="none" stroke-width="1" fill="rgb(0,0,0)" fill-rule="evenodd" sketch:type="MSPage">
        <g sketch:type="MSArtboardGroup" transform="translate(-1135.000000, -1120.000000)" fill="rgb(0,0,0)">
            <g sketch:type="MSLayerGroup" transform="translate(100.000000, 781.000000)">
                <g transform="translate(758.000000, 70.000000)" sketch:type="MSShapeGroup">
                    <g transform="translate(223.000000, 261.000000)">
                        <path d="M60.6562501,16.6406251 L57,20.2968752 L57,17.5 C57,17.3645835 56.9505211,17.2473957 56.8515627,17.1484373 C56.7526043,17.0494789 56.6354165,17 56.5,17 C56.3645835,17 56.2473957,17.0494789 56.1484373,17.1484373 C56.0494789,17.2473957 56,17.3645835 56,17.5 L56,21.5 L56,21.5078123 L56,21.5156251 C56,21.5781248 56.0130208,21.6380208 56.0390624,21.6953125 C56.065104,21.7526043 56.0989584,21.8020832 56.1406251,21.8437499 L56.1406251,21.8515627 L56.1406251,21.8593749 L56.1484373,21.8593749 L56.1562501,21.8593749 C56.1979168,21.9010416 56.2473957,21.934896 56.3046875,21.9609376 C56.3619792,21.9869792 56.4218752,22 56.4843749,22 L56.4921877,22 L56.5,22 L60.5,22 C60.6354165,22 60.7526043,21.9505211 60.8515627,21.8515627 C60.9505211,21.7526043 61,21.6354165 61,21.5 C61,21.3645835 60.9505211,21.2473957 60.8515627,21.1484373 C60.7526043,21.0494789 60.6354165,21 60.5,21 L57.7031248,21 L61.3593749,17.3437499 C61.4531248,17.25 61.5,17.1354165 61.5,17 C61.5,16.8645835 61.4531248,16.7447915 61.3593749,16.6406251 C61.2656251,16.5468752 61.1484373,16.5 61.0078123,16.5 C60.8671877,16.5 60.75,16.5468752 60.6562501,16.6406251 L60.6562501,16.6406251 Z M67.8593749,10.1562501 L67.8593749,10.1484373 L67.8593749,10.1406251 L67.8515627,10.1406251 L67.8437499,10.1406251 C67.8020832,10.0989584 67.7526043,10.065104 67.6953125,10.0390624 C67.6380208,10.0130208 67.5781248,10 67.5156251,10 L67.5078123,10 L67.5,10 L63.5,10 C63.3645835,10 63.2473957,10.0494789 63.1484373,10.1484373 C63.0494789,10.2473957 63,10.3645835 63,10.5 C63,10.6354165 63.0494789,10.7526043 63.1484373,10.8515627 C63.2473957,10.9505211 63.3645835,11 63.5,11 L66.2968752,11 L62.6406251,14.6562501 C62.5468752,14.75 62.5,14.8671877 62.5,15.0078123 C62.5,15.1484373 62.5468752,15.2656251 62.6406251,15.3593749 C62.7343749,15.4531248 62.8515627,15.5 62.9921877,15.5 C63.1328123,15.5 63.25,15.4531248 63.3437499,15.3593749 L67,11.7031248 L67,14.5 C67,14.6354165 67.0494789,14.7526043 67.1484373,14.8515627 C67.2473957,14.9505211 67.3645835,15 67.5,15 C67.6354165,15 67.7526043,14.9505211 67.8515627,14.8515627 C67.9505211,14.7526043 68,14.6354165 68,14.5 L68,10.5 L68,10.4921877 L68,10.4843749 C67.9895835,10.4218752 67.9739584,10.3645835 67.9531248,10.3125003 C67.9322917,10.2604165 67.9010416,10.2083333 67.8593749,10.1562501 L67.8593749,10.1562501 Z M68,8 L56,8 C55.4479168,8 54.9765627,8.19531253 54.5859376,8.5859376 C54.1953125,8.97656267 54,9.4479168 54,10 L54,22 C54,22.5520832 54.1953125,23.0234373 54.5859376,23.4140624 C54.9765627,23.8046875 55.4479168,24 56,24 L68,24 C68.5520832,24 69.0234373,23.8046875 69.4140624,23.4140624 C69.8046875,23.0234373 70,22.5520832 70,22 L70,10 C70,9.4479168 69.8046875,8.97656267 69.4140624,8.5859376 C69.0234373,8.19531253 68.5520832,8 68,8 L68,8 Z M69,22 C69,22.2812501 68.9036459,22.5182293 68.7109376,22.7109376 C68.5182293,22.9036459 68.2812501,23 68,23 L56,23 C55.7291669,23 55.4947915,22.9036459 55.2968752,22.7109376 C55.0989584,22.5182293 55,22.2812501 55,22 L55,10 C55,9.72916693 55.0989584,9.49479147 55.2968752,9.2968752 C55.4947915,9.0989584 55.7291669,9 56,9 L68,9 C68.2812501,9 68.5182293,9.0989584 68.7109376,9.2968752 C68.9036459,9.49479147 69,9.72916693 69,10 L69,22 Z"></path>
                    </g>
                </g>
            </g>
        </g>
    </g>
</svg>