<?xml version="1.0" encoding="utf-8"?>
<svg xmlns="http://www.w3.org/2000/svg"
	xmlns:xlink="http://www.w3.org/1999/xlink"
	width="14px" height="14px">
<path fill="rgb(0,0,0)" fill-rule="evenodd" d="M 12.28 14C 12.28 14 10.72 14 10.72 14 9.77 14 8.99 13.36 8.99 12.57 8.99 12.57 8.99 1.43 8.99 1.43 8.99 0.64 9.77 0 10.72 0 10.72 0 12.28 0 12.28 0 13.23 0 14.01 0.64 14.01 1.43 14.01 1.43 14.01 12.57 14.01 12.57 14.01 13.36 13.23 14 12.28 14ZM 3.28 14C 3.28 14 1.72 14 1.72 14 0.77 14-0.01 13.36-0.01 12.57-0.01 12.57-0.01 1.43-0.01 1.43-0.01 0.64 0.77 0 1.72 0 1.72 0 3.28 0 3.28 0 4.23 0 5.01 0.64 5.01 1.43 5.01 1.43 5.01 12.57 5.01 12.57 5.01 13.36 4.23 14 3.28 14Z"/>
</svg>