<?xml version="1.0" encoding="UTF-8" standalone="no"?>
<svg width="11px" height="16px" viewBox="0 0 11 16" version="1.1" xmlns="http://www.w3.org/2000/svg" xmlns:xlink="http://www.w3.org/1999/xlink" xmlns:sketch="http://www.bohemiancoding.com/sketch/ns">
    <!-- Generator: Sketch 3.3.2 (12043) - http://www.bohemiancoding.com/sketch -->
    <title>icon (write)</title>
    <desc>Created with Sketch.</desc>
    <defs></defs>
    <g stroke="none" stroke-width="1" fill="rgb(0,0,0)" fill-rule="evenodd" sketch:type="MSPage">
        <g sketch:type="MSArtboardGroup" transform="translate(-1267.000000, -1400.000000)" fill="rgb(0,0,0)">
            <g sketch:type="MSLayerGroup" transform="translate(100.000000, 1175.000000)">
                <g transform="translate(1148.000000, 91.000000)" sketch:type="MSShapeGroup">
                    <g transform="translate(17.000000, 29.000000)">
                        <path d="M11.9649562,105.324112 C11.2040339,104.908168 10.5499533,104.892571 10.0027144,105.277319 C9.45547608,105.662067 8.96296101,106.213192 8.52517031,106.930695 L7.99356687,107.804178 L7.44632796,108.67766 L7.1961617,109.098803 L2.39609683,116.944546 C2.16677749,117.308497 2.03908836,117.724441 2.01302944,118.192378 C1.98697052,118.660315 1.99999998,119.102256 2.05211835,119.5182 C2.10423619,119.934144 2.16938349,120.285096 2.24756025,120.571058 C2.32573754,120.857019 2.36482592,121 2.36482592,121 C2.36482592,121 2.51857397,120.961005 2.82607007,120.883016 C3.13356617,120.805026 3.49057411,120.682843 3.89709442,120.516465 C4.30361473,120.350088 4.71534651,120.139516 5.13229028,119.88475 C5.54923406,119.629985 5.86715362,119.320626 6.08604897,118.956675 L12.2151224,108.942824 C12.6529137,108.225321 12.9108974,107.546813 12.9890747,106.907299 C13.0672515,106.267785 12.725879,105.740056 11.9649562,105.324112 L11.9649562,105.324112 Z M5.1635612,118.457542 C4.87170056,118.935878 4.46778624,119.260834 3.95181826,119.432411 C3.43585027,119.603988 3.17786601,119.689776 3.17786601,119.689776 C3.17786601,119.689776 3.12835417,119.43761 3.02932996,118.933278 C2.93030574,118.428946 3.02672396,117.932413 3.3185846,117.443679 L7.85284828,110.050276 L9.69782434,111.048541 L5.1635612,118.457542 Z M10.2294278,110.190656 L8.38445172,109.176793 L8.91605517,108.303311 L10.7610312,109.317174 L10.2294278,110.190656 Z M11.2926347,108.443692 L9.44765808,107.445426 C9.73951872,106.956692 10.0157439,106.558946 10.2763342,106.252187 C10.5369239,105.945429 10.9225967,105.927231 11.4333527,106.197594 C11.9441093,106.478357 12.1213102,106.803313 11.9649562,107.172463 C11.8086027,107.541613 11.5844953,107.965356 11.2926347,108.443692 L11.2926347,108.443692 Z"></path>
                    </g>
                </g>
            </g>
        </g>
    </g>
</svg>