<?xml version="1.0" encoding="UTF-8" standalone="no"?>
<svg width="28px" height="28px" viewBox="0 0 28 28" version="1.1" xmlns="http://www.w3.org/2000/svg" xmlns:xlink="http://www.w3.org/1999/xlink" xmlns:sketch="http://www.bohemiancoding.com/sketch/ns">
    <!-- Generator: Sketch 3.3.2 (12043) - http://www.bohemiancoding.com/sketch -->
    <title>Shape</title>
    <desc>Created with Sketch.</desc>
    <defs></defs>
    <g stroke="none" stroke-width="1" fill="rgb(0,0,0)" fill-rule="evenodd" sketch:type="MSPage">
        <g sketch:type="MSArtboardGroup" transform="translate(-937.000000, -1343.000000)" fill="rgb(0,0,0)">
            <g sketch:type="MSLayerGroup" transform="translate(100.000000, 1249.000000)">
                <g transform="translate(815.000000, 72.000000)" sketch:type="MSShapeGroup">
                    <path d="M49,35 L37,35 L37,23 C37,22.7291669 36.9010421,22.4947915 36.7031253,22.2968747 C36.5052085,22.0989579 36.2708331,22 36,22 C35.7291669,22 35.4947915,22.0989579 35.2968747,22.2968747 C35.0989579,22.4947915 35,22.7291669 35,23 L35,35 L23,35 C22.7291669,35 22.4947915,35.0989579 22.2968747,35.2968747 C22.0989579,35.4947915 22,35.7291669 22,36 C22,36.2708331 22.0989579,36.5052085 22.2968747,36.7031253 C22.4947915,36.9010421 22.7291669,37 23,37 L35,37 L35,49 C35,49.2708331 35.0989579,49.5052085 35.2968747,49.7031253 C35.4947915,49.9010421 35.7291669,50 36,50 C36.2708331,50 36.5052085,49.9010421 36.7031253,49.7031253 C36.9010421,49.5052085 37,49.2708331 37,49 L37,37 L49,37 C49.2708331,37 49.5052085,36.9010421 49.7031253,36.7031253 C49.9010421,36.5052085 50,36.2708331 50,36 C50,35.7291669 49.9010421,35.4947915 49.7031253,35.2968747 C49.5052085,35.0989579 49.2708331,35 49,35 L49,35 Z"></path>
                </g>
            </g>
        </g>
    </g>
</svg>