<?xml version="1.0" encoding="utf-8"?>
<svg xmlns="http://www.w3.org/2000/svg"
	xmlns:xlink="http://www.w3.org/1999/xlink"
	width="14px" height="14px">
<path fill="rgb(0,0,0)" fill-rule="evenodd" d="M 12.58 11C 12.58 11 11 11 11 11 11 11 11 9 11 9 11 8.47 10.47 8 10 8 10 8 4 8 4 8 3.53 8 3 8.47 3 9 3 9 3 11 3 11 3 11 1.42 11 1.42 11 0.63 11-0.01 10.28-0.01 9.41-0.01 9.41-0.01 4.57-0.01 4.57-0.01 3.7 0.63 2.99 1.42 2.99 1.42 2.99 12.58 2.99 12.58 2.99 13.37 2.99 14.01 3.7 14.01 4.57 14.01 4.57 14.01 9.41 14.01 9.41 14.01 10.28 13.37 11 12.58 11ZM 11.99 4C 11.44 4 10.99 4.45 10.99 5 10.99 5.55 11.44 5.99 11.99 5.99 12.54 5.99 12.99 5.55 12.99 5 12.99 4.45 12.54 4 11.99 4ZM 3.01 0C 3.01 0 11 0 11 0 11 0 11 2 11 2 11 2 3.01 2 3.01 2 3.01 2 3.01 0 3.01 0ZM 9.99 14C 9.99 14 4 14 4 14 4 14 4 9 4 9 4 9 9.99 9 9.99 9 9.99 9 9.99 14 9.99 14Z"/>
</svg>