<?xml version="1.0" encoding="UTF-8"?>
<svg xmlns="http://www.w3.org/2000/svg"
    xmlns:xlink="http://www.w3.org/1999/xlink"
    width="16px" height="16px">
    <g stroke="none" stroke-width="1" fill="rgb(0,0,0)" fill-rule="evenodd">
        <g transform="translate(-869.000000, -333.000000)" fill="rgb(0,0,0)">
            <g transform="translate(808.000000, 220.000000)">
                <g transform="translate(19.000000, 101.000000)">
                    <path d="M49,19 L48,19 L48,21 L46,21 L46,22 L48,22 L48,24 L49,24 L49,22 L51,22 L51,21 L49,21 L49,19 Z M57,12 L47,12 C46.7291669,12 46.4947915,12.0989584 46.2968752,12.2968752 C46.0989584,12.4947915 46,12.7291669 46,13 L46,14 L47,14 L47,13.5 C47,13.3645835 47.0494789,13.2473957 47.1484373,13.1484373 C47.2473957,13.0494789 47.3645835,13 47.5,13 L56.5,13 C56.6354165,13 56.7526043,13.0494789 56.8515627,13.1484373 C56.9505211,13.2473957 57,13.3645835 57,13.5 L57,22.5 C57,22.6354165 56.9505211,22.7526043 56.8515627,22.8515627 C56.7526043,22.9505211 56.6354165,23 56.5,23 L56,23 L56,24 L57,24 C57.2812501,24 57.5182293,23.9036459 57.7109376,23.7109376 C57.9036459,23.5182293 58,23.2812501 58,23 L58,13 C58,12.7291669 57.9036459,12.4947915 57.7109376,12.2968752 C57.5182293,12.0989584 57.2812501,12 57,12 L57,12 Z M54,15 L43,15 C42.7291669,15 42.4947915,15.0989584 42.2968752,15.2968752 C42.0989584,15.4947915 42,15.7291669 42,16 L42,27 C42,27.2812501 42.0989584,27.5182293 42.2968752,27.7109376 C42.4947915,27.9036459 42.7291669,28 43,28 L54,28 C54.2812501,28 54.5182293,27.9036459 54.7109376,27.7109376 C54.9036459,27.5182293 55,27.2812501 55,27 L55,16 C55,15.7291669 54.9036459,15.4947915 54.7109376,15.2968752 C54.5182293,15.0989584 54.2812501,15 54,15 L54,15 Z M54,26.5 C54,26.6354165 53.9505211,26.7526043 53.8515627,26.8515627 C53.7526043,26.9505211 53.6354165,27 53.5,27 L43.5,27 C43.3645835,27 43.2473957,26.9505211 43.1484373,26.8515627 C43.0494789,26.7526043 43,26.6354165 43,26.5 L43,16.5 C43,16.3645835 43.0494789,16.2473957 43.1484373,16.1484373 C43.2473957,16.0494789 43.3645835,16 43.5,16 L53.5,16 C53.6354165,16 53.7526043,16.0494789 53.8515627,16.1484373 C53.9505211,16.2473957 54,16.3645835 54,16.5 L54,26.5 Z"></path>
                </g>
            </g>
        </g>
    </g>
</svg>