<?xml version="1.0" encoding="UTF-8" standalone="no"?>
<svg width="16px" height="16px" viewBox="0 0 16 16" version="1.1" xmlns="http://www.w3.org/2000/svg" xmlns:xlink="http://www.w3.org/1999/xlink" xmlns:sketch="http://www.bohemiancoding.com/sketch/ns">
    <!-- Generator: Sketch 3.3.2 (12043) - http://www.bohemiancoding.com/sketch -->
    <title>icon (repost)</title>
    <desc>Created with Sketch.</desc>
    <defs></defs>
    <g stroke="none" stroke-width="1" fill="rgb(0,0,0)" fill-rule="evenodd" sketch:type="MSPage">
        <g sketch:type="MSArtboardGroup" transform="translate(-146.000000, -1387.000000)" fill="#000000">
            <g sketch:type="MSLayerGroup" transform="translate(100.000000, 781.000000)">
                <g transform="translate(14.000000, 70.000000)" sketch:type="MSShapeGroup">
                    <g transform="translate(32.000000, 536.000000)">
                        <path d="M15,0 L5,0 C4.72916693,0 4.49479147,0.0989584 4.2968752,0.2968752 C4.0989584,0.494791467 4,0.729166933 4,1 L4,2 L5,2 L5,1.5 C5,1.36458347 5.04947893,1.24739573 5.14843733,1.14843733 C5.24739573,1.04947893 5.36458347,1 5.5,1 L14.5,1 C14.6354165,1 14.7526043,1.04947893 14.8515627,1.14843733 C14.9505211,1.24739573 15,1.36458347 15,1.5 L15,10.5 C15,10.6354165 14.9505211,10.7526043 14.8515627,10.8515627 C14.7526043,10.9505211 14.6354165,11 14.5,11 L14,11 L14,12 L15,12 C15.2812501,12 15.5182293,11.9036459 15.7109376,11.7109376 C15.9036459,11.5182293 16,11.2812501 16,11 L16,1 C16,0.729166933 15.9036459,0.494791467 15.7109376,0.2968752 C15.5182293,0.0989584 15.2812501,0 15,0 L15,0 Z M12,3 L1,3 C0.729166933,3 0.494791467,3.0989584 0.2968752,3.2968752 C0.0989584,3.49479147 0,3.72916693 0,4 L0,15 C0,15.2812501 0.0989584,15.5182293 0.2968752,15.7109376 C0.494791467,15.9036459 0.729166933,16 1,16 L12,16 C12.2812501,16 12.5182293,15.9036459 12.7109376,15.7109376 C12.9036459,15.5182293 13,15.2812501 13,15 L13,4 C13,3.72916693 12.9036459,3.49479147 12.7109376,3.2968752 C12.5182293,3.0989584 12.2812501,3 12,3 L12,3 Z M12,14.5 C12,14.6354165 11.9505211,14.7526043 11.8515627,14.8515627 C11.7526043,14.9505211 11.6354165,15 11.5,15 L1.5,15 C1.36458347,15 1.24739573,14.9505211 1.14843733,14.8515627 C1.04947893,14.7526043 1,14.6354165 1,14.5 L1,4.5 C1,4.36458347 1.04947893,4.24739573 1.14843733,4.14843733 C1.24739573,4.04947893 1.36458347,4 1.5,4 L11.5,4 C11.6354165,4 11.7526043,4.04947893 11.8515627,4.14843733 C11.9505211,4.24739573 12,4.36458347 12,4.5 L12,14.5 Z"></path>
                    </g>
                </g>
            </g>
        </g>
    </g>
</svg>