<?xml version="1.0" encoding="utf-8"?>
<svg xmlns="http://www.w3.org/2000/svg"
	xmlns:xlink="http://www.w3.org/1999/xlink"
	width="78px" height="78px">
<path fill="rgb(0,0,0)" fill-rule="evenodd" d="M 39 78C 17.46 78-0 60.54-0 39-0 17.46 17.46-0 39-0 60.54-0 78 17.46 78 39 78 60.54 60.54 78 39 78ZM 39 4.87C 20.15 4.87 4.87 20.15 4.87 39 4.87 57.84 20.15 73.12 39 73.12 57.85 73.12 73.12 57.84 73.12 39 73.12 20.15 57.85 4.87 39 4.87ZM 47.99 20.68C 47.99 20.68 48.97 19 48.97 19 48.97 19 60 25.32 60 25.32 60 25.32 59.02 27.01 59.02 27.01 59.02 27.01 47.99 20.68 47.99 20.68ZM 55 31C 55 33.76 52.76 36 50 36 47.24 36 45 33.76 45 31 45 28.24 47.24 26 50 26 52.76 26 55 28.24 55 31ZM 59 56C 59 56 56 58 56 58 51.83 53.6 44.1 51.96 39 51.96 33.9 51.96 26.17 53.6 22 58 22 58 19 55.96 19 55.96 23.75 49.46 32.07 48 39 48 45.93 48 54.25 49.49 59 56ZM 28 36C 25.24 36 23 33.76 23 31 23 28.24 25.24 26 28 26 30.76 26 33 28.24 33 31 33 33.76 30.76 36 28 36ZM 17.47 25.93C 17.47 25.93 28.73 19.43 28.73 19.43 28.73 19.43 29.73 21.17 29.73 21.17 29.73 21.17 18.47 27.67 18.47 27.67 18.47 27.67 17.47 25.93 17.47 25.93Z"/>
</svg>