<?xml version="1.0" encoding="UTF-8" standalone="no"?>
<svg width="14px" height="14px" viewBox="0 0 14 14" version="1.1" xmlns="http://www.w3.org/2000/svg" xmlns:xlink="http://www.w3.org/1999/xlink" xmlns:sketch="http://www.bohemiancoding.com/sketch/ns">
    <!-- Generator: Sketch 3.3.2 (12043) - http://www.bohemiancoding.com/sketch -->
    <title>Shape</title>
    <desc>Created with Sketch.</desc>
    <defs></defs>
    <g stroke="none" stroke-width="1" fill="rgb(0,0,0)" fill-rule="evenodd" sketch:type="MSPage">
        <g sketch:type="MSArtboardGroup" transform="translate(-648.000000, -399.000000)" fill="rgb(0,0,0)">
            <g sketch:type="MSLayerGroup" transform="translate(100.000000, 211.000000)">
                <g transform="translate(439.000000, 153.000000)" sketch:type="MSShapeGroup">
                    <g transform="translate(94.000000, 0.000000)">
                        <path d="M28.8769531,48.2890623 L24.9804689,44.3925781 C25.4088544,43.8912759 25.7483726,43.3261719 25.9990235,42.6972658 C26.2496743,42.0683592 26.375,41.3984377 26.375,40.6875 C26.375,39.9036456 26.2268879,39.1653645 25.9306643,38.4726561 C25.6344401,37.7799478 25.228841,37.1761068 24.7138673,36.6611327 C24.1988932,36.146159 23.5950522,35.7405599 22.9023439,35.4443357 C22.2096355,35.1481121 21.4713544,35 20.6875,35 C19.9036456,35 19.1653645,35.1481121 18.4726561,35.4443357 C17.7799478,35.7405599 17.1761068,36.146159 16.6611327,36.6611327 C16.146159,37.1761068 15.7405599,37.7799478 15.4443357,38.4726561 C15.1481121,39.1653645 15,39.9036456 15,40.6875 C15,41.4713544 15.1481121,42.2096355 15.4443357,42.9023439 C15.7405599,43.5950522 16.146159,44.1988932 16.6611327,44.7138673 C17.1761068,45.228841 17.7799478,45.6344401 18.4726561,45.9306643 C19.1653645,46.2268879 19.9036456,46.375 20.6875,46.375 C21.3984377,46.375 22.0683592,46.2496743 22.6972658,45.9990235 C23.3261719,45.7483726 23.8912759,45.4088544 24.3925781,44.9804689 L28.2890623,48.8769531 C28.3710939,48.9589842 28.4690757,49 28.5830077,49 C28.6969401,49 28.7949219,48.9589842 28.8769531,48.8769531 C28.9589842,48.7949219 29,48.6969401 29,48.5830077 C29,48.4690757 28.9589842,48.3710939 28.8769531,48.2890623 L28.8769531,48.2890623 Z M20.6875,45.5 C20.0221355,45.5 19.3977864,45.3746743 18.8144531,45.1240235 C18.2311197,44.8733726 17.7207031,44.5292969 17.2832031,44.0917969 C16.8457031,43.6542969 16.5016274,43.1438803 16.2509765,42.5605469 C16.0003257,41.9772136 15.875,41.3528645 15.875,40.6875 C15.875,40.0221355 16.0003257,39.3977864 16.2509765,38.8144531 C16.5016274,38.2311197 16.8457031,37.7207031 17.2832031,37.2832031 C17.7207031,36.8457031 18.2311197,36.5016274 18.8144531,36.2509765 C19.3977864,36.0003257 20.0221355,35.875 20.6875,35.875 C21.3528645,35.875 21.9772136,36.0003257 22.5605469,36.2509765 C23.1438803,36.5016274 23.6542969,36.8457031 24.0917969,37.2832031 C24.5292969,37.7207031 24.8733726,38.2311197 25.1240235,38.8144531 C25.3746743,39.3977864 25.5,40.0221355 25.5,40.6875 C25.5,41.3528645 25.3746743,41.9772136 25.1240235,42.5605469 C24.8733726,43.1438803 24.5292969,43.6542969 24.0917969,44.0917969 C23.6542969,44.5292969 23.1438803,44.8733726 22.5605469,45.1240235 C21.9772136,45.3746743 21.3528645,45.5 20.6875,45.5 L20.6875,45.5 Z"></path>
                    </g>
                </g>
            </g>
        </g>
    </g>
</svg>