<?xml version="1.0" encoding="UTF-8" standalone="no"?>
<svg width="16px" height="16px" viewBox="0 0 16 16" version="1.1" xmlns="http://www.w3.org/2000/svg" xmlns:xlink="http://www.w3.org/1999/xlink" xmlns:sketch="http://www.bohemiancoding.com/sketch/ns">
    <!-- Generator: Sketch 3.3.2 (12043) - http://www.bohemiancoding.com/sketch -->
    <title>Shape</title>
    <desc>Created with Sketch.</desc>
    <defs></defs>
    <g stroke="none" stroke-width="1" fill="rgb(0,0,0)" fill-rule="evenodd" sketch:type="MSPage">
        <g sketch:type="MSArtboardGroup" transform="translate(-1239.000000, -736.000000)" fill="rgb(0,0,0)">
            <g sketch:type="MSLayerGroup" transform="translate(100.000000, 629.000000)">
                <g transform="translate(1126.000000, 72.000000)" sketch:type="MSShapeGroup">
                    <g transform="translate(0.000000, 21.000000)">
                        <path d="M29,22 C29,21.4791669 28.8229168,21.0286459 28.4687499,20.6484373 C28.1145835,20.2682293 27.6770832,20.0572917 27.1562501,20.0156251 C27.1041664,19.8489584 27.0442709,19.6822917 26.9765627,19.5156251 C26.9088544,19.3489584 26.8333333,19.1874997 26.75,19.0312501 C27.0833333,18.6354165 27.2447915,18.1822917 27.2343749,17.6718752 C27.2239584,17.1614581 27.0312501,16.7187499 26.6562501,16.3437499 C26.2916667,15.9791669 25.8515627,15.7890624 25.3359376,15.7734373 C24.8203125,15.7578123 24.3645835,15.9166667 23.9687499,16.25 C23.8125003,16.1666667 23.6510416,16.0911456 23.4843749,16.0234373 C23.3177083,15.9557291 23.1510416,15.8958336 22.9843749,15.8437499 C22.9427083,15.3229168 22.7317707,14.8854165 22.3515627,14.5312501 C21.9713541,14.1770832 21.5208331,14 21,14 C20.4791669,14 20.0286459,14.1770832 19.6484373,14.5312501 C19.2682293,14.8854165 19.0572917,15.3229168 19.0156251,15.8437499 C18.8489584,15.8958336 18.6822917,15.9557291 18.5156251,16.0234373 C18.3489584,16.0911456 18.1874997,16.1666667 18.0312501,16.25 C17.6354165,15.9166667 17.1796875,15.7552085 16.6640624,15.7656251 C16.1484373,15.7760416 15.7083333,15.9687499 15.3437499,16.3437499 C14.9687499,16.7187499 14.7760416,17.1614581 14.7656251,17.6718752 C14.7552085,18.1822917 14.9166667,18.6354165 15.25,19.0312501 C15.1666667,19.1874997 15.0911456,19.3489584 15.0234373,19.5156251 C14.9557291,19.6822917 14.8958336,19.8489584 14.8437499,20.0156251 C14.3229168,20.0572917 13.8854165,20.2682293 13.5312501,20.6484373 C13.1770832,21.0286459 13,21.4791669 13,22 C13,22.5208331 13.1770832,22.9713541 13.5312501,23.3515627 C13.8854165,23.7317707 14.3229168,23.9427083 14.8437499,23.9843749 C14.8958336,24.1510416 14.9557291,24.3177083 15.0234373,24.4843749 C15.0911456,24.6510416 15.1666667,24.8125003 15.25,24.9687499 C14.9166667,25.3645835 14.7552085,25.8203125 14.7656251,26.3359376 C14.7760416,26.8515627 14.9687499,27.2916667 15.3437499,27.6562501 C15.7083333,28.0312501 16.1484373,28.2239584 16.6640624,28.2343749 C17.1796875,28.2447915 17.6354165,28.0833333 18.0312501,27.75 C18.1874997,27.8333333 18.3489584,27.9088544 18.5156251,27.9765627 C18.6822917,28.0442709 18.8489584,28.1041664 19.0156251,28.1562501 C19.0572917,28.6770832 19.2682293,29.1145835 19.6484373,29.4687499 C20.0286459,29.8229168 20.4791669,30 21,30 C21.5208331,30 21.9713541,29.8229168 22.3515627,29.4687499 C22.7317707,29.1145835 22.9427083,28.6770832 22.9843749,28.1562501 C23.1510416,28.1041664 23.3177083,28.0442709 23.4843749,27.9765627 C23.6510416,27.9088544 23.8125003,27.8333333 23.9687499,27.75 C24.3645835,28.0833333 24.8203125,28.2447915 25.3359376,28.2343749 C25.8515627,28.2239584 26.2916667,28.0312501 26.6562501,27.6562501 C27.0312501,27.2916667 27.2239584,26.8515627 27.2343749,26.3359376 C27.2447915,25.8203125 27.0833333,25.3645835 26.75,24.9687499 C26.8333333,24.8125003 26.9088544,24.6510416 26.9765627,24.4843749 C27.0442709,24.3177083 27.1041664,24.1510416 27.1562501,23.9843749 C27.6770832,23.9427083 28.1145835,23.7317707 28.4687499,23.3515627 C28.8229168,22.9713541 29,22.5208331 29,22 L29,22 Z M26.4062501,23 C26.3333333,23.3854165 26.2213541,23.7552085 26.0703125,24.1093749 C25.9192709,24.4635419 25.7343749,24.7968752 25.5156251,25.1093749 L25.9531248,25.5312501 C26.1510416,25.7291669 26.25,25.9661456 26.25,26.2421877 C26.25,26.5182293 26.1510416,26.7552085 25.9531248,26.9531248 C25.7552085,27.1510416 25.5182293,27.25 25.2421877,27.25 C24.9661456,27.25 24.7291669,27.1510416 24.5312501,26.9531248 L24.1093749,26.5156251 C23.7968752,26.7343749 23.4635419,26.9192709 23.1093749,27.0703125 C22.7552085,27.2213541 22.3854165,27.3333333 22,27.4062501 L22,28 C22,28.2812501 21.9036459,28.5182293 21.7109376,28.7109376 C21.5182293,28.9036459 21.2812501,29 21,29 C20.7187499,29 20.4817707,28.9036459 20.2890624,28.7109376 C20.0963541,28.5182293 20,28.2812501 20,28 L20,27.4062501 C19.6145835,27.3333333 19.2447915,27.2213541 18.8906251,27.0703125 C18.5364581,26.9192709 18.2031248,26.7343749 17.8906251,26.5156251 L17.4687499,26.9531248 C17.2708331,27.1510416 17.0338544,27.25 16.7578123,27.25 C16.4817707,27.25 16.2447915,27.1510416 16.0468752,26.9531248 C15.8489584,26.7552085 15.75,26.5182293 15.75,26.2421877 C15.75,25.9661456 15.8489584,25.7291669 16.0468752,25.5312501 L16.4843749,25.1093749 C16.2656251,24.7968752 16.0807291,24.4635419 15.9296875,24.1093749 C15.7786459,23.7552085 15.6666667,23.3854165 15.5937499,23 L15,23 C14.7291669,23 14.4947915,22.9036459 14.2968752,22.7109376 C14.0989584,22.5182293 14,22.2812501 14,22 C14,21.7291669 14.0989584,21.4947915 14.2968752,21.2968752 C14.4947915,21.0989584 14.7291669,21 15,21 L15.5937499,21 C15.6666667,20.6145835 15.7786459,20.2447915 15.9296875,19.8906251 C16.0807291,19.5364581 16.2656251,19.2031248 16.4843749,18.8906251 L16.0468752,18.4687499 C15.8489584,18.2708331 15.75,18.0338544 15.75,17.7578123 C15.75,17.4817707 15.8489584,17.2447915 16.0468752,17.0468752 C16.2447915,16.8489584 16.4817707,16.75 16.7578123,16.75 C17.0338544,16.75 17.2708331,16.8489584 17.4687499,17.0468752 L17.8906251,17.4843749 C18.2031248,17.2656251 18.5364581,17.0807291 18.8906251,16.9296875 C19.2447915,16.7786459 19.6145835,16.6718752 20,16.6093749 L20,16 C20,15.7291669 20.0989584,15.4947915 20.2968752,15.2968752 C20.4947915,15.0989584 20.7291669,15 21,15 C21.2708331,15 21.5052085,15.0989584 21.7031248,15.2968752 C21.9010416,15.4947915 22,15.7291669 22,16 L22,16.6093749 C22.3854165,16.6718752 22.7552085,16.7786459 23.1093749,16.9296875 C23.4635419,17.0807291 23.7968752,17.2656251 24.1093749,17.4843749 L24.5312501,17.0468752 C24.7291669,16.8489584 24.9661456,16.75 25.2421877,16.75 C25.5182293,16.75 25.7552085,16.8489584 25.9531248,17.0468752 C26.1510416,17.2447915 26.25,17.4817707 26.25,17.7578123 C26.25,18.0338544 26.1510416,18.2708331 25.9531248,18.4687499 L25.5156251,18.8906251 C25.7343749,19.2031248 25.9192709,19.5364581 26.0703125,19.8906251 C26.2213541,20.2447915 26.3333333,20.6145835 26.4062501,21 L27,21 C27.2812501,21 27.5182293,21.0989584 27.7109376,21.2968752 C27.9036459,21.4947915 28,21.7291669 28,22 C28,22.2812501 27.9036459,22.5182293 27.7109376,22.7109376 C27.5182293,22.9036459 27.2812501,23 27,23 L26.4062501,23 Z M21,19 C20.1666667,19 19.4583333,19.2942709 18.875,19.8828123 C18.2916667,20.4713541 18,21.1770832 18,22 C18,22.8333333 18.2916667,23.5416667 18.875,24.125 C19.4583333,24.7083333 20.1666667,25 21,25 C21.8229168,25 22.5286459,24.7083333 23.1171877,24.125 C23.7057291,23.5416667 24,22.8333333 24,22 C24,21.1770832 23.7057291,20.4713541 23.1171877,19.8828123 C22.5286459,19.2942709 21.8229168,19 21,19 L21,19 Z M21,24 C20.4479168,24 19.9765627,23.8046875 19.5859376,23.4140624 C19.1953125,23.0234373 19,22.5520832 19,22 C19,21.4479168 19.1953125,20.9765627 19.5859376,20.5859376 C19.9765627,20.1953125 20.4479168,20 21,20 C21.5520832,20 22.0234373,20.1953125 22.4140624,20.5859376 C22.8046875,20.9765627 23,21.4479168 23,22 C23,22.5520832 22.8046875,23.0234373 22.4140624,23.4140624 C22.0234373,23.8046875 21.5520832,24 21,24 L21,24 Z"></path>
                    </g>
                </g>
            </g>
        </g>
    </g>
</svg>