<?xml version="1.0" encoding="UTF-8" standalone="no"?>
<svg width="19px" height="16px" viewBox="0 0 19 16" version="1.1" xmlns="http://www.w3.org/2000/svg" xmlns:xlink="http://www.w3.org/1999/xlink" xmlns:sketch="http://www.bohemiancoding.com/sketch/ns">
    <!-- Generator: Sketch 3.3.2 (12043) - http://www.bohemiancoding.com/sketch -->
    <title>icon (share)</title>
    <desc>Created with Sketch.</desc>
    <defs></defs>
    <g stroke="none" stroke-width="1" fill="rgb(0,0,0)" fill-rule="evenodd" sketch:type="MSPage">
        <g sketch:type="MSArtboardGroup" transform="translate(-698.000000, -1387.000000)" fill="#000000">
            <g sketch:type="MSLayerGroup" transform="translate(100.000000, 781.000000)">
                <g transform="translate(355.000000, 70.000000)" sketch:type="MSShapeGroup">
                    <g transform="translate(2.000000, 524.000000)">
                        <path d="M255.857143,21.1428571 C255.202381,21.1428571 254.607143,21.3124998 254.071428,21.6517858 C253.535714,21.9910717 253.125,22.434524 252.839286,22.9821428 L247.767857,20.7321429 C247.803571,20.613095 247.827381,20.4940477 247.839286,20.3749998 C247.85119,20.2559525 247.857143,20.1309525 247.857143,20 C247.857143,19.9166665 247.85119,19.833333 247.839286,19.7500002 C247.827381,19.6666667 247.815476,19.5892858 247.803571,19.5178569 L252.946428,17.2321426 C253.255952,17.7202383 253.66369,18.1130953 254.169643,18.4107142 C254.675595,18.7083331 255.238095,18.8571429 255.857143,18.8571429 C256.797619,18.8571429 257.604167,18.5238095 258.276786,17.8571429 C258.949405,17.1904762 259.285714,16.3809524 259.285714,15.4285714 C259.285714,14.4880951 258.949405,13.6815476 258.276786,13.0089283 C257.604167,12.3363096 256.797619,12 255.857143,12 C254.916667,12 254.110119,12.3363096 253.4375,13.0089283 C252.764881,13.6815476 252.428571,14.4880951 252.428571,15.4285714 C252.428571,15.559524 252.434524,15.6845239 252.446429,15.8035712 C252.458333,15.9226191 252.47619,16.0416664 252.5,16.1607144 L247.446429,18.4107142 C247.160714,17.8630955 246.75,17.4196431 246.214286,17.0803572 C245.678571,16.7410712 245.083333,16.5714286 244.428571,16.5714286 C243.47619,16.5714286 242.666667,16.9077382 242,17.5803569 C241.333333,18.2529762 241,19.0595237 241,20 C241,20.952381 241.333333,21.7619048 242,22.4285714 C242.666667,23.0952381 243.47619,23.4285714 244.428571,23.4285714 C245.047619,23.4285714 245.610119,23.2797617 246.116072,22.9821428 C246.622024,22.6845239 247.029762,22.2916669 247.339286,21.8035712 L252.482143,24.0892855 C252.470238,24.1607144 252.458333,24.2380952 252.446429,24.3214287 C252.434524,24.4047616 252.428571,24.4880951 252.428571,24.5714286 C252.428571,25.5238095 252.764881,26.3333333 253.4375,27 C254.110119,27.6666667 254.916667,28 255.857143,28 C256.797619,28 257.604167,27.6666667 258.276786,27 C258.949405,26.3333333 259.285714,25.5238095 259.285714,24.5714286 C259.285714,23.6309522 258.949405,22.8244047 258.276786,22.1517854 C257.604167,21.4791668 256.797619,21.1428571 255.857143,21.1428571 L255.857143,21.1428571 Z M255.857143,13.1428571 C256.488095,13.1428571 257.026786,13.3660715 257.473214,13.8125001 C257.919643,14.2589288 258.142857,14.7976192 258.142857,15.4285714 C258.142857,16.0595237 257.919643,16.5982141 257.473214,17.0446427 C257.026786,17.4910714 256.488095,17.7142857 255.857143,17.7142857 C255.226191,17.7142857 254.6875,17.4910714 254.241072,17.0446427 C253.794643,16.5982141 253.571429,16.0595237 253.571429,15.4285714 C253.571429,14.7976192 253.794643,14.2589288 254.241072,13.8125001 C254.6875,13.3660715 255.226191,13.1428571 255.857143,13.1428571 L255.857143,13.1428571 Z M244.428571,22.2857143 C243.797619,22.2857143 243.258929,22.0625 242.8125,21.6160713 C242.366071,21.1696427 242.142857,20.6309522 242.142857,20 C242.142857,19.3690478 242.366071,18.8303573 242.8125,18.3839287 C243.258929,17.9375 243.797619,17.7142857 244.428571,17.7142857 C245.059524,17.7142857 245.598214,17.9375 246.044643,18.3839287 C246.491071,18.8303573 246.714286,19.3690478 246.714286,20 C246.714286,20.6309522 246.491071,21.1696427 246.044643,21.6160713 C245.598214,22.0625 245.059524,22.2857143 244.428571,22.2857143 L244.428571,22.2857143 Z M255.857143,26.8571429 C255.226191,26.8571429 254.6875,26.6339285 254.241072,26.1874999 C253.794643,25.7410712 253.571429,25.2023808 253.571429,24.5714286 C253.571429,23.9404763 253.794643,23.4017859 254.241072,22.9553573 C254.6875,22.5089286 255.226191,22.2857143 255.857143,22.2857143 C256.488095,22.2857143 257.026786,22.5089286 257.473214,22.9553573 C257.919643,23.4017859 258.142857,23.9404763 258.142857,24.5714286 C258.142857,25.2023808 257.919643,25.7410712 257.473214,26.1874999 C257.026786,26.6339285 256.488095,26.8571429 255.857143,26.8571429 L255.857143,26.8571429 Z"></path>
                    </g>
                </g>
            </g>
        </g>
    </g>
</svg>