<?xml version="1.0" encoding="UTF-8" standalone="no"?>
<svg width="16px" height="16px" viewBox="0 0 16 16" version="1.1" xmlns="http://www.w3.org/2000/svg" xmlns:xlink="http://www.w3.org/1999/xlink" xmlns:sketch="http://www.bohemiancoding.com/sketch/ns">
    <!-- Generator: Sketch 3.3.2 (12043) - http://www.bohemiancoding.com/sketch -->
    <title>icon (sources)</title>
    <desc>Created with Sketch.</desc>
    <defs></defs>
    <g stroke="none" stroke-width="1" fill="rgb(0,0,0)" fill-rule="evenodd" sketch:type="MSPage">
        <g sketch:type="MSArtboardGroup" transform="translate(-1265.000000, -1336.000000)" fill="rgb(0,0,0)">
            <g sketch:type="MSLayerGroup" transform="translate(100.000000, 1175.000000)">
                <g transform="translate(1148.000000, 91.000000)" sketch:type="MSShapeGroup">
                    <g transform="translate(17.000000, 29.000000)">
                        <path d="M8,41 C6.8958336,41 5.85677067,41.2109376 4.88281227,41.6328123 C3.9088544,42.0546875 3.059896,42.6276043 2.3359376,43.3515627 C1.6119792,44.0755211 1.04166667,44.9218752 0.625,45.8906251 C0.208333333,46.8593749 0,47.8958336 0,49 C0,50.1041664 0.208333333,51.1432293 0.625,52.1171877 C1.04166667,53.0911456 1.6119792,53.940104 2.3359376,54.6640624 C3.059896,55.3880208 3.9088544,55.9583333 4.88281227,56.375 C5.85677067,56.7916667 6.8958336,57 8,57 C9.1041664,57 10.1432293,56.7916667 11.1171877,56.375 C12.0911456,55.9583333 12.940104,55.3880208 13.6640624,54.6640624 C14.3880208,53.940104 14.9583333,53.0911456 15.375,52.1171877 C15.7916667,51.1432293 16,50.1041664 16,49 C16,47.8958336 15.7916667,46.8593749 15.375,45.8906251 C14.9583333,44.9218752 14.3880208,44.0755211 13.6640624,43.3515627 C12.940104,42.6276043 12.0911456,42.0546875 11.1171877,41.6328123 C10.1432293,41.2109376 9.1041664,41 8,41 L8,41 Z M6,49 L10,49 C10,49.5520832 9.98177067,50.0885419 9.94531253,50.6093749 C9.9088544,51.1302085 9.85937493,51.625 9.7968752,52.0937499 C9.50520853,52.0625003 9.2109376,52.0390624 8.9140624,52.0234373 C8.61718773,52.0078123 8.31250027,52 8,52 C7.68749973,52 7.38281227,52.0078123 7.0859376,52.0234373 C6.7890624,52.0390624 6.49479147,52.0625003 6.2031248,52.0937499 C6.14062507,51.625 6.0911456,51.1302085 6.05468747,50.6093749 C6.01822933,50.0885419 6,49.5520832 6,49 L6,49 Z M6.01562507,48 C6.03645813,47.6354165 6.06250027,47.2786459 6.09374987,46.9296875 C6.125,46.5807291 6.16145813,46.2395835 6.2031248,45.9062501 C6.49479147,45.9374997 6.7890624,45.9609376 7.0859376,45.9765627 C7.38281227,45.9921877 7.68749973,46 8,46 C8.31250027,46 8.61718773,45.9921877 8.9140624,45.9765627 C9.2109376,45.9609376 9.50520853,45.9374997 9.7968752,45.9062501 C9.83854187,46.2395835 9.875,46.5807291 9.90625013,46.9296875 C9.93749973,47.2786459 9.96354187,47.6354165 9.98437493,48 L6.01562507,48 Z M13.6874997,44.9531248 C14,45.3906251 14.2630208,45.8671877 14.4765627,46.3828123 C14.690104,46.8984373 14.8333333,47.4374997 14.9062501,48 L10.9687499,48 C10.9583333,47.6145835 10.9322917,47.2369792 10.8906251,46.8671877 C10.8489584,46.4973957 10.8020832,46.1406251 10.75,45.7968752 C11.3437499,45.7031248 11.8880208,45.5859376 12.3828123,45.4453125 C12.8776043,45.3046875 13.3125003,45.1406251 13.6874997,44.9531248 L13.6874997,44.9531248 Z M15,49 C15,49.75 14.8854165,50.4661456 14.6562501,51.1484373 C14.4270832,51.8307291 14.1093749,52.4531248 13.7031248,53.0156251 C13.3281248,52.8385419 12.8906251,52.6796875 12.3906251,52.5390624 C11.8906251,52.3984373 11.3437499,52.2864581 10.75,52.2031248 C10.8333333,51.7135419 10.8958336,51.2005211 10.9374997,50.6640624 C10.9791669,50.1276043 11,49.5729168 11,49 L15,49 Z M13.3281248,44.5 L12.4687499,44.5 C12.1979168,44.5729168 11.9036459,44.6406251 11.5859376,44.7031248 C11.2682293,44.7656251 10.9270832,44.8177083 10.5625003,44.8593749 C10.4374997,44.3177083 10.2916667,43.8203125 10.125,43.3671877 C9.95833333,42.9140624 9.77083307,42.5208331 9.56250027,42.1874997 C10.3125003,42.3541664 11.0078123,42.6380208 11.6484373,43.0390624 C12.2890624,43.440104 12.8489584,43.9270832 13.3281248,44.5 L13.3281248,44.5 Z M8,42 C8.33333333,42 8.64322933,42.2682293 8.92968747,42.8046875 C9.2161456,43.3411456 9.4479168,44.0520832 9.625,44.9374997 C9.36458347,44.9583333 9.0989584,44.9739584 8.8281248,44.9843749 C8.55729173,44.9947915 8.28125013,45 8,45 C7.71874987,45 7.44270827,44.9947915 7.1718752,44.9843749 C6.9010416,44.9739584 6.63541653,44.9583333 6.375,44.9374997 C6.5520832,44.0520832 6.7838544,43.3411456 7.07031253,42.8046875 C7.35677067,42.2682293 7.66666667,42 8,42 L8,42 Z M6.43749973,42.1874997 C6.22916693,42.5208331 6.04166667,42.9140624 5.875,43.3671877 C5.70833333,43.8203125 5.56250027,44.3177083 5.43749973,44.8593749 C5.0729168,44.8177083 4.73177067,44.7656251 4.4140624,44.7031248 C4.09635413,44.6406251 3.8020832,44.5729168 3.53125013,44.5 L2.6718752,44.5 C3.1510416,43.9374997 3.7109376,43.4531248 4.35156267,43.0468752 C4.99218773,42.6406251 5.68749973,42.3541664 6.43749973,42.1874997 L6.43749973,42.1874997 Z M2.31250027,44.9531248 C2.68749973,45.1406251 3.12239573,45.3046875 3.61718773,45.4453125 C4.1119792,45.5859376 4.66145813,45.7031248 5.26562507,45.7968752 C5.2031248,46.1406251 5.1510416,46.4973957 5.10937493,46.8671877 C5.06770827,47.2369792 5.04166667,47.6145835 5.03125013,48 L1.09374987,48 C1.16666667,47.4374997 1.309896,46.8984373 1.52343733,46.3828123 C1.7369792,45.8671877 2,45.3906251 2.31250027,44.9531248 L2.31250027,44.9531248 Z M5,49 C5,49.5729168 5.02343733,50.1276043 5.07031253,50.6640624 C5.11718773,51.2005211 5.1770832,51.7135419 5.25,52.2031248 C4.65625013,52.2864581 4.10937493,52.3984373 3.60937493,52.5390624 C3.10937493,52.6796875 2.6718752,52.8385419 2.2968752,53.0156251 C1.89062507,52.4531248 1.5729168,51.8307291 1.34374987,51.1484373 C1.11458347,50.4661456 1,49.75 1,49 L5,49 Z M2.65625013,53.5 L3.46874987,53.5 C3.73958347,53.4270832 4.04166667,53.3593749 4.375,53.2968752 C4.70833333,53.2343749 5.06250027,53.1822917 5.43749973,53.1406251 C5.56250027,53.6822917 5.70833333,54.1822917 5.875,54.6406251 C6.04166667,55.0989584 6.22916693,55.4947915 6.43749973,55.8281248 C5.68749973,55.6510416 4.98958347,55.3619792 4.34374987,54.9609376 C3.6979168,54.559896 3.13541653,54.0729168 2.65625013,53.5 L2.65625013,53.5 Z M8,56 C7.66666667,56 7.35677067,55.7317707 7.07031253,55.1953125 C6.7838544,54.6588544 6.5520832,53.9479168 6.375,53.0625003 C6.63541653,53.0416667 6.9010416,53.0260416 7.1718752,53.0156251 C7.44270827,53.0052085 7.71874987,53 8,53 C8.28125013,53 8.55729173,53.0052085 8.8281248,53.0156251 C9.0989584,53.0260416 9.36458347,53.0416667 9.625,53.0625003 C9.4479168,53.9479168 9.2161456,54.6588544 8.92968747,55.1953125 C8.64322933,55.7317707 8.33333333,56 8,56 L8,56 Z M9.56250027,55.8125003 C9.77083307,55.4895835 9.95833333,55.0989584 10.125,54.6406251 C10.2916667,54.1822917 10.4374997,53.6822917 10.5625003,53.1406251 C10.9374997,53.1822917 11.2916667,53.2343749 11.625,53.2968752 C11.9583333,53.3593749 12.2604165,53.4270832 12.5312501,53.5 L13.3437499,53.5 C12.8645835,54.0729168 12.3020832,54.559896 11.6562501,54.9609376 C11.0104165,55.3619792 10.3125003,55.6458336 9.56250027,55.8125003 L9.56250027,55.8125003 Z"></path>
                    </g>
                </g>
            </g>
        </g>
    </g>
</svg>