<?xml version="1.0" encoding="utf-8"?>
<svg xmlns="http://www.w3.org/2000/svg"
	xmlns:xlink="http://www.w3.org/1999/xlink"
	width="16px" height="14px">
<path fill="rgb(0,0,0)" fill-rule="evenodd" d="M 13.09 13.78C 12.97 13.92 12.81 13.99 12.65 13.99 12.48 13.99 12.32 13.92 12.19 13.77 11.95 13.49 11.95 13.04 12.2 12.76 13.96 10.81 14.81 8.79 14.73 6.74 14.6 3.54 12.25 1.31 12.23 1.29 11.96 1.04 11.92 0.59 12.14 0.28 12.37-0.02 12.76-0.06 13.03 0.19 13.15 0.29 15.84 2.85 15.99 6.68 16.09 9.14 15.11 11.53 13.09 13.78ZM 11.27 10.77C 11.13 10.91 10.94 10.99 10.75 10.99 10.56 10.99 10.37 10.91 10.22 10.76 9.93 10.45 9.93 9.96 10.23 9.66 11.12 8.75 11.55 7.82 11.52 6.89 11.45 5.45 10.28 4.41 10.27 4.4 9.95 4.13 9.91 3.64 10.17 3.31 10.43 2.98 10.9 2.93 11.22 3.2 11.29 3.26 12.91 4.68 13 6.82 13.06 8.21 12.48 9.53 11.27 10.77ZM 0 10C 0 10 0 4 0 4 0 4 5 4 5 4 5 4 9 1 9 1 9 1 9 13 9 13 9 13 5 10 5 10 5 10 0 10 0 10Z"/>
</svg>