<?xml version="1.0" encoding="utf-8"?>
<svg xmlns="http://www.w3.org/2000/svg"
	xmlns:xlink="http://www.w3.org/1999/xlink"
	width="13px" height="14px">
<path fill="rgb(0,0,0)" fill-rule="evenodd" d="M 10.01 14C 10.01 14 10.01-0 10.01-0 10.01-0 13-0 13-0 13-0 13 14 13 14 13 14 10.01 14 10.01 14ZM 4.99 4.01C 4.99 4.01 8.01 4.01 8.01 4.01 8.01 4.01 8.01 14 8.01 14 8.01 14 4.99 14 4.99 14 4.99 14 4.99 4.01 4.99 4.01ZM-0 8.01C-0 8.01 2.99 8.01 2.99 8.01 2.99 8.01 2.99 14 2.99 14 2.99 14-0 14-0 14-0 14-0 8.01-0 8.01Z"/>
</svg>