<?xml version="1.0" encoding="utf-8"?>
<svg xmlns="http://www.w3.org/2000/svg"
	xmlns:xlink="http://www.w3.org/1999/xlink"
	width="15px" height="14px">
<path fill="rgb(0,0,0)" fill-rule="evenodd" d="M 14.43 7.82C 14.42 7.83 14.41 7.83 14.4 7.84 14.55 8.03 14.69 8.3 14.69 8.66 14.69 9.21 14.38 9.59 14 9.81 14.16 10.03 14.24 10.3 14.24 10.61 14.24 11.01 14.1 11.5 13.51 11.8 13.62 12.02 13.69 12.29 13.63 12.65 13.54 13.32 12.76 14 11.48 14 11.48 14 6.05 14 6.05 14 5.52 14 5.1 13.73 5 13.33 5 13.33 4.99 13.29 4.99 13.29 4.99 13.29 4.99 6.53 4.99 6.53 4.99 6.23 5.04 6.14 5.06 6.1 5.06 6.1 5.07 6.08 5.07 6.08 5.2 5.87 5.33 5.67 5.46 5.48 6.58 3.73 6.96 3.15 6.89 2.07 6.82 0.91 6.96 0.12 7.89 0.01 7.94 0.01 8 0 8.05 0 8.31 0 8.82 0.08 9.28 0.56 9.72 1.02 9.99 1.74 10.07 2.7 10.14 3.41 10.18 4.39 10 5 11.02 5 13.3 5.18 13.61 5.18 14.28 5.18 15 5.64 15 6.67 15 7.3 14.69 7.64 14.43 7.82ZM 3 14C 3 14 2 14 2 14 1.48 14 1.07 13.56 1 13 1 13-0 7-0 7 0.02 7.15 0.26 6 1 6 1 6 3 6 3 6 3 6 4 6.05 4 7 4 7 4 13 4 13 4 13.63 3.58 14 3 14Z"/>
</svg>