<?xml version="1.0" encoding="UTF-8" standalone="no"?>
<svg width="13px" height="16px" viewBox="0 0 13 16" version="1.1" xmlns="http://www.w3.org/2000/svg" xmlns:xlink="http://www.w3.org/1999/xlink" xmlns:sketch="http://www.bohemiancoding.com/sketch/ns">
    <!-- Generator: Sketch 3.3.2 (12043) - http://www.bohemiancoding.com/sketch -->
    <title>icon (trash)</title>
    <desc>Created with Sketch.</desc>
    <defs></defs>
    <g stroke="none" stroke-width="1" fill="rgb(0,0,0)" fill-rule="evenodd" sketch:type="MSPage">
        <g sketch:type="MSArtboardGroup" transform="translate(-1427.000000, -1165.000000)" fill="rgb(0,0,0)">
            <g sketch:type="MSLayerGroup" transform="translate(200.000000, 1044.000000)">
                <g transform="translate(402.000000, 120.000000)" sketch:type="MSShapeGroup">
                    <g>
                        <path d="M829,15 L829.992,15 L829.992,7.992 L829,7.992 L829,15 Z M833,15 L833.992,15 L833.992,7.992 L833,7.992 L833,15 Z M831,15 L831.992,15 L831.992,7.992 L831,7.992 L831,15 Z M837,3 L833.992,3 L833.992,1.496 C833.992,1.35733333 833.944,1.24 833.848,1.144 C833.752,1.048 833.634667,1 833.496,1 L829.496,1 C829.357333,1 829.24,1.048 829.144,1.144 C829.048,1.24 829,1.35733333 829,1.496 L829,3 L825.992,3 C825.714667,3.01066667 825.482667,3.10933333 825.296,3.296 C825.109333,3.48266667 825.010667,3.71466667 825,3.992 L825,5 C825.010667,5.27733333 825.109333,5.50933333 825.296,5.696 C825.482667,5.88266667 825.714667,5.98133333 825.992,5.992 L825.992,16.008 C826.002667,16.2853333 826.101333,16.5173333 826.288,16.704 C826.474667,16.8906667 826.712,16.9893333 827,17 L835.992,17 C836.28,16.9893333 836.517333,16.8906667 836.704,16.704 C836.890667,16.5173333 836.989333,16.2853333 837,16.008 L837,5.992 C837.277333,5.98133333 837.509333,5.88266667 837.696,5.696 C837.882667,5.50933333 837.981333,5.27733333 837.992,5 L837.992,3.992 C837.981333,3.71466667 837.882667,3.48266667 837.696,3.296 C837.509333,3.10933333 837.277333,3.01066667 837,3 L837,3 Z M829.992,1.992 L833,1.992 L833,3 L829.992,3 L829.992,1.992 Z M835.992,6.504 L835.992,7 L835.992,15.496 C835.992,15.6346667 835.944,15.7546667 835.848,15.856 C835.752,15.9573333 835.634667,16.008 835.496,16.008 L827.496,16.008 C827.357333,16.008 827.24,15.9573333 827.144,15.856 C827.048,15.7546667 827,15.6346667 827,15.496 L827,5.992 L835.992,5.992 L835.992,6.504 Z M836.488,5 L835.992,5 L826.488,5 C826.349333,5 826.232,4.952 826.136,4.856 C826.04,4.76 825.992,4.64 825.992,4.496 C825.992,4.352 826.04,4.232 826.136,4.136 C826.232,4.04 826.349333,3.992 826.488,3.992 L836.488,3.992 C836.637333,3.992 836.76,4.04 836.856,4.136 C836.952,4.232 837,4.352 837,4.496 C837,4.64 836.952,4.76 836.856,4.856 C836.76,4.952 836.637333,5 836.488,5 L836.488,5 Z"></path>
                    </g>
                </g>
            </g>
        </g>
    </g>
</svg>