<?xml version="1.0" encoding="UTF-8" standalone="no"?>
<svg width="19px" height="19px" viewBox="0 0 19 19" version="1.1" xmlns="http://www.w3.org/2000/svg" xmlns:xlink="http://www.w3.org/1999/xlink" xmlns:sketch="http://www.bohemiancoding.com/sketch/ns">
    <!-- Generator: Sketch 3.3.2 (12043) - http://www.bohemiancoding.com/sketch -->
    <title>icon (share on twitter)</title>
    <desc>Created with Sketch.</desc>
    <defs></defs>
    <g stroke="none" stroke-width="1" fill="none" fill-rule="evenodd" sketch:type="MSPage">
        <g sketch:type="MSArtboardGroup" transform="translate(-835.000000, -1302.000000)" fill="#45B0E6">
            <g sketch:type="MSLayerGroup" transform="translate(100.000000, 1175.000000)">
                <g transform="translate(719.000000, 91.000000)" sketch:type="MSShapeGroup">
                    <g transform="translate(1.000000, 36.000000)">
                        <path d="M30.8333336,5.96223963 C30.4869791,6.49414073 30.0416668,6.95182275 29.5345051,7.31054697 C29.5468749,7.42187523 29.5468749,7.53320349 29.5468749,7.64453101 C29.5468749,11.0833336 26.9244793,15.0416668 22.1497398,15.0416668 C20.6777345,15.0416668 19.3170574,14.6087242 18.1666664,13.8789061 C18.3645835,13.9036462 18.5748695,13.916016 18.7851563,13.916016 C20.0097657,13.916016 21.1230468,13.4954431 22.0136721,12.8027349 C20.8756508,12.7779947 19.9231769,12.0234378 19.5891928,10.9967448 C19.75,11.0214842 19.9108072,11.0462244 20.0716143,11.0462244 C20.3066405,11.0462244 20.4798174,11.0091145 20.7024739,10.9472659 C19.5149738,10.7122396 18.5624998,9.66080716 18.5624998,8.39908862 L18.5624998,8.37434918 C18.9583332,8.55989578 19.3665363,8.68359376 19.7994789,8.69596349 C19.0944009,8.22591175 18.6738281,7.43424496 18.6738281,6.53124991 C18.6738281,6.06119817 18.8098958,5.60351541 19.0325523,5.22005248 C20.3190103,6.80338532 22.2363279,7.83007835 24.4010415,7.94140661 C24.3515626,7.75585927 24.3391928,7.54557321 24.3391928,7.34765615 C24.3391928,5.91276074 25.5019536,4.75 26.936849,4.75 C27.6790369,4.75 28.3593754,5.05924459 28.8294272,5.56640624 C29.4231776,5.45507798 29.9798182,5.2324222 30.4869791,4.9355466 C30.2890628,5.54166679 29.8808596,6.06119817 29.3365888,6.38281248 C29.8684899,6.30859413 30.3632818,6.17252642 30.8333336,5.96223963 L30.8333336,5.96223963 Z M34,3.56249982 C34,1.5957033 32.4042974,0 30.4375002,0 L18.5624998,0 C16.5957033,0 15,1.5957033 15,3.56249982 L15,15.4375002 C15,17.4042974 16.5957033,19 18.5624998,19 L30.4375002,19 C32.4042974,19 34,17.4042974 34,15.4375002 L34,3.56249982 Z"></path>
                    </g>
                </g>
            </g>
        </g>
    </g>
</svg>