<?xml version="1.0" encoding="UTF-8" standalone="no"?>
<svg width="16px" height="15px" viewBox="0 0 16 15" version="1.1" xmlns="http://www.w3.org/2000/svg" xmlns:xlink="http://www.w3.org/1999/xlink" xmlns:sketch="http://www.bohemiancoding.com/sketch/ns">
    <!-- Generator: Sketch 3.3.2 (12043) - http://www.bohemiancoding.com/sketch -->
    <title>icon (upload)</title>
    <desc>Created with Sketch.</desc>
    <defs></defs>
    <g stroke="none" stroke-width="1" fill="rgb(0,0,0)" fill-rule="evenodd" sketch:type="MSPage">
        <g sketch:type="MSArtboardGroup" transform="translate(-1265.000000, -1369.000000)" fill="rgb(0,0,0)">
            <g sketch:type="MSLayerGroup" transform="translate(100.000000, 1175.000000)">
                <g transform="translate(1148.000000, 91.000000)" sketch:type="MSShapeGroup">
                    <g transform="translate(17.000000, 29.000000)">
                        <path d="M11.7721736,83.6874997 C11.8652342,83.5833333 11.9117647,83.4609376 11.9117647,83.3203125 C11.9117647,83.1796875 11.8652342,83.0625003 11.7721736,82.9687499 L8.80974265,79.875 L8.80974265,79.8671877 C8.80974265,79.8619792 8.80457241,79.8593749 8.79423247,79.8593749 L8.79423247,79.8515627 L8.79423247,79.8437499 C8.79423247,79.8333333 8.79164735,79.8281248 8.78647765,79.8281248 L8.76321212,79.8281248 C8.72185182,79.7864581 8.67532182,79.7552085 8.62362106,79.7343749 C8.57192082,79.7135419 8.52022059,79.7031248 8.46852035,79.7031248 C8.45817988,79.7031248 8.45301018,79.7005211 8.45301018,79.6953125 C8.45301018,79.690104 8.44783994,79.6874997 8.4375,79.6874997 L8.4375,79.6874997 C8.42716006,79.6874997 8.41940471,79.690104 8.414235,79.6953125 C8.40906476,79.7005211 8.40647965,79.7031248 8.40647965,79.7031248 C8.35477941,79.7031248 8.30824888,79.7135419 8.26688859,79.7343749 C8.22552829,79.7552085 8.184168,79.7812501 8.14280771,79.8125003 C8.13246776,79.8229168 8.12212782,79.8281248 8.11178788,79.8281248 C8.10144741,79.8281248 8.09110747,79.8333333 8.08076753,79.8437499 C8.08076753,79.8437499 8.07818241,79.8489584 8.07301218,79.8593749 C8.06784247,79.8697915 8.06525735,79.8802085 8.06525735,79.8906251 L8.05750253,79.8906251 L8.04974718,79.8906251 L5.10282635,82.9687499 C5.00976582,83.0625003 4.96323529,83.1796875 4.96323529,83.3203125 C4.96323529,83.4609376 5.00976582,83.5833333 5.10282635,83.6874997 C5.19588688,83.7812501 5.30962782,83.8281248 5.44404865,83.8281248 C5.57846947,83.8281248 5.69221041,83.7812501 5.78527094,83.6874997 L7.94117647,81.4374997 L7.94117647,88.4843749 C7.94117647,88.6302085 7.99029159,88.7526043 8.08852235,88.8515627 C8.18675312,88.9505211 8.30307918,89 8.4375,89 C8.57192082,89 8.68824688,88.9505211 8.78647765,88.8515627 C8.88470841,88.7526043 8.93382353,88.6302085 8.93382353,88.4843749 L8.93382353,81.4374997 L11.0897291,83.6874997 C11.1827896,83.7812501 11.2965305,83.8281248 11.4309514,83.8281248 C11.5653722,83.8281248 11.6791131,83.7812501 11.7721736,83.6874997 L11.7721736,83.6874997 Z M12.1754366,77.2187499 C12.0306754,76.75 11.8212893,76.3203125 11.5472769,75.9296875 C11.273265,75.5390624 10.9527231,75.2005211 10.5856502,74.9140624 C10.2185778,74.6276043 9.81014453,74.4036459 9.36035153,74.2421877 C8.91055853,74.0807291 8.4375,74 7.94117647,74 C7.40349265,74 6.89165894,74.0937499 6.40567535,74.2812501 C5.91969229,74.4687499 5.48540894,74.7291669 5.10282635,75.0625003 C4.72024376,75.3958336 4.39453112,75.7890624 4.12568947,76.2421877 C3.85684729,76.6953125 3.67072624,77.1874997 3.56732524,77.7187499 C3.06066176,77.8229168 2.59018835,78.0156251 2.15590553,78.2968752 C1.72162218,78.5781248 1.34420929,78.9192709 1.02366741,79.3203125 C0.703125,79.7213541 0.452378118,80.1744789 0.271426765,80.6796875 C0.0904754118,81.184896 0,81.7187499 0,82.2812501 C0,82.9166667 0.116326059,83.5182293 0.348977647,84.0859376 C0.581629235,84.6536459 0.899586529,85.1484373 1.30284953,85.5703125 C1.706112,85.9921877 2.17917053,86.3255211 2.72202459,86.5703125 C3.26487812,86.815104 3.84650735,86.9374997 4.46691176,86.9374997 L4.77711424,86.9374997 L4.96323529,86.9374997 L5.95588235,86.9374997 L5.95588235,85.8906251 L4.46691176,85.8906251 C3.99126812,85.8906251 3.54147512,85.7968752 3.11753224,85.6093749 C2.69358935,85.4218752 2.32393129,85.1640624 2.00855912,84.8359376 C1.69318694,84.5078123 1.44502518,84.125 1.26407382,83.6874997 C1.08312247,83.25 0.992647059,82.7812501 0.992647059,82.2812501 C0.992647059,81.7812501 1.08312247,81.309896 1.26407382,80.8671877 C1.44502518,80.4244789 1.69318694,80.0390624 2.00855912,79.7109376 C2.32393129,79.3828123 2.69358935,79.125 3.11753224,78.9374997 C3.54147512,78.75 3.99126812,78.6562501 4.46691176,78.6562501 C4.46691176,78.1562501 4.55738718,77.6874997 4.73833853,77.25 C4.91928988,76.8125003 5.16745165,76.4296875 5.48282382,76.1015627 C5.798196,75.7734373 6.16785406,75.5130208 6.59179694,75.3203125 C7.01573982,75.1276043 7.46553282,75.0312501 7.94117647,75.0312501 C8.37545929,75.0312501 8.78906224,75.1119792 9.18198529,75.2734373 C9.57490835,75.434896 9.92388547,75.6562501 10.2289177,75.9374997 C10.5339499,76.2187499 10.7846968,76.5494789 10.9811584,76.9296875 C11.1776194,77.309896 11.3068705,77.7187499 11.3689106,78.1562501 C11.8548942,78.1874997 12.3124426,78.3072917 12.7415557,78.5156251 C13.1706688,78.7239584 13.5454966,79.0026043 13.8660385,79.3515627 C14.1865809,79.7005211 14.4373278,80.1015627 14.6182791,80.5546875 C14.7992305,81.0078123 14.8897059,81.4947915 14.8897059,82.0156251 C14.8897059,82.5260416 14.7992305,83.0078123 14.6182791,83.4609376 C14.4373278,83.9140624 14.1917511,84.315104 13.8815486,84.6640624 C13.5713467,85.0130208 13.2042738,85.2942709 12.7803309,85.5078123 C12.356388,85.7213541 11.9014248,85.8437499 11.4154412,85.875 L10.9191176,85.8906251 L10.9191176,86.9062501 C10.9604779,86.9062501 11.0018382,86.9114581 11.0431985,86.9218752 C11.0845588,86.9322917 11.1259191,86.9374997 11.1672794,86.9374997 C11.8187042,86.9374997 12.4313532,86.8072917 13.0052276,86.5468752 C13.5791015,86.2864581 14.0780102,85.934896 14.5019531,85.4921877 C14.9258959,85.0494789 15.2619485,84.5286459 15.5101103,83.9296875 C15.7582721,83.3307291 15.8823529,82.6927083 15.8823529,82.0156251 C15.8823529,81.4322917 15.7892924,80.875 15.6031708,80.3437499 C15.4170498,79.8125003 15.1585475,79.3359376 14.8276652,78.9140624 C14.4967828,78.4921877 14.1038603,78.1354165 13.6488971,77.8437499 C13.1939338,77.5520832 12.7027805,77.3437499 12.1754366,77.2187499 L12.1754366,77.2187499 Z"></path>
                    </g>
                </g>
            </g>
        </g>
    </g>
</svg>