<svg width="30.000000" height="28.125000" viewBox="0.000000 -54.375000 30.000000 28.125000" xmlns="http://www.w3.org/2000/svg"><path d="M29.736328 -35.361328C29.560547 -35.537109 29.345703 -35.625000 29.091797 -35.625000C28.837891 -35.625000 28.623047 -35.537109 28.447266 -35.361328L23.437500 -30.322266L22.148438 -31.611328C21.972656 -31.787109 21.762695 -31.875000 21.518555 -31.875000C21.274414 -31.875000 21.064453 -31.787109 20.888672 -31.611328C20.712891 -31.435547 20.625000 -31.220703 20.625000 -30.966797C20.625000 -30.712891 20.712891 -30.498047 20.888672 -30.322266L22.617188 -28.593750C22.636719 -28.554688 22.656250 -28.520508 22.675781 -28.491211C22.695312 -28.461914 22.724609 -28.427734 22.763672 -28.388672C22.861328 -28.291016 22.968750 -28.222656 23.085938 -28.183594C23.203125 -28.144531 23.320312 -28.125000 23.437500 -28.125000C23.554688 -28.125000 23.671875 -28.144531 23.789062 -28.183594C23.906250 -28.222656 24.013672 -28.291016 24.111328 -28.388672C24.130859 -28.427734 24.150391 -28.461914 24.169922 -28.491211C24.189453 -28.520508 24.208984 -28.554688 24.228516 -28.593750L29.736328 -34.072266C29.912109 -34.248047 30.000000 -34.462891 30.000000 -34.716797C30.000000 -34.970703 29.912109 -35.185547 29.736328 -35.361328ZM18.750000 -37.148438C18.339844 -37.441406 17.915039 -37.709961 17.475586 -37.954102C17.036133 -38.198242 16.582031 -38.408203 16.113281 -38.583984C17.460938 -39.306641 18.549805 -40.317383 19.379883 -41.616211C20.209961 -42.915039 20.625000 -44.355469 20.625000 -45.937500C20.625000 -47.109375 20.395508 -48.203125 19.936523 -49.218750C19.477539 -50.234375 18.847656 -51.127930 18.046875 -51.899414C17.246094 -52.670898 16.308594 -53.276367 15.234375 -53.715820C14.160156 -54.155273 13.007812 -54.375000 11.777344 -54.375000C10.566406 -54.375000 9.467773 -54.165039 8.481445 -53.745117C7.495117 -53.325195 6.650391 -52.749023 5.947266 -52.016602C5.244141 -51.284180 4.702148 -50.434570 4.321289 -49.467773C3.940430 -48.500977 3.750000 -47.460938 3.750000 -46.347656C3.750000 -45.585938 3.818359 -44.824219 3.955078 -44.062500C4.091797 -43.300781 4.306641 -42.573242 4.599609 -41.879883C4.892578 -41.186523 5.273438 -40.551758 5.742188 -39.975586C6.210938 -39.399414 6.787109 -38.935547 7.470703 -38.583984C6.376953 -38.173828 5.371094 -37.622070 4.453125 -36.928711C3.535156 -36.235352 2.749023 -35.434570 2.094727 -34.526367C1.440430 -33.618164 0.927734 -32.622070 0.556641 -31.538086C0.185547 -30.454102 0.000000 -29.316406 0.000000 -28.125000L0.000000 -26.250000L1.962891 -26.250000L1.962891 -28.125000C1.962891 -29.414062 2.221680 -30.629883 2.739258 -31.772461C3.256836 -32.915039 3.959961 -33.911133 4.848633 -34.760742C5.737305 -35.610352 6.777344 -36.279297 7.968750 -36.767578C9.160156 -37.255859 10.429688 -37.500000 11.777344 -37.500000C13.105469 -37.500000 14.375000 -37.241211 15.585938 -36.723633C16.796875 -36.206055 17.841797 -35.546875 18.720703 -34.746094ZM5.625000 -45.937500C5.625000 -46.835938 5.795898 -47.685547 6.137695 -48.486328C6.479492 -49.287109 6.948242 -49.985352 7.543945 -50.581055C8.139648 -51.176758 8.837891 -51.645508 9.638672 -51.987305C10.439453 -52.329102 11.289062 -52.500000 12.187500 -52.500000C13.085938 -52.500000 13.935547 -52.329102 14.736328 -51.987305C15.537109 -51.645508 16.235352 -51.176758 16.831055 -50.581055C17.426758 -49.985352 17.895508 -49.287109 18.237305 -48.486328C18.579102 -47.685547 18.750000 -46.835938 18.750000 -45.937500C18.750000 -45.039062 18.579102 -44.189453 18.237305 -43.388672C17.895508 -42.587891 17.426758 -41.889648 16.831055 -41.293945C16.235352 -40.698242 15.537109 -40.229492 14.736328 -39.887695C13.935547 -39.545898 13.085938 -39.375000 12.187500 -39.375000C11.289062 -39.375000 10.439453 -39.545898 9.638672 -39.887695C8.837891 -40.229492 8.139648 -40.698242 7.543945 -41.293945C6.948242 -41.889648 6.479492 -42.587891 6.137695 -43.388672C5.795898 -44.189453 5.625000 -45.039062 5.625000 -45.937500ZM5.625000 -45.937500"></path></svg>