<svg width="28.125000" height="28.125000" viewBox="1.875000 -54.375000 28.125000 28.125000" xmlns="http://www.w3.org/2000/svg"><path d="M20.625000 -37.148438C20.214844 -37.441406 19.790039 -37.709961 19.350586 -37.954102C18.911133 -38.198242 18.457031 -38.408203 17.988281 -38.583984C19.335938 -39.306641 20.424805 -40.317383 21.254883 -41.616211C22.084961 -42.915039 22.500000 -44.355469 22.500000 -45.937500C22.500000 -47.109375 22.270508 -48.203125 21.811523 -49.218750C21.352539 -50.234375 20.722656 -51.127930 19.921875 -51.899414C19.121094 -52.670898 18.183594 -53.276367 17.109375 -53.715820C16.035156 -54.155273 14.882812 -54.375000 13.652344 -54.375000C12.441406 -54.375000 11.342773 -54.165039 10.356445 -53.745117C9.370117 -53.325195 8.525391 -52.749023 7.822266 -52.016602C7.119141 -51.284180 6.582031 -50.434570 6.210938 -49.467773C5.839844 -48.500977 5.654297 -47.460938 5.654297 -46.347656C5.654297 -45.585938 5.717773 -44.824219 5.844727 -44.062500C5.971680 -43.300781 6.181641 -42.573242 6.474609 -41.879883C6.767578 -41.186523 7.148438 -40.551758 7.617188 -39.975586C8.085938 -39.399414 8.662109 -38.935547 9.345703 -38.583984C8.251953 -38.173828 7.246094 -37.622070 6.328125 -36.928711C5.410156 -36.235352 4.624023 -35.434570 3.969727 -34.526367C3.315430 -33.618164 2.802734 -32.622070 2.431641 -31.538086C2.060547 -30.454102 1.875000 -29.316406 1.875000 -28.125000L1.875000 -26.250000L3.837891 -26.250000L3.837891 -28.125000C3.837891 -29.414062 4.096680 -30.629883 4.614258 -31.772461C5.131836 -32.915039 5.834961 -33.911133 6.723633 -34.760742C7.612305 -35.610352 8.652344 -36.279297 9.843750 -36.767578C11.035156 -37.255859 12.304688 -37.500000 13.652344 -37.500000C14.960938 -37.500000 16.230469 -37.241211 17.460938 -36.723633C18.691406 -36.206055 19.746094 -35.556641 20.625000 -34.775391ZM7.500000 -45.937500C7.500000 -46.835938 7.670898 -47.685547 8.012695 -48.486328C8.354492 -49.287109 8.823242 -49.985352 9.418945 -50.581055C10.014648 -51.176758 10.712891 -51.645508 11.513672 -51.987305C12.314453 -52.329102 13.164062 -52.500000 14.062500 -52.500000C14.960938 -52.500000 15.810547 -52.329102 16.611328 -51.987305C17.412109 -51.645508 18.110352 -51.176758 18.706055 -50.581055C19.301758 -49.985352 19.770508 -49.287109 20.112305 -48.486328C20.454102 -47.685547 20.625000 -46.835938 20.625000 -45.937500C20.625000 -45.039062 20.454102 -44.189453 20.112305 -43.388672C19.770508 -42.587891 19.301758 -41.889648 18.706055 -41.293945C18.110352 -40.698242 17.412109 -40.229492 16.611328 -39.887695C15.810547 -39.545898 14.960938 -39.375000 14.062500 -39.375000C13.164062 -39.375000 12.314453 -39.545898 11.513672 -39.887695C10.712891 -40.229492 10.014648 -40.698242 9.418945 -41.293945C8.823242 -41.889648 8.354492 -42.587891 8.012695 -43.388672C7.670898 -44.189453 7.500000 -45.039062 7.500000 -45.937500ZM29.062500 -31.875000L21.562500 -31.875000C21.308594 -31.875000 21.088867 -31.782227 20.903320 -31.596680C20.717773 -31.411133 20.625000 -31.191406 20.625000 -30.937500C20.625000 -30.683594 20.717773 -30.463867 20.903320 -30.278320C21.088867 -30.092773 21.308594 -30.000000 21.562500 -30.000000L29.062500 -30.000000C29.316406 -30.000000 29.536133 -30.092773 29.721680 -30.278320C29.907227 -30.463867 30.000000 -30.683594 30.000000 -30.937500C30.000000 -31.191406 29.907227 -31.411133 29.721680 -31.596680C29.536133 -31.782227 29.316406 -31.875000 29.062500 -31.875000ZM29.062500 -31.875000"></path></svg>