<svg width="22.500000" height="28.125000" viewBox="3.750000 -54.375000 22.500000 28.125000" xmlns="http://www.w3.org/2000/svg"><path d="M19.130859 -38.583984C20.419922 -39.306641 21.459961 -40.317383 22.250977 -41.616211C23.041992 -42.915039 23.437500 -44.355469 23.437500 -45.937500C23.437500 -47.109375 23.217773 -48.203125 22.778320 -49.218750C22.338867 -50.234375 21.738281 -51.127930 20.976562 -51.899414C20.214844 -52.670898 19.321289 -53.276367 18.295898 -53.715820C17.270508 -54.155273 16.171875 -54.375000 15.000000 -54.375000C13.828125 -54.375000 12.729492 -54.155273 11.704102 -53.715820C10.678711 -53.276367 9.785156 -52.670898 9.023438 -51.899414C8.261719 -51.127930 7.661133 -50.234375 7.221680 -49.218750C6.782227 -48.203125 6.562500 -47.109375 6.562500 -45.937500C6.562500 -44.355469 6.958008 -42.915039 7.749023 -41.616211C8.540039 -40.317383 9.580078 -39.306641 10.869141 -38.583984C9.833984 -38.173828 8.876953 -37.622070 7.998047 -36.928711C7.119141 -36.235352 6.367188 -35.434570 5.742188 -34.526367C5.117188 -33.618164 4.628906 -32.622070 4.277344 -31.538086C3.925781 -30.454102 3.750000 -29.316406 3.750000 -28.125000L3.750000 -26.250000L5.625000 -26.250000L5.625000 -28.125000C5.625000 -29.414062 5.869141 -30.629883 6.357422 -31.772461C6.845703 -32.915039 7.514648 -33.911133 8.364258 -34.760742C9.213867 -35.610352 10.209961 -36.279297 11.352539 -36.767578C12.495117 -37.255859 13.710938 -37.500000 15.000000 -37.500000C16.289062 -37.500000 17.504883 -37.255859 18.647461 -36.767578C19.790039 -36.279297 20.786133 -35.610352 21.635742 -34.760742C22.485352 -33.911133 23.154297 -32.915039 23.642578 -31.772461C24.130859 -30.629883 24.375000 -29.414062 24.375000 -28.125000L24.375000 -26.250000L26.250000 -26.250000L26.250000 -28.125000C26.250000 -29.316406 26.074219 -30.454102 25.722656 -31.538086C25.371094 -32.622070 24.882812 -33.618164 24.257812 -34.526367C23.632812 -35.434570 22.880859 -36.235352 22.001953 -36.928711C21.123047 -37.622070 20.166016 -38.173828 19.130859 -38.583984ZM8.437500 -45.937500C8.437500 -46.835938 8.608398 -47.685547 8.950195 -48.486328C9.291992 -49.287109 9.760742 -49.985352 10.356445 -50.581055C10.952148 -51.176758 11.650391 -51.645508 12.451172 -51.987305C13.251953 -52.329102 14.101562 -52.500000 15.000000 -52.500000C15.898438 -52.500000 16.748047 -52.329102 17.548828 -51.987305C18.349609 -51.645508 19.047852 -51.176758 19.643555 -50.581055C20.239258 -49.985352 20.708008 -49.287109 21.049805 -48.486328C21.391602 -47.685547 21.562500 -46.835938 21.562500 -45.937500C21.562500 -45.039062 21.391602 -44.189453 21.049805 -43.388672C20.708008 -42.587891 20.239258 -41.889648 19.643555 -41.293945C19.047852 -40.698242 18.349609 -40.229492 17.548828 -39.887695C16.748047 -39.545898 15.898438 -39.375000 15.000000 -39.375000C14.101562 -39.375000 13.251953 -39.545898 12.451172 -39.887695C11.650391 -40.229492 10.952148 -40.698242 10.356445 -41.293945C9.760742 -41.889648 9.291992 -42.587891 8.950195 -43.388672C8.608398 -44.189453 8.437500 -45.039062 8.437500 -45.937500ZM8.437500 -45.937500"></path></svg>