<?xml version="1.0" encoding="UTF-8" standalone="no"?>
<svg width="16px" height="16px" viewBox="0 0 16 16" version="1.1" xmlns="http://www.w3.org/2000/svg" xmlns:xlink="http://www.w3.org/1999/xlink" xmlns:sketch="http://www.bohemiancoding.com/sketch/ns">
    <!-- Generator: Sketch 3.3.2 (12043) - http://www.bohemiancoding.com/sketch -->
    <title>icon-video</title>
    <desc>Created with Sketch.</desc>
    <defs></defs>
    <g stroke="none" stroke-width="1" fill="rgb(0,0,0)" fill-rule="evenodd" sketch:type="MSPage">
        <g sketch:type="MSArtboardGroup" transform="translate(-544.000000, -405.000000)" fill="rgb(0,0,0)">
            <g sketch:type="MSLayerGroup" transform="translate(100.000000, 220.000000)">
                <g transform="translate(43.000000, 185.000000)" sketch:type="MSShapeGroup">
                    <g transform="translate(401.000000, 0.000000)">
                        <path d="M15,0 L1,0 C0.729166933,0 0.494791467,0.0989584 0.2968752,0.2968752 C0.0989584,0.494791467 0,0.729166933 0,1 L0,15 C0,15.2812501 0.0989584,15.5182293 0.2968752,15.7109376 C0.494791467,15.9036459 0.729166933,16 1,16 L15,16 C15.2812501,16 15.5182293,15.9036459 15.7109376,15.7109376 C15.9036459,15.5182293 16,15.2812501 16,15 L16,1 C16,0.729166933 15.9036459,0.494791467 15.7109376,0.2968752 C15.5182293,0.0989584 15.2812501,0 15,0 L15,0 Z M3,15 L1.5,15 C1.36458347,15 1.24739573,14.9505211 1.14843733,14.8515627 C1.04947893,14.7526043 1,14.6354165 1,14.5 L1,13 L3,13 L3,15 Z M3,12 L1,12 L1,10 L3,10 L3,12 Z M3,8 L3,9 L1,9 L1,7 L3,7 L3,8 Z M3,6 L1,6 L1,4 L3,4 L3,6 Z M3,3 L1,3 L1,1.5 C1,1.36458347 1.04947893,1.24739573 1.14843733,1.14843733 C1.24739573,1.04947893 1.36458347,1 1.5,1 L3,1 L3,3 Z M12,10 L12,15 L4,15 L4,9 L12,9 L12,10 Z M12,3 L12,8 L4,8 L4,1 L12,1 L12,3 Z M15,14.5 C15,14.6354165 14.9505211,14.7526043 14.8515627,14.8515627 C14.7526043,14.9505211 14.6354165,15 14.5,15 L13,15 L13,13 L15,13 L15,14.5 Z M15,12 L13,12 L13,10 L15,10 L15,12 Z M15,9 L13,9 L13,7 L15,7 L15,9 Z M15,6 L13,6 L13,4 L15,4 L15,6 Z M15,3 L13,3 L13,1 L14.5,1 C14.6354165,1 14.7526043,1.04947893 14.8515627,1.14843733 C14.9505211,1.24739573 15,1.36458347 15,1.5 L15,3 Z"></path>
                    </g>
                </g>
            </g>
        </g>
    </g>
</svg>