<?xml version="1.0" encoding="UTF-8" standalone="no"?>
<svg width="15px" height="14px" viewBox="0 0 15 14" version="1.1" xmlns="http://www.w3.org/2000/svg" xmlns:xlink="http://www.w3.org/1999/xlink" xmlns:sketch="http://www.bohemiancoding.com/sketch/ns">
    <!-- Generator: Sketch 3.3.2 (12043) - http://www.bohemiancoding.com/sketch -->
    <title>icon (warning)</title>
    <desc>Created with Sketch.</desc>
    <defs></defs>
    <g stroke="none" stroke-width="1" fill="rgb(0,0,0)" fill-rule="evenodd" sketch:type="MSPage">
        <g sketch:type="MSArtboardGroup" transform="translate(-431.000000, -481.000000)" fill="rgb(0,0,0)">
            <g sketch:type="MSLayerGroup" transform="translate(100.000000, 211.000000)">
                <g transform="translate(23.000000, 72.000000)" sketch:type="MSShapeGroup">
                    <g transform="translate(10.000000, 162.000000)">
                        <g transform="translate(73.000000, 0.000000)">
                            <path d="M239.605256,50 L225.395035,50 C225.254512,50 225.125041,49.9225928 225.05399,49.7957767 C224.982938,49.6689606 224.982149,49.5133227 225.050832,49.3856832 L232.155943,36.2099876 C232.226204,36.0807011 232.357254,36 232.500146,36 C232.643037,36 232.774087,36.0798777 232.844349,36.2099876 L239.94946,49.3856832 C240.018142,49.5133227 240.016563,49.6689606 239.946302,49.7957767 C239.87604,49.9225928 239.74578,50 239.605256,50 Z M238.930271,49 L232.500146,37.2007637 L226.07002,49 L238.930271,49 Z M232.500146,45.4742705 C232.282256,45.4742705 232.105417,45.2974322 232.105417,45.0795421 L232.105417,41.1322584 C232.105417,40.9143683 232.282256,40.73753 232.500146,40.73753 C232.718036,40.73753 232.894874,40.9143683 232.894874,41.1322584 L232.894874,45.0795421 C232.894874,45.2974322 232.718036,45.4742705 232.500146,45.4742705 Z M232.500146,47.8426408 C232.282256,47.8426408 232.105417,47.6658025 232.105417,47.4479124 L232.105417,46.6584557 C232.105417,46.4405656 232.282256,46.2637273 232.500146,46.2637273 C232.718036,46.2637273 232.894874,46.4405656 232.894874,46.6584557 L232.894874,47.4479124 C232.894874,47.6658025 232.718036,47.8426408 232.500146,47.8426408 Z"></path>
                        </g>
                    </g>
                </g>
            </g>
        </g>
    </g>
</svg>