<?xml version="1.0" encoding="UTF-8" standalone="no"?>
<svg width="18px" height="13px" viewBox="0 0 18 13" version="1.1" xmlns="http://www.w3.org/2000/svg" xmlns:xlink="http://www.w3.org/1999/xlink" xmlns:sketch="http://www.bohemiancoding.com/sketch/ns">
    <!-- Generator: Sketch 3.4 (15588) - http://www.bohemiancoding.com/sketch -->
    <title>:: icon (youtube)</title>
    <desc>Created with Sketch.</desc>
    <defs></defs>
    <g stroke="none" stroke-width="1" fill="rgb(0,0,0)" fill-rule="evenodd" sketch:type="MSPage">
        <g sketch:type="MSArtboardGroup" transform="translate(-166.000000, -310.000000)">
            <g sketch:type="MSLayerGroup" transform="translate(100.000000, 206.000000)">
                <g transform="translate(66.000000, 104.000000)" sketch:type="MSShapeGroup">
                    <path d="M17.7255282,2.36441119 C17.3827919,0.966694808 16.7393781,0.428102697 15.5551575,0.233510562 C14.8723206,0.131349691 11.5950475,0 8.9941935,0 L9.0058065,3.8918427e-05 C6.4049907,3.8918427e-05 3.12767935,0.131388609 2.44484249,0.23354948 C1.26062191,0.428141615 0.617246326,0.966694808 0.27447177,2.36441119 C0.159182166,2.83458471 0,5.40970027 0,6.39235163 L0,6.60760945 C0,7.59029973 0.159182166,10.1654153 0.27447177,10.6355499 C0.617246326,12.0332663 1.26062191,12.5718584 2.44484249,12.7664505 C3.12767935,12.8686114 6.4049907,12.9999611 9.0058065,12.9999611 L8.9941935,13 C11.5950475,13 14.8723206,12.8686503 15.5551575,12.7664894 C16.7393781,12.5718973 17.3827919,12.0332663 17.7255282,10.6355499 C17.840856,10.1654153 18,7.59033865 18,6.60760945 L18,6.39235163 C18,5.40966135 17.840856,2.83458471 17.7255282,2.36441119" fill="rgb(0,0,0)"></path>
                    <path d="M7,4 L12,6.44084045 L7,9 L7,4 Z" fill="#FFFFFF"></path>
                </g>
            </g>
        </g>
    </g>
</svg>