<?xml version="1.0" encoding="UTF-8" standalone="no"?>
<!-- Generator: Avocode 2.0.0 - http://avocode.com -->
<svg xmlns="http://www.w3.org/2000/svg" xmlns:xlink="http://www.w3.org/1999/xlink" width="13" height="13" viewBox="0 0 13 13">
    <desc>Created with Avocode</desc>
    <g fill="#808080">
        <path d="M 6.5 0 C 5.6 0, 4.87 0.73, 4.87 1.62 L 4.87 4.87 C 4.87 5.77, 5.6 6.5, 6.5 6.5 C 7.4 6.5, 8.12 5.77, 8.12 4.87 L 8.12 1.62 C 8.12 0.73, 7.4 0, 6.5 0 Z" />
        <path d="M 6.5 6.5 C 5.6 6.5, 4.87 7.23, 4.87 8.12 L 4.87 11.37 C 4.87 12.27, 5.6 13, 6.5 13 C 7.4 13, 8.12 12.27, 8.12 11.37 L 8.12 8.12 C 8.12 7.23, 7.4 6.5, 6.5 6.5 Z" />
        <path d="M 0 6.5 C 0 7.4, 0.73 8.12, 1.62 8.12 L 4.87 8.12 C 5.77 8.12, 6.5 7.4, 6.5 6.5 C 6.5 5.6, 5.77 4.87, 4.87 4.87 L 1.62 4.87 C 0.73 4.87, 0 5.6, 0 6.5 Z" />
        <path d="M 6.5 6.5 C 6.5 7.4, 7.23 8.12, 8.12 8.12 L 11.37 8.12 C 12.27 8.12, 13 7.4, 13 6.5 C 13 5.6, 12.27 4.87, 11.37 4.87 L 8.12 4.87 C 7.23 4.87, 6.5 5.6, 6.5 6.5 Z" />
        <path d="M 1.9 1.9 C 1.27 2.54, 1.27 3.57, 1.9 4.2 L 4.2 6.5 C 4.84 7.13, 5.87 7.13, 6.5 6.5 C 7.13 5.86, 7.13 4.84, 6.5 4.2 L 4.2 1.9 C 3.57 1.27, 2.54 1.27, 1.9 1.9 Z" />
        <path d="M 6.5 6.5 C 5.87 7.13, 5.87 8.16, 6.5 8.8 L 8.8 11.09 C 9.43 11.73, 10.46 11.73, 11.1 11.09 C 11.73 10.46, 11.73 9.43, 11.1 8.8 L 8.8 6.5 C 8.16 5.86, 7.13 5.86, 6.5 6.5 Z" />
        <path d="M 1.9 11.09 C 2.54 11.73, 3.57 11.73, 4.2 11.09 L 6.5 8.8 C 7.13 8.16, 7.13 7.13, 6.5 6.5 C 5.87 5.86, 4.84 5.86, 4.2 6.5 L 1.9 8.8 C 1.27 9.43, 1.27 10.46, 1.9 11.09 Z" />
        <path d="M 6.5 6.5 C 7.13 7.13, 8.16 7.13, 8.8 6.5 L 11.1 4.2 C 11.73 3.57, 11.73 2.54, 11.1 1.9 C 10.46 1.27, 9.43 1.27, 8.8 1.9 L 6.5 4.2 C 5.87 4.84, 5.87 5.86, 6.5 6.5 Z" />
        <path d="M 6.5 1.3 C 3.63 1.3, 1.3 3.63, 1.3 6.5 C 1.3 9.37, 3.63 11.7, 6.5 11.7 C 9.37 11.7, 11.7 9.37, 11.7 6.5 C 11.7 3.63, 9.37 1.3, 6.5 1.3 Z" />
        <path d="M 6.5 1.95 C 3.99 1.95, 1.95 3.99, 1.95 6.5 C 1.95 9.01, 3.99 11.05, 6.5 11.05 C 9.01 11.05, 11.05 9.01, 11.05 6.5 C 11.05 3.99, 9.01 1.95, 6.5 1.95 Z" />
        <path d="M 6.5 0.81 C 6.05 0.81, 5.69 1.18, 5.69 1.62 L 5.69 11.37 C 5.69 11.82, 6.05 12.19, 6.5 12.19 C 6.95 12.19, 7.31 11.82, 7.31 11.37 L 7.31 1.62 C 7.31 1.18, 6.95 0.81, 6.5 0.81 Z" />
        <path d="M 0.81 6.5 C 0.81 6.95, 1.18 7.31, 1.62 7.31 L 11.37 7.31 C 11.82 7.31, 12.19 6.95, 12.19 6.5 C 12.19 6.05, 11.82 5.69, 11.37 5.69 L 1.62 5.69 C 1.18 5.69, 0.81 6.05, 0.81 6.5 Z" />
        <path d="M 2.48 2.48 C 2.16 2.79, 2.16 3.31, 2.48 3.63 L 9.37 10.52 C 9.69 10.84, 10.2 10.84, 10.52 10.52 C 10.84 10.2, 10.84 9.69, 10.52 9.37 L 3.63 2.48 C 3.31 2.16, 2.8 2.16, 2.48 2.48 Z" />
        <path d="M 2.48 10.52 C 2.8 10.84, 3.31 10.84, 3.63 10.52 L 10.52 3.63 C 10.84 3.31, 10.84 2.79, 10.52 2.48 C 10.2 2.16, 9.69 2.16, 9.37 2.48 L 2.48 9.37 C 2.16 9.69, 2.16 10.2, 2.48 10.52 Z" />
        <path d="M 6.5 4.06 C 5.15 4.06, 4.06 5.15, 4.06 6.5 C 4.06 7.84, 5.15 8.94, 6.5 8.94 C 7.85 8.94, 8.94 7.84, 8.94 6.5 C 8.94 5.15, 7.85 4.06, 6.5 4.06 Z" />
        <path d="M 6.5 4.87 C 5.6 4.87, 4.87 5.6, 4.87 6.5 C 4.87 7.4, 5.6 8.12, 6.5 8.12 C 7.4 8.12, 8.12 7.4, 8.12 6.5 C 8.12 5.6, 7.4 4.87, 6.5 4.87 Z" />
    </g>
</svg>